<?xml version="1.0" encoding="UTF-8" standalone="no"?>
<!DOCTYPE svg PUBLIC "-//W3C//DTD SVG 1.1//EN" "http://www.w3.org/Graphics/SVG/1.1/DTD/svg11.dtd">
<svg width="100%" height="100%" viewBox="0 0 100 100" version="1.1" xmlns="http://www.w3.org/2000/svg" xmlns:xlink="http://www.w3.org/1999/xlink" xml:space="preserve" xmlns:serif="http://www.serif.com/" style="fill-rule:evenodd;clip-rule:evenodd;stroke-linejoin:round;stroke-miterlimit:2;">
    <g id="affinity-photo-logo" transform="matrix(0.229578,0,0,0.229578,-71.5617,-40.3388)">
        <path d="M746,189.99C746,182.821 740.179,177 733.01,177L325.99,177C318.821,177 313,182.821 313,189.99L313,597.01C313,604.179 318.821,610 325.99,610L733.01,610C740.179,610 746,604.179 746,597.01L746,189.99Z" style="fill:none;"/>
        <g>
            <g>
                <clipPath id="_clip1">
                    <path d="M746,189.99C746,182.821 740.179,177 733.01,177L325.99,177C318.821,177 313,182.821 313,189.99L313,597.01C313,604.179 318.821,610 325.99,610L733.01,610C740.179,610 746,604.179 746,597.01L746,189.99Z"/>
                </clipPath>
                <g clip-path="url(#_clip1)">
                    <path d="M746.025,281.462C750.122,279.648 732.109,230.125 736.076,245.661C737.766,252.28 732.421,240.662 727.873,232.154C727.093,230.695 726.233,225.172 725.642,224.23C707.862,195.928 676.902,179.992 663.31,186.903C648.099,194.637 634.03,178.628 632.826,177L461.02,177C426.769,177 385.877,171.753 347.84,205.08C313.357,235.291 308.64,278.053 311.71,307.597L313,518.605C313,522.208 316.924,550.953 336.766,576.044C360.827,606.469 405.231,611.168 408.751,610C495.547,611.438 582.111,612.677 658.961,605.644C662.526,605.644 689.505,602.237 711.349,580.412C733.428,558.352 737.288,530.921 737.288,527.317C754.599,453.372 749.842,364.843 746.025,281.462Z" style="fill:rgb(113,64,194);"/>
                    <path d="M746,277.106C746.977,276.069 722.445,227.205 706.299,206.449C694.729,191.576 691.394,195.169 680.74,190.067L490.53,177L313,484.491L313,518.605C313,525.774 405.937,610 413.106,610L641.538,562.086C648.707,562.086 711.153,551.909 711.153,544.74L746,277.106Z" style="fill:rgb(113,64,194);"/>
                    <path d="M703.508,567.654L592.234,615.603L500.26,456.303L751.656,456.303C751.595,509.363 703.568,514.595 703.508,567.654ZM585.678,615.598L360.755,585.107L460.22,398.298L585.678,615.598ZM341.27,576.396L316.179,524.126L307.397,501.741L403.927,334.496L490.527,334.496C436.432,428.189 399.721,482.704 345.626,576.397L341.27,576.396ZM548.263,334.521C556.589,334.625 564.53,339.191 568.804,346.381C575.438,357.759 581.976,369.191 588.562,380.596C592.562,387.605 592.862,396.612 588.942,403.95C588.848,404.127 588.752,404.302 588.652,404.478C582.119,415.913 575.485,427.288 568.899,438.693C564.803,445.726 557.044,450.366 548.864,450.638C548.665,450.645 548.267,450.638 548.267,450.638L510.912,450.638C502.746,450.603 494.83,446.322 490.505,439.373C490.396,439.203 490.293,439.03 490.189,438.857C483.559,427.478 477.021,416.047 470.435,404.642C466.395,397.572 466.2,388.502 470.05,381.286C470.145,381.11 470.245,380.934 470.34,380.759C476.874,369.324 483.512,357.949 490.093,346.544C494.185,339.527 501.953,334.806 510.128,334.534C510.332,334.527 510.531,334.524 510.73,334.521C523.244,334.468 535.753,334.468 548.263,334.521ZM734.176,267.228L751.599,450.638L568.557,450.638L711.983,207.544L734.176,267.228ZM598.776,386.944L486.226,192L498.121,171.4L683.096,194.678C686.624,193.66 694.156,205.258 705.798,201.891L598.776,386.944ZM558.724,328.87L407.217,328.846L482.949,197.674C508.193,241.398 533.479,285.147 558.724,328.87Z" style="fill:rgb(88,50,138);fill-rule:nonzero;"/>
                    <g transform="matrix(0.433,0,0,0.433,-210.956,177)">
                        <path d="M1277.94,929.582C1248.65,908.335 1227.23,860.876 1210.2,798.806L1199.99,753.441L1417.49,376.72L1587.49,376.72L1277.94,929.582ZM2210.06,658L2210.06,795.786C2193.71,858.028 2153.18,930.399 2090.93,967.296C2030.74,1002.98 1967.47,1011.18 1852.34,999.999L1654.89,658L2210.06,658ZM1807.34,999.999C1643.78,1011.43 1458.08,1000 1418.03,1000C1386.42,1000 1322.85,968.932 1302.52,949.701L1539.99,536.935L1807.34,999.999ZM2213.04,619L1812.61,619L2129.75,70.416C2137.58,65.232 2219.62,164.959 2210.21,241.43L2213.04,619ZM1742.96,376.016C1757.77,376.078 1771.94,384.782 1779.6,397.681C1779.68,397.812 1779.83,398.075 1779.83,398.075L1824.78,475.939C1824.78,475.939 1825.04,476.374 1825.16,476.584C1832.51,489.437 1832.79,505.633 1825.45,518.72C1810.38,545.084 1795.08,571.322 1779.9,597.623C1772.44,610.414 1758.32,618.759 1743.32,618.946C1714.69,619.066 1657.29,619 1657.21,619C1642.4,618.938 1628,611.037 1620.34,598.138C1620.17,597.858 1619.84,597.288 1619.84,597.288C1619.84,597.288 1574.88,519.416 1574.78,519.235C1567.43,506.382 1567.44,489.776 1574.78,476.689L1575.11,476.112C1575.11,476.112 1605.2,423.895 1620.27,397.786C1627.73,384.995 1641.87,376.195 1656.87,376.007C1657.12,376.006 1657.62,375.995 1657.62,375.995L1742.45,376.016L1742.96,376.016ZM1634.99,-0.001C1801.65,-0.503 2043.17,-25.024 2114.93,57.375L1859.99,458.993L1614.99,34.64L1634.99,-0.001ZM1744.99,337.749L1439.99,337.749L1592.49,73.611L1744.99,337.749Z" style="fill:url(#_Radial2);"/>
                    </g>
                </g>
            </g>
        </g>
        <g transform="matrix(4.35582,0,0,4.35582,547.982,471.296)">
            <g transform="matrix(12,0,0,12,0,8.544)">
                <path d="M0.254,-0.249L0.204,-0.507L0.202,-0.507L0.152,-0.249L0.254,-0.249ZM0.002,-0L0.161,-0.712L0.246,-0.712L0.405,-0L0.303,-0L0.273,-0.153L0.134,-0.153L0.104,-0L0.002,-0Z" style="fill:rgb(88,50,138);fill-rule:nonzero;"/>
            </g>
            <g transform="matrix(12,0,0,12,4.884,8.544)">
                <path d="M0.048,-0L0.048,-0.712L0.352,-0.712L0.352,-0.616L0.15,-0.616L0.15,-0.4L0.326,-0.4L0.326,-0.304L0.15,-0.304L0.15,-0L0.048,-0Z" style="fill:rgb(88,50,138);fill-rule:nonzero;"/>
            </g>
            <g transform="matrix(12,0,0,12,9.324,8.544)">
                <path d="M0.048,-0L0.048,-0.712L0.352,-0.712L0.352,-0.616L0.15,-0.616L0.15,-0.4L0.326,-0.4L0.326,-0.304L0.15,-0.304L0.15,-0L0.048,-0Z" style="fill:rgb(88,50,138);fill-rule:nonzero;"/>
            </g>
            <g transform="matrix(12,0,0,12,13.764,8.544)">
                <rect x="0.051" y="-0.712" width="0.102" height="0.712" style="fill:rgb(88,50,138);fill-rule:nonzero;"/>
            </g>
            <g transform="matrix(12,0,0,12,16.212,8.544)">
                <path d="M0.044,-0L0.044,-0.712L0.142,-0.712L0.296,-0.283L0.298,-0.283L0.298,-0.712L0.4,-0.712L0.4,-0L0.304,-0L0.148,-0.428L0.146,-0.428L0.146,-0L0.044,-0Z" style="fill:rgb(88,50,138);fill-rule:nonzero;"/>
            </g>
            <g transform="matrix(12,0,0,12,21.54,8.544)">
                <rect x="0.051" y="-0.712" width="0.102" height="0.712" style="fill:rgb(88,50,138);fill-rule:nonzero;"/>
            </g>
            <g transform="matrix(12,0,0,12,23.988,8.544)">
                <path d="M0.115,-0L0.115,-0.616L-0.003,-0.616L-0.003,-0.712L0.335,-0.712L0.335,-0.616L0.217,-0.616L0.217,-0L0.115,-0Z" style="fill:rgb(88,50,138);fill-rule:nonzero;"/>
            </g>
            <g transform="matrix(12,0,0,12,27.972,8.544)">
                <path d="M0.143,-0L0.143,-0.301L0.003,-0.712L0.111,-0.712L0.193,-0.429L0.195,-0.429L0.277,-0.712L0.385,-0.712L0.245,-0.301L0.245,-0L0.143,-0Z" style="fill:rgb(88,50,138);fill-rule:nonzero;"/>
            </g>
            <g transform="matrix(12,0,0,12,8.928,18.544)">
                <path d="M0.048,-0L0.048,-0.712L0.201,-0.712C0.229,-0.712 0.254,-0.708 0.275,-0.701C0.296,-0.694 0.316,-0.681 0.333,-0.662C0.35,-0.643 0.362,-0.622 0.369,-0.597C0.376,-0.572 0.379,-0.538 0.379,-0.495C0.379,-0.463 0.377,-0.436 0.374,-0.414C0.37,-0.392 0.362,-0.371 0.35,-0.352C0.336,-0.329 0.317,-0.311 0.294,-0.298C0.271,-0.285 0.24,-0.278 0.202,-0.278L0.15,-0.278L0.15,-0L0.048,-0ZM0.15,-0.616L0.15,-0.374L0.199,-0.374C0.22,-0.374 0.236,-0.377 0.247,-0.383C0.258,-0.389 0.267,-0.397 0.272,-0.408C0.277,-0.418 0.281,-0.43 0.282,-0.445C0.283,-0.46 0.283,-0.476 0.283,-0.494C0.283,-0.511 0.283,-0.527 0.282,-0.542C0.281,-0.557 0.278,-0.57 0.273,-0.581C0.268,-0.592 0.26,-0.601 0.249,-0.607C0.238,-0.613 0.223,-0.616 0.203,-0.616L0.15,-0.616Z" style="fill:rgb(88,50,138);fill-rule:nonzero;"/>
            </g>
            <g transform="matrix(12,0,0,12,13.812,18.544)">
                <path d="M0.048,-0L0.048,-0.712L0.15,-0.712L0.15,-0.407L0.276,-0.407L0.276,-0.712L0.378,-0.712L0.378,-0L0.276,-0L0.276,-0.317L0.15,-0.317L0.15,-0L0.048,-0Z" style="fill:rgb(88,50,138);fill-rule:nonzero;"/>
            </g>
            <g transform="matrix(12,0,0,12,18.924,18.544)">
                <path d="M0.042,-0.544C0.042,-0.573 0.047,-0.598 0.057,-0.62C0.067,-0.642 0.08,-0.66 0.097,-0.675C0.113,-0.689 0.131,-0.7 0.152,-0.707C0.172,-0.714 0.192,-0.718 0.213,-0.718C0.234,-0.718 0.254,-0.714 0.275,-0.707C0.295,-0.7 0.313,-0.689 0.33,-0.675C0.346,-0.66 0.359,-0.642 0.369,-0.62C0.379,-0.598 0.384,-0.573 0.384,-0.544L0.384,-0.168C0.384,-0.138 0.379,-0.112 0.369,-0.091C0.359,-0.07 0.346,-0.052 0.33,-0.038C0.313,-0.023 0.295,-0.012 0.275,-0.005C0.254,0.002 0.234,0.006 0.213,0.006C0.192,0.006 0.172,0.002 0.152,-0.005C0.131,-0.012 0.113,-0.023 0.097,-0.038C0.08,-0.052 0.067,-0.07 0.057,-0.091C0.047,-0.112 0.042,-0.138 0.042,-0.168L0.042,-0.544ZM0.144,-0.168C0.144,-0.143 0.151,-0.125 0.165,-0.114C0.178,-0.102 0.194,-0.096 0.213,-0.096C0.232,-0.096 0.248,-0.102 0.262,-0.114C0.275,-0.125 0.282,-0.143 0.282,-0.168L0.282,-0.544C0.282,-0.569 0.275,-0.587 0.262,-0.599C0.248,-0.61 0.232,-0.616 0.213,-0.616C0.194,-0.616 0.178,-0.61 0.165,-0.599C0.151,-0.587 0.144,-0.569 0.144,-0.544L0.144,-0.168Z" style="fill:rgb(88,50,138);fill-rule:nonzero;"/>
            </g>
            <g transform="matrix(12,0,0,12,23.892,18.544)">
                <path d="M0.115,-0L0.115,-0.616L-0.003,-0.616L-0.003,-0.712L0.335,-0.712L0.335,-0.616L0.217,-0.616L0.217,-0L0.115,-0Z" style="fill:rgb(88,50,138);fill-rule:nonzero;"/>
            </g>
            <g transform="matrix(12,0,0,12,27.732,18.544)">
                <path d="M0.042,-0.544C0.042,-0.573 0.047,-0.598 0.057,-0.62C0.067,-0.642 0.08,-0.66 0.097,-0.675C0.113,-0.689 0.131,-0.7 0.152,-0.707C0.172,-0.714 0.192,-0.718 0.213,-0.718C0.234,-0.718 0.254,-0.714 0.275,-0.707C0.295,-0.7 0.313,-0.689 0.33,-0.675C0.346,-0.66 0.359,-0.642 0.369,-0.62C0.379,-0.598 0.384,-0.573 0.384,-0.544L0.384,-0.168C0.384,-0.138 0.379,-0.112 0.369,-0.091C0.359,-0.07 0.346,-0.052 0.33,-0.038C0.313,-0.023 0.295,-0.012 0.275,-0.005C0.254,0.002 0.234,0.006 0.213,0.006C0.192,0.006 0.172,0.002 0.152,-0.005C0.131,-0.012 0.113,-0.023 0.097,-0.038C0.08,-0.052 0.067,-0.07 0.057,-0.091C0.047,-0.112 0.042,-0.138 0.042,-0.168L0.042,-0.544ZM0.144,-0.168C0.144,-0.143 0.151,-0.125 0.165,-0.114C0.178,-0.102 0.194,-0.096 0.213,-0.096C0.232,-0.096 0.248,-0.102 0.262,-0.114C0.275,-0.125 0.282,-0.143 0.282,-0.168L0.282,-0.544C0.282,-0.569 0.275,-0.587 0.262,-0.599C0.248,-0.61 0.232,-0.616 0.213,-0.616C0.194,-0.616 0.178,-0.61 0.165,-0.599C0.151,-0.587 0.144,-0.569 0.144,-0.544L0.144,-0.168Z" style="fill:rgb(88,50,138);fill-rule:nonzero;"/>
            </g>
        </g>
    </g>
    <g id="Layer1">
    </g>
    <defs>
        <radialGradient id="_Radial2" cx="0" cy="0" r="1" gradientUnits="userSpaceOnUse" gradientTransform="matrix(1187.94,0,0,1187.94,1964.33,-187.942)"><stop offset="0" style="stop-color:rgb(249,166,255);stop-opacity:1"/><stop offset="1" style="stop-color:rgb(234,115,255);stop-opacity:1"/></radialGradient>
    </defs>
</svg>
