<?xml version="1.0" encoding="UTF-8" standalone="no"?>
<!DOCTYPE svg PUBLIC "-//W3C//DTD SVG 1.1//EN" "http://www.w3.org/Graphics/SVG/1.1/DTD/svg11.dtd">
<svg width="100%" height="100%" viewBox="0 0 200 200" version="1.1" xmlns="http://www.w3.org/2000/svg" xmlns:xlink="http://www.w3.org/1999/xlink" xml:space="preserve" xmlns:serif="http://www.serif.com/" style="fill-rule:evenodd;clip-rule:evenodd;stroke-linejoin:round;stroke-miterlimit:2;">
    <path d="M200,50C200,22.404 177.596,0 150,0L50,0C22.404,0 0,22.404 0,50L0,150C0,177.596 22.404,200 50,200L150,200C177.596,200 200,177.596 200,150L200,50Z" style="fill:url(#_Radial1);"/>
    <g id="javascript-logo">
        <g id="path5113" transform="matrix(0.0565399,0,0,0.0562598,39.0237,-8.19656)">
            <path d="M161.25,3219.55L-42.867,972.556L2156.1,973.413L1953.7,3217.84L1054.9,3471.7L161.25,3219.55ZM1788.18,3096.91L1958.85,1172.38L1058.33,1172.38L1065.19,3295.03L1788.18,3096.91ZM974.286,1454.55L755.589,1454.55L753.016,2606.35L328.488,2490.57L329.346,2753.86L974.286,2927.96L974.286,1454.55Z" style="fill:rgb(212,184,48);fill-rule:nonzero;"/>
        </g>
        <g id="path5159" transform="matrix(0.0565399,0,0,0.0562598,39.0237,-8.19656)">
            <path d="M902.244,2906.52C873.943,2897.94 734.148,2860.21 591.781,2821.61L333.634,2752.14L333.634,2622.64C333.634,2495.71 333.634,2493.14 346.498,2497.43C353.359,2500 447.699,2525.73 555.761,2555.75L752.159,2609.78L755.589,1460.55L969.997,1460.55L969.997,2191.25C969.997,2771.87 968.282,2921.95 962.279,2921.95C957.991,2921.1 930.546,2914.24 902.244,2906.52Z" style="fill-rule:nonzero;"/>
        </g>
        <g id="path5157" transform="matrix(0.0565399,0,0,0.0562598,39.0237,-8.19656)">
            <path d="M329.346,2753.86L328.488,2490.57C328.488,2490.57 599.5,2566.89 753.016,2606.35L755.589,1455.4L974.286,1455.4L974.286,2927.96L329.346,2753.86Z" style="fill:white;fill-opacity:0.92;fill-rule:nonzero;"/>
        </g>
        <g id="path5117" transform="matrix(0.0565399,0,0,0.0562598,39.0237,-8.19656)">
            <path d="M1058.33,1171.53L1958.85,1171.53L1788.18,3096.06L1058.33,3294.17L1058.33,1171.53ZM1741.87,2773.59L1801.04,2054.03L1363.65,2102.92L1363.65,1718.7L1830.2,1716.98L1849.07,1454.55L1144.95,1457.98L1154.39,2413.38L1579.77,2340.48L1573.77,2553.17L1144.95,2667.24L1149.24,2927.96L1741.87,2773.59Z" style="fill:rgb(253,216,60);fill-rule:nonzero;"/>
        </g>
        <g transform="matrix(0.846639,0,0,1,1.04115,0)">
            <text x="42px" y="35.793px" style="font-family:'Silom';font-size:24px;">JAVASCRIPT</text>
        </g>
    </g>
    <defs>
        <radialGradient id="_Radial1" cx="0" cy="0" r="1" gradientUnits="userSpaceOnUse" gradientTransform="matrix(87.6846,0,0,87.6846,99,100)"><stop offset="0" style="stop-color:white;stop-opacity:1"/><stop offset="0.54" style="stop-color:rgb(248,246,246);stop-opacity:1"/><stop offset="1" style="stop-color:rgb(224,216,216);stop-opacity:1"/></radialGradient>
    </defs>
</svg>
