<?xml version="1.0" encoding="UTF-8" standalone="no"?>
<!DOCTYPE svg PUBLIC "-//W3C//DTD SVG 1.1//EN" "http://www.w3.org/Graphics/SVG/1.1/DTD/svg11.dtd">
<svg width="100%" height="100%" viewBox="0 0 100 100" version="1.1" xmlns="http://www.w3.org/2000/svg" xmlns:xlink="http://www.w3.org/1999/xlink" xml:space="preserve" xmlns:serif="http://www.serif.com/" style="fill-rule:evenodd;clip-rule:evenodd;stroke-linejoin:round;stroke-miterlimit:2;">
    <g transform="matrix(0.136369,0,0,0.136369,50,50)">
        <g id="photoshop-logo" transform="matrix(1,0,0,1,-400,-400)">
            <g id="Layer_2_1_">
                <g id="Surfaces">
                    <g id="Photo_Surface">
                        <g id="Outline_no_shadow">
                            <path d="M163.97,43.671L636.027,43.671C707.602,43.671 765.465,101.536 765.465,173.108L765.465,626.891C765.465,698.466 707.602,756.329 636.027,756.329L163.97,756.329C92.399,756.329 34.534,698.466 34.534,626.891L34.534,173.107C34.534,101.536 92.399,43.671 163.97,43.671Z" style="fill:rgb(0,30,54);fill-rule:nonzero;"/>
                        </g>
                    </g>
                </g>
                <g id="Outlined_Mnemonics_Logos">
                    <g id="Ps">
                        <path d="M198.994,543.445L198.994,230.059C198.994,227.928 199.908,226.708 202.039,226.708C207.217,226.708 212.089,226.708 219.094,226.405C226.404,226.1 234.017,226.1 242.24,225.795C250.463,225.491 259.295,225.491 268.736,225.187C278.178,224.882 287.315,224.882 296.452,224.882C321.425,224.882 342.135,227.928 359.189,234.324C374.418,239.5 388.426,248.028 400,259.297C409.747,269.043 417.359,280.921 422.23,294.016C426.798,306.808 429.237,319.903 429.237,333.607C429.237,359.8 423.144,381.423 410.964,398.477C398.782,415.533 381.727,428.324 361.93,435.633C341.221,443.245 318.38,445.987 293.406,445.987C286.096,445.987 281.224,445.987 278.179,445.684C275.133,445.381 270.87,445.381 265.082,445.381L265.082,543.143C265.388,545.273 263.865,547.101 261.733,547.403L202.649,547.403C200.211,547.402 198.994,546.187 198.994,543.445ZM265.387,285.488L265.387,387.818C269.65,388.122 273.61,388.426 277.264,388.426L293.405,388.426C305.282,388.426 317.16,386.599 328.429,382.944C338.174,380.203 346.702,374.417 353.402,366.804C359.798,359.189 362.843,348.835 362.843,335.434C363.149,325.993 360.711,316.552 355.839,308.33C350.661,300.411 343.351,294.319 334.519,290.97C323.251,286.402 311.069,284.574 298.582,284.879C290.664,284.879 283.659,284.879 277.872,285.183C271.783,284.878 267.519,285.182 265.387,285.488Z" style="fill:rgb(49,168,255);fill-rule:nonzero;"/>
                        <path d="M619.279,369.239C610.142,364.367 600.394,361.016 590.042,358.885C578.774,356.448 567.503,354.926 555.934,354.926C549.841,354.621 543.446,355.535 537.661,357.057C533.698,357.971 530.352,360.102 528.216,363.149C526.697,365.584 525.783,368.631 525.783,371.372C525.783,374.113 527,376.854 528.827,379.289C531.568,382.64 535.223,385.381 539.181,387.513C546.188,391.168 553.497,394.518 560.806,397.563C577.251,403.043 593.087,410.661 607.705,419.797C617.755,426.193 625.978,434.718 631.768,445.071C636.639,454.818 639.078,465.48 638.769,476.444C639.078,490.755 634.812,505.07 626.892,516.948C618.367,529.129 606.489,538.573 592.784,544.055C577.863,550.451 559.59,553.796 537.661,553.796C523.648,553.796 509.943,552.58 496.238,549.839C485.583,548.012 474.921,544.659 465.174,540.092C463.044,538.875 461.52,536.745 461.827,534.307L461.827,481.315C461.827,480.401 462.13,479.185 463.044,478.574C463.957,477.963 464.871,478.271 465.785,478.877C477.662,485.884 490.15,490.755 503.548,493.804C515.122,496.848 527.303,498.372 539.488,498.372C551.057,498.372 559.28,496.848 564.762,494.106C569.639,491.976 572.985,486.796 572.985,481.315C572.985,477.049 570.553,473.092 565.676,469.134C560.805,465.171 550.754,460.603 535.833,454.818C520.301,449.337 505.984,442.027 492.582,432.89C483.143,426.192 475.223,417.359 469.438,407.005C464.567,397.257 462.128,386.597 462.431,375.939C462.431,362.842 466.085,350.356 472.789,339.087C480.401,326.905 491.668,317.159 504.768,311.069C519.079,303.759 537.049,300.409 558.674,300.409C571.157,300.409 583.947,301.323 596.437,303.15C605.574,304.367 614.408,306.805 622.631,310.155C623.847,310.459 625.063,311.677 625.675,312.896C625.977,314.114 626.284,315.332 626.284,316.551L626.284,366.194C626.284,367.411 625.675,368.631 624.761,369.238C622.02,369.849 620.496,369.849 619.279,369.239Z" style="fill:rgb(49,168,255);fill-rule:nonzero;"/>
                    </g>
                </g>
            </g>
        </g>
        <g id="photoshop-logo1" serif:id="photoshop-logo">
        </g>
    </g>
</svg>
