<?xml version="1.0" encoding="UTF-8" standalone="no"?>
<!DOCTYPE svg PUBLIC "-//W3C//DTD SVG 1.1//EN" "http://www.w3.org/Graphics/SVG/1.1/DTD/svg11.dtd">
<svg width="100%" height="100%" viewBox="0 0 222 222" version="1.1" xmlns="http://www.w3.org/2000/svg" xmlns:xlink="http://www.w3.org/1999/xlink" xml:space="preserve" xmlns:serif="http://www.serif.com/" style="fill-rule:evenodd;clip-rule:evenodd;stroke-linecap:round;stroke-linejoin:round;stroke-miterlimit:1.5;">
    <g transform="matrix(1,0,0,1,-22.3704,-47.4131)">
        <g transform="matrix(1.09877,0,0,1.09877,-32.5433,-17.3896)">
            <path d="M155.116,59.094C152.218,58.969 149.315,58.969 146.417,59.094L139.966,84.806C135.901,85.391 131.89,86.307 127.973,87.543L111.005,67.176C108.339,68.321 105.724,69.58 103.168,70.951L108.511,96.915C105.103,99.207 101.886,101.772 98.894,104.585L74.769,93.598C72.864,95.785 71.055,98.055 69.346,100.399L85.426,121.473C83.349,125.017 81.564,128.723 80.088,132.556L53.586,133.124C52.819,135.922 52.173,138.752 51.65,141.605L75.282,153.616C74.948,157.709 74.948,161.823 75.282,165.917L51.65,177.928C52.173,180.781 52.819,183.611 53.586,186.409L80.088,186.977C81.564,190.809 83.349,194.516 85.426,198.059L69.346,219.134C71.055,221.478 72.864,223.747 74.769,225.935L98.894,214.948C101.886,217.761 105.103,220.326 108.511,222.617L103.168,248.582C105.724,249.952 108.339,251.212 111.005,252.356L127.973,231.99C131.89,233.226 135.901,234.141 139.966,234.727L146.417,260.439C149.315,260.564 152.218,260.564 155.116,260.439L161.567,234.727C165.632,234.141 169.643,233.226 173.56,231.99L190.528,252.356C193.193,251.212 195.808,249.952 198.365,248.582L193.022,222.617C196.43,220.326 199.646,217.761 202.639,214.948L226.764,225.935C228.668,223.747 230.478,221.478 232.187,219.134L216.107,198.059C218.184,194.516 219.969,190.809 221.444,186.977L247.947,186.409C248.714,183.611 249.36,180.781 249.883,177.928L226.251,165.917C226.585,161.823 226.585,157.709 226.251,153.616L249.883,141.605C249.36,138.752 248.714,135.922 247.947,133.124L221.444,132.556C219.969,128.723 218.184,125.017 216.107,121.473L232.187,100.399C230.478,98.055 228.668,95.785 226.764,93.598L202.639,104.585C199.646,101.772 196.43,99.207 193.022,96.915L198.365,70.951C195.808,69.58 193.193,68.321 190.528,67.176L173.56,87.543C169.643,86.307 165.632,85.391 161.567,84.806L155.116,59.094ZM150.766,97.811C184.961,97.811 212.722,125.572 212.722,159.766C212.722,193.961 184.961,221.722 150.766,221.722C116.572,221.722 88.811,193.961 88.811,159.766C88.811,125.572 116.572,97.811 150.766,97.811Z" style="fill:rgb(147,140,184);stroke:black;stroke-width:0.05px;"/>
        </g>
    </g>
</svg>
