<?xml version="1.0" encoding="UTF-8" standalone="no"?>
<!DOCTYPE svg PUBLIC "-//W3C//DTD SVG 1.1//EN" "http://www.w3.org/Graphics/SVG/1.1/DTD/svg11.dtd">
<svg width="100%" height="100%" viewBox="0 0 281 281" version="1.1" xmlns="http://www.w3.org/2000/svg" xmlns:xlink="http://www.w3.org/1999/xlink" xml:space="preserve" xmlns:serif="http://www.serif.com/" style="fill-rule:evenodd;clip-rule:evenodd;stroke-linecap:round;stroke-linejoin:round;stroke-miterlimit:1.5;">
    <g transform="matrix(1,0,0,1,-533.632,-125.072)">
        <g id="_20T-cog" serif:id="20T-cog" transform="matrix(0.734456,-0.121522,0.121522,0.734456,356.048,168.788)">
            <path d="M406.427,33.923C402.144,33.755 397.856,33.755 393.573,33.923C391.264,47.112 388.857,60.283 386.352,73.437C382.415,73.869 378.502,74.489 374.624,75.294C368.177,63.559 361.818,51.776 355.546,39.946C351.421,41.11 347.343,42.435 343.321,43.918C345.201,57.175 346.982,70.446 348.664,83.729C345.054,85.357 341.523,87.156 338.084,89.12C328.326,79.951 318.637,70.71 309.017,61.397C305.453,63.779 301.984,66.299 298.618,68.953C304.502,80.98 310.296,93.051 316.001,105.164C313.071,107.828 310.269,110.63 307.605,113.56C295.491,107.856 283.421,102.061 271.393,96.177C268.74,99.543 266.219,103.012 263.838,106.576C273.151,116.196 282.392,125.886 291.56,135.643C289.597,139.083 287.798,142.613 286.17,146.223C272.886,144.541 259.616,142.76 246.359,140.881C244.875,144.902 243.55,148.98 242.387,153.106C254.217,159.377 265.999,165.737 277.735,172.184C276.93,176.061 276.31,179.975 275.877,183.911C262.724,186.416 249.553,188.823 236.364,191.132C236.196,195.415 236.196,199.703 236.364,203.987C249.553,206.295 262.724,208.702 275.877,211.208C276.31,215.144 276.93,219.058 277.735,222.935C265.999,229.382 254.217,235.742 242.387,242.013C243.55,246.139 244.875,250.217 246.359,254.238C259.616,252.359 272.886,250.578 286.17,248.896C287.798,252.506 289.597,256.036 291.56,259.475C282.392,269.233 273.151,278.922 263.838,288.543C266.219,292.107 268.74,295.576 271.393,298.942C283.421,293.058 295.491,287.263 307.605,281.559C310.269,284.489 313.071,287.291 316.001,289.955C310.296,302.068 304.502,314.139 298.618,326.166C301.984,328.82 305.453,331.34 309.017,333.722C318.637,324.409 328.326,315.168 338.084,305.999C341.523,307.963 345.054,309.762 348.664,311.39C346.982,324.673 345.201,337.944 343.321,351.201C347.343,352.684 351.421,354.009 355.546,355.173C361.818,343.343 368.177,331.56 374.624,319.825C378.502,320.63 382.415,321.249 386.352,321.682C388.857,334.835 391.264,348.007 393.573,361.196C397.856,361.364 402.144,361.364 406.427,361.196C408.736,348.007 411.143,334.835 413.648,321.682C417.585,321.249 421.498,320.63 425.376,319.825C431.823,331.56 438.182,343.343 444.454,355.173C448.579,354.009 452.657,352.684 456.679,351.201C454.799,337.944 453.018,324.673 451.336,311.39C454.946,309.762 458.477,307.963 461.916,305.999C471.674,315.168 481.363,324.409 490.983,333.722C494.547,331.34 498.016,328.82 501.382,326.166C495.498,314.139 489.704,302.068 483.999,289.955C486.929,287.291 489.731,284.489 492.395,281.559C504.509,287.263 516.579,293.058 528.607,298.942C531.26,295.576 533.781,292.107 536.162,288.543C526.849,278.922 517.608,269.233 508.44,259.475C510.403,256.036 512.202,252.506 513.83,248.896C527.114,250.578 540.384,252.359 553.641,254.238C555.125,250.217 556.45,246.139 557.613,242.013C545.783,235.742 534.001,229.382 522.265,222.935C523.07,219.058 523.69,215.144 524.123,211.208C537.276,208.702 550.447,206.295 563.636,203.987C563.804,199.703 563.804,195.415 563.636,191.132C550.447,188.823 537.276,186.416 524.123,183.911C523.69,179.975 523.07,176.061 522.265,172.184C534.001,165.737 545.783,159.377 557.613,153.106C556.45,148.98 555.125,144.902 553.641,140.881C540.384,142.76 527.114,144.541 513.83,146.223C512.202,142.613 510.403,139.083 508.44,135.643C517.608,125.886 526.849,116.196 536.162,106.576C533.781,103.012 531.26,99.543 528.607,96.177C516.579,102.061 504.509,107.856 492.395,113.56C489.731,110.63 486.929,107.828 483.999,105.164C489.704,93.051 495.498,80.98 501.382,68.953C498.016,66.299 494.547,63.779 490.983,61.397C481.363,70.71 471.674,79.951 461.916,89.12C458.477,87.156 454.946,85.357 451.336,83.729C453.018,70.446 454.799,57.175 456.679,43.918C452.657,42.435 448.579,41.11 444.454,39.946C438.182,51.776 431.823,63.559 425.376,75.294C421.498,74.489 417.585,73.869 413.648,73.437C411.143,60.283 408.736,47.112 406.427,33.923ZM400,96.632C455.703,96.632 500.928,141.856 500.928,197.559C500.928,253.263 455.703,298.487 400,298.487C344.297,298.487 299.072,253.263 299.072,197.559C299.072,141.856 344.297,96.632 400,96.632Z" style="fill:rgb(170,169,173);"/>
            <clipPath id="_clip1">
                <path d="M406.427,33.923C402.144,33.755 397.856,33.755 393.573,33.923C391.264,47.112 388.857,60.283 386.352,73.437C382.415,73.869 378.502,74.489 374.624,75.294C368.177,63.559 361.818,51.776 355.546,39.946C351.421,41.11 347.343,42.435 343.321,43.918C345.201,57.175 346.982,70.446 348.664,83.729C345.054,85.357 341.523,87.156 338.084,89.12C328.326,79.951 318.637,70.71 309.017,61.397C305.453,63.779 301.984,66.299 298.618,68.953C304.502,80.98 310.296,93.051 316.001,105.164C313.071,107.828 310.269,110.63 307.605,113.56C295.491,107.856 283.421,102.061 271.393,96.177C268.74,99.543 266.219,103.012 263.838,106.576C273.151,116.196 282.392,125.886 291.56,135.643C289.597,139.083 287.798,142.613 286.17,146.223C272.886,144.541 259.616,142.76 246.359,140.881C244.875,144.902 243.55,148.98 242.387,153.106C254.217,159.377 265.999,165.737 277.735,172.184C276.93,176.061 276.31,179.975 275.877,183.911C262.724,186.416 249.553,188.823 236.364,191.132C236.196,195.415 236.196,199.703 236.364,203.987C249.553,206.295 262.724,208.702 275.877,211.208C276.31,215.144 276.93,219.058 277.735,222.935C265.999,229.382 254.217,235.742 242.387,242.013C243.55,246.139 244.875,250.217 246.359,254.238C259.616,252.359 272.886,250.578 286.17,248.896C287.798,252.506 289.597,256.036 291.56,259.475C282.392,269.233 273.151,278.922 263.838,288.543C266.219,292.107 268.74,295.576 271.393,298.942C283.421,293.058 295.491,287.263 307.605,281.559C310.269,284.489 313.071,287.291 316.001,289.955C310.296,302.068 304.502,314.139 298.618,326.166C301.984,328.82 305.453,331.34 309.017,333.722C318.637,324.409 328.326,315.168 338.084,305.999C341.523,307.963 345.054,309.762 348.664,311.39C346.982,324.673 345.201,337.944 343.321,351.201C347.343,352.684 351.421,354.009 355.546,355.173C361.818,343.343 368.177,331.56 374.624,319.825C378.502,320.63 382.415,321.249 386.352,321.682C388.857,334.835 391.264,348.007 393.573,361.196C397.856,361.364 402.144,361.364 406.427,361.196C408.736,348.007 411.143,334.835 413.648,321.682C417.585,321.249 421.498,320.63 425.376,319.825C431.823,331.56 438.182,343.343 444.454,355.173C448.579,354.009 452.657,352.684 456.679,351.201C454.799,337.944 453.018,324.673 451.336,311.39C454.946,309.762 458.477,307.963 461.916,305.999C471.674,315.168 481.363,324.409 490.983,333.722C494.547,331.34 498.016,328.82 501.382,326.166C495.498,314.139 489.704,302.068 483.999,289.955C486.929,287.291 489.731,284.489 492.395,281.559C504.509,287.263 516.579,293.058 528.607,298.942C531.26,295.576 533.781,292.107 536.162,288.543C526.849,278.922 517.608,269.233 508.44,259.475C510.403,256.036 512.202,252.506 513.83,248.896C527.114,250.578 540.384,252.359 553.641,254.238C555.125,250.217 556.45,246.139 557.613,242.013C545.783,235.742 534.001,229.382 522.265,222.935C523.07,219.058 523.69,215.144 524.123,211.208C537.276,208.702 550.447,206.295 563.636,203.987C563.804,199.703 563.804,195.415 563.636,191.132C550.447,188.823 537.276,186.416 524.123,183.911C523.69,179.975 523.07,176.061 522.265,172.184C534.001,165.737 545.783,159.377 557.613,153.106C556.45,148.98 555.125,144.902 553.641,140.881C540.384,142.76 527.114,144.541 513.83,146.223C512.202,142.613 510.403,139.083 508.44,135.643C517.608,125.886 526.849,116.196 536.162,106.576C533.781,103.012 531.26,99.543 528.607,96.177C516.579,102.061 504.509,107.856 492.395,113.56C489.731,110.63 486.929,107.828 483.999,105.164C489.704,93.051 495.498,80.98 501.382,68.953C498.016,66.299 494.547,63.779 490.983,61.397C481.363,70.71 471.674,79.951 461.916,89.12C458.477,87.156 454.946,85.357 451.336,83.729C453.018,70.446 454.799,57.175 456.679,43.918C452.657,42.435 448.579,41.11 444.454,39.946C438.182,51.776 431.823,63.559 425.376,75.294C421.498,74.489 417.585,73.869 413.648,73.437C411.143,60.283 408.736,47.112 406.427,33.923ZM400,96.632C455.703,96.632 500.928,141.856 500.928,197.559C500.928,253.263 455.703,298.487 400,298.487C344.297,298.487 299.072,253.263 299.072,197.559C299.072,141.856 344.297,96.632 400,96.632Z"/>
            </clipPath>
            <g clip-path="url(#_clip1)">
                <g transform="matrix(1.32527,0.219278,-0.219278,1.32527,-434.848,-301.763)">
                    <path d="M694.388,193.6L724.114,154.216C740.809,158.673 754.077,167.542 763,182L735,224C723.898,211.017 709.588,201.677 694.388,193.6Z" style="fill:white;fill-opacity:0.22;"/>
                </g>
                <g transform="matrix(1.32527,0.219278,-0.219278,1.32527,-434.848,-301.763)">
                    <path d="M617,371L627.272,340.412C631.172,343.36 633.289,347.107 644,347L623,374L617,371Z" style="fill:white;fill-opacity:0.05;"/>
                </g>
            </g>
            <path d="M406.427,33.923C402.144,33.755 397.856,33.755 393.573,33.923C391.264,47.112 388.857,60.283 386.352,73.437C382.415,73.869 378.502,74.489 374.624,75.294C368.177,63.559 361.818,51.776 355.546,39.946C351.421,41.11 347.343,42.435 343.321,43.918C345.201,57.175 346.982,70.446 348.664,83.729C345.054,85.357 341.523,87.156 338.084,89.12C328.326,79.951 318.637,70.71 309.017,61.397C305.453,63.779 301.984,66.299 298.618,68.953C304.502,80.98 310.296,93.051 316.001,105.164C313.071,107.828 310.269,110.63 307.605,113.56C295.491,107.856 283.421,102.061 271.393,96.177C268.74,99.543 266.219,103.012 263.838,106.576C273.151,116.196 282.392,125.886 291.56,135.643C289.597,139.083 287.798,142.613 286.17,146.223C272.886,144.541 259.616,142.76 246.359,140.881C244.875,144.902 243.55,148.98 242.387,153.106C254.217,159.377 265.999,165.737 277.735,172.184C276.93,176.061 276.31,179.975 275.877,183.911C262.724,186.416 249.553,188.823 236.364,191.132C236.196,195.415 236.196,199.703 236.364,203.987C249.553,206.295 262.724,208.702 275.877,211.208C276.31,215.144 276.93,219.058 277.735,222.935C265.999,229.382 254.217,235.742 242.387,242.013C243.55,246.139 244.875,250.217 246.359,254.238C259.616,252.359 272.886,250.578 286.17,248.896C287.798,252.506 289.597,256.036 291.56,259.475C282.392,269.233 273.151,278.922 263.838,288.543C266.219,292.107 268.74,295.576 271.393,298.942C283.421,293.058 295.491,287.263 307.605,281.559C310.269,284.489 313.071,287.291 316.001,289.955C310.296,302.068 304.502,314.139 298.618,326.166C301.984,328.82 305.453,331.34 309.017,333.722C318.637,324.409 328.326,315.168 338.084,305.999C341.523,307.963 345.054,309.762 348.664,311.39C346.982,324.673 345.201,337.944 343.321,351.201C347.343,352.684 351.421,354.009 355.546,355.173C361.818,343.343 368.177,331.56 374.624,319.825C378.502,320.63 382.415,321.249 386.352,321.682C388.857,334.835 391.264,348.007 393.573,361.196C397.856,361.364 402.144,361.364 406.427,361.196C408.736,348.007 411.143,334.835 413.648,321.682C417.585,321.249 421.498,320.63 425.376,319.825C431.823,331.56 438.182,343.343 444.454,355.173C448.579,354.009 452.657,352.684 456.679,351.201C454.799,337.944 453.018,324.673 451.336,311.39C454.946,309.762 458.477,307.963 461.916,305.999C471.674,315.168 481.363,324.409 490.983,333.722C494.547,331.34 498.016,328.82 501.382,326.166C495.498,314.139 489.704,302.068 483.999,289.955C486.929,287.291 489.731,284.489 492.395,281.559C504.509,287.263 516.579,293.058 528.607,298.942C531.26,295.576 533.781,292.107 536.162,288.543C526.849,278.922 517.608,269.233 508.44,259.475C510.403,256.036 512.202,252.506 513.83,248.896C527.114,250.578 540.384,252.359 553.641,254.238C555.125,250.217 556.45,246.139 557.613,242.013C545.783,235.742 534.001,229.382 522.265,222.935C523.07,219.058 523.69,215.144 524.123,211.208C537.276,208.702 550.447,206.295 563.636,203.987C563.804,199.703 563.804,195.415 563.636,191.132C550.447,188.823 537.276,186.416 524.123,183.911C523.69,179.975 523.07,176.061 522.265,172.184C534.001,165.737 545.783,159.377 557.613,153.106C556.45,148.98 555.125,144.902 553.641,140.881C540.384,142.76 527.114,144.541 513.83,146.223C512.202,142.613 510.403,139.083 508.44,135.643C517.608,125.886 526.849,116.196 536.162,106.576C533.781,103.012 531.26,99.543 528.607,96.177C516.579,102.061 504.509,107.856 492.395,113.56C489.731,110.63 486.929,107.828 483.999,105.164C489.704,93.051 495.498,80.98 501.382,68.953C498.016,66.299 494.547,63.779 490.983,61.397C481.363,70.71 471.674,79.951 461.916,89.12C458.477,87.156 454.946,85.357 451.336,83.729C453.018,70.446 454.799,57.175 456.679,43.918C452.657,42.435 448.579,41.11 444.454,39.946C438.182,51.776 431.823,63.559 425.376,75.294C421.498,74.489 417.585,73.869 413.648,73.437C411.143,60.283 408.736,47.112 406.427,33.923ZM400,96.632C455.703,96.632 500.928,141.856 500.928,197.559C500.928,253.263 455.703,298.487 400,298.487C344.297,298.487 299.072,253.263 299.072,197.559C299.072,141.856 344.297,96.632 400,96.632Z" style="fill:none;stroke:black;stroke-width:0.07px;"/>
        </g>
    </g>
</svg>
