<?xml version="1.0" encoding="UTF-8" standalone="no"?>
<!DOCTYPE svg PUBLIC "-//W3C//DTD SVG 1.1//EN" "http://www.w3.org/Graphics/SVG/1.1/DTD/svg11.dtd">
<svg width="100%" height="100%" viewBox="0 0 319 319" version="1.1" xmlns="http://www.w3.org/2000/svg" xmlns:xlink="http://www.w3.org/1999/xlink" xml:space="preserve" xmlns:serif="http://www.serif.com/" style="fill-rule:evenodd;clip-rule:evenodd;stroke-linejoin:round;stroke-miterlimit:2;">
    <g transform="matrix(1,0,0,1,-251.533,-106.937)">
        <g transform="matrix(0.971011,0,0,0.971011,22.1434,74.1192)">
            <path d="M405.303,33.883C401.769,33.769 398.231,33.769 394.697,33.883L387.247,59.447C383.672,59.777 380.111,60.246 376.572,60.852L362.76,38.088C359.316,38.892 355.899,39.807 352.515,40.833L351.936,67.454C348.568,68.698 345.249,70.072 341.988,71.574L322.754,53.16C319.636,54.828 316.573,56.597 313.569,58.463L319.9,84.327C316.968,86.4 314.119,88.587 311.357,90.882L288.013,78.073C285.433,80.491 282.932,82.992 280.513,85.573L293.322,108.917C291.027,111.678 288.841,114.528 286.767,117.459L260.904,111.129C259.037,114.132 257.269,117.196 255.601,120.314L274.015,139.547C272.513,142.809 271.138,146.127 269.894,149.495L243.273,150.075C242.248,153.459 241.332,156.876 240.528,160.319L263.293,174.131C262.686,177.67 262.217,181.231 261.887,184.807L236.324,192.256C236.209,195.791 236.209,199.328 236.324,202.863L261.887,210.312C262.217,213.887 262.686,217.449 263.293,220.988L240.528,234.8C241.332,238.243 242.248,241.66 243.273,245.044L269.894,245.624C271.138,248.992 272.513,252.31 274.015,255.572L255.601,274.805C257.269,277.923 259.037,280.987 260.904,283.99L286.767,277.66C288.841,280.591 291.027,283.441 293.322,286.202L280.513,309.546C282.932,312.126 285.433,314.628 288.013,317.046L311.357,304.237C314.119,306.532 316.968,308.719 319.9,310.792L313.569,336.656C316.573,338.522 319.636,340.291 322.754,341.959L341.988,323.545C345.249,325.047 348.568,326.421 351.936,327.665L352.515,354.286C355.899,355.312 359.316,356.227 362.76,357.031L376.572,334.267C380.111,334.873 383.672,335.342 387.247,335.672L394.697,361.236C398.231,361.35 401.769,361.35 405.303,361.236L412.753,335.672C416.328,335.342 419.889,334.873 423.428,334.267L437.24,357.031C440.684,356.227 444.101,355.312 447.485,354.286L448.064,327.665C451.432,326.421 454.751,325.047 458.012,323.545L477.246,341.959C480.364,340.291 483.427,338.522 486.431,336.656L480.1,310.792C483.032,308.719 485.881,306.532 488.643,304.237L511.987,317.046C514.567,314.628 517.068,312.126 519.487,309.546L506.678,286.202C508.973,283.441 511.159,280.591 513.233,277.66L539.096,283.99C540.963,280.987 542.731,277.923 544.399,274.805L525.985,255.572C527.487,252.31 528.862,248.992 530.106,245.624L556.727,245.044C557.752,241.66 558.668,238.243 559.472,234.8L536.707,220.988C537.314,217.449 537.783,213.887 538.113,210.312L563.676,202.863C563.791,199.328 563.791,195.791 563.676,192.256L538.113,184.807C537.783,181.231 537.314,177.67 536.707,174.131L559.472,160.319C558.668,156.876 557.752,153.459 556.727,150.075L530.106,149.495C528.862,146.127 527.487,142.809 525.985,139.547L544.399,120.314C542.731,117.196 540.963,114.132 539.096,111.129L513.233,117.459C511.159,114.528 508.973,111.678 506.678,108.917L519.487,85.573C517.068,82.992 514.567,80.491 511.987,78.073L488.643,90.882C485.881,88.587 483.032,86.4 480.1,84.327L486.431,58.463C483.427,56.597 480.364,54.828 477.246,53.16L458.012,71.574C454.751,70.072 451.432,68.698 448.064,67.454L447.485,40.833C444.101,39.807 440.684,38.892 437.24,38.088L423.428,60.852C419.889,60.246 416.328,59.777 412.753,59.447L405.303,33.883ZM400,86.547C461.269,86.547 511.012,136.29 511.012,197.559C511.012,258.829 461.269,308.572 400,308.572C338.731,308.572 288.988,258.829 288.988,197.559C288.988,136.29 338.731,86.547 400,86.547Z" style="fill:rgb(170,169,173);"/>
            <clipPath id="_clip1">
                <path d="M405.303,33.883C401.769,33.769 398.231,33.769 394.697,33.883L387.247,59.447C383.672,59.777 380.111,60.246 376.572,60.852L362.76,38.088C359.316,38.892 355.899,39.807 352.515,40.833L351.936,67.454C348.568,68.698 345.249,70.072 341.988,71.574L322.754,53.16C319.636,54.828 316.573,56.597 313.569,58.463L319.9,84.327C316.968,86.4 314.119,88.587 311.357,90.882L288.013,78.073C285.433,80.491 282.932,82.992 280.513,85.573L293.322,108.917C291.027,111.678 288.841,114.528 286.767,117.459L260.904,111.129C259.037,114.132 257.269,117.196 255.601,120.314L274.015,139.547C272.513,142.809 271.138,146.127 269.894,149.495L243.273,150.075C242.248,153.459 241.332,156.876 240.528,160.319L263.293,174.131C262.686,177.67 262.217,181.231 261.887,184.807L236.324,192.256C236.209,195.791 236.209,199.328 236.324,202.863L261.887,210.312C262.217,213.887 262.686,217.449 263.293,220.988L240.528,234.8C241.332,238.243 242.248,241.66 243.273,245.044L269.894,245.624C271.138,248.992 272.513,252.31 274.015,255.572L255.601,274.805C257.269,277.923 259.037,280.987 260.904,283.99L286.767,277.66C288.841,280.591 291.027,283.441 293.322,286.202L280.513,309.546C282.932,312.126 285.433,314.628 288.013,317.046L311.357,304.237C314.119,306.532 316.968,308.719 319.9,310.792L313.569,336.656C316.573,338.522 319.636,340.291 322.754,341.959L341.988,323.545C345.249,325.047 348.568,326.421 351.936,327.665L352.515,354.286C355.899,355.312 359.316,356.227 362.76,357.031L376.572,334.267C380.111,334.873 383.672,335.342 387.247,335.672L394.697,361.236C398.231,361.35 401.769,361.35 405.303,361.236L412.753,335.672C416.328,335.342 419.889,334.873 423.428,334.267L437.24,357.031C440.684,356.227 444.101,355.312 447.485,354.286L448.064,327.665C451.432,326.421 454.751,325.047 458.012,323.545L477.246,341.959C480.364,340.291 483.427,338.522 486.431,336.656L480.1,310.792C483.032,308.719 485.881,306.532 488.643,304.237L511.987,317.046C514.567,314.628 517.068,312.126 519.487,309.546L506.678,286.202C508.973,283.441 511.159,280.591 513.233,277.66L539.096,283.99C540.963,280.987 542.731,277.923 544.399,274.805L525.985,255.572C527.487,252.31 528.862,248.992 530.106,245.624L556.727,245.044C557.752,241.66 558.668,238.243 559.472,234.8L536.707,220.988C537.314,217.449 537.783,213.887 538.113,210.312L563.676,202.863C563.791,199.328 563.791,195.791 563.676,192.256L538.113,184.807C537.783,181.231 537.314,177.67 536.707,174.131L559.472,160.319C558.668,156.876 557.752,153.459 556.727,150.075L530.106,149.495C528.862,146.127 527.487,142.809 525.985,139.547L544.399,120.314C542.731,117.196 540.963,114.132 539.096,111.129L513.233,117.459C511.159,114.528 508.973,111.678 506.678,108.917L519.487,85.573C517.068,82.992 514.567,80.491 511.987,78.073L488.643,90.882C485.881,88.587 483.032,86.4 480.1,84.327L486.431,58.463C483.427,56.597 480.364,54.828 477.246,53.16L458.012,71.574C454.751,70.072 451.432,68.698 448.064,67.454L447.485,40.833C444.101,39.807 440.684,38.892 437.24,38.088L423.428,60.852C419.889,60.246 416.328,59.777 412.753,59.447L405.303,33.883ZM400,86.547C461.269,86.547 511.012,136.29 511.012,197.559C511.012,258.829 461.269,308.572 400,308.572C338.731,308.572 288.988,258.829 288.988,197.559C288.988,136.29 338.731,86.547 400,86.547Z"/>
            </clipPath>
            <g clip-path="url(#_clip1)">
                <g opacity="0.08">
                    <g transform="matrix(1.02985,0,0,1.02985,-22.8045,-76.332)">
                        <path d="M360,113L377.196,106.937L403,162.158L366,172L360,113Z" style="fill:white;"/>
                    </g>
                    <g transform="matrix(1.41953,0,0,1.33046,-210.405,-120.7)">
                        <path d="M455.725,160.548L485,129L492,133L480.725,177.322L455.725,160.548Z" style="fill:white;"/>
                    </g>
                </g>
                <g transform="matrix(1.02985,0,0,1.02985,-22.8045,-76.332)">
                    <path d="M342,347L324.622,400.016L336,407L374,366L342,347Z" style="fill:white;fill-opacity:0.11;"/>
                </g>
            </g>
        </g>
    </g>
</svg>
