<?xml version="1.0" encoding="UTF-8" standalone="no"?>
<!DOCTYPE svg PUBLIC "-//W3C//DTD SVG 1.1//EN" "http://www.w3.org/Graphics/SVG/1.1/DTD/svg11.dtd">
<svg width="100%" height="100%" viewBox="0 0 100 100" version="1.1" xmlns="http://www.w3.org/2000/svg" xmlns:xlink="http://www.w3.org/1999/xlink" xml:space="preserve" xmlns:serif="http://www.serif.com/" style="fill-rule:evenodd;clip-rule:evenodd;stroke-linecap:round;stroke-linejoin:round;stroke-miterlimit:1.5;">
    <g transform="matrix(5.17927,0,0,5.17927,-90.939,-76.0141)">
        <path d="M31,19.25C31,17.456 29.544,16 27.75,16L21.25,16C19.456,16 18,17.456 18,19.25L18,25.75C18,27.544 19.456,29 21.25,29L27.75,29C29.544,29 31,27.544 31,25.75L31,19.25Z" style="fill:white;stroke:black;stroke-width:0.58px;"/>
    </g>
    <g transform="matrix(5.17927,0,0,5.17927,-62.8452,-57.053)">
        <path d="M31,19.25C31,17.456 29.544,16 27.75,16L21.25,16C19.456,16 18,17.456 18,19.25L18,25.75C18,27.544 19.456,29 21.25,29L27.75,29C29.544,29 31,27.544 31,25.75L31,19.25Z" style="fill:white;stroke:black;stroke-width:0.58px;"/>
    </g>
</svg>
