<?xml version="1.0" encoding="UTF-8" standalone="no"?>
<!DOCTYPE svg PUBLIC "-//W3C//DTD SVG 1.1//EN" "http://www.w3.org/Graphics/SVG/1.1/DTD/svg11.dtd">
<svg width="100%" height="100%" viewBox="0 0 834 834" version="1.1" xmlns="http://www.w3.org/2000/svg" xmlns:xlink="http://www.w3.org/1999/xlink" xml:space="preserve" xmlns:serif="http://www.serif.com/" style="fill-rule:evenodd;clip-rule:evenodd;stroke-linecap:round;stroke-linejoin:round;stroke-miterlimit:1.5;">
    <g transform="matrix(1.00131,0,0,0.998737,-0.227333,-3.19225)">
        <path d="M829.678,175.905L829.678,665.877C829.678,757.286 755.656,831.499 664.481,831.499L168.301,831.499C77.127,831.499 3.105,757.286 3.105,665.877L3.105,175.905C3.105,84.496 77.127,10.283 168.301,10.283L664.481,10.283C755.656,10.283 829.678,84.496 829.678,175.905Z" style="fill:white;stroke:white;stroke-width:10.42px;"/>
    </g>
    <g id="coding-smell">
        <g transform="matrix(1,0,0,1,-29,-24)">
            <path d="M702.919,259.63L660.432,254.217L545.679,456.779L344.406,448.158L333.064,493.738L572.457,494.762L702.919,259.63Z" style="fill:rgb(21,12,102);stroke:rgb(21,12,102);stroke-width:8.33px;"/>
        </g>
        <g transform="matrix(1,0,0,1,-19.7767,-45.6452)">
            <path d="M800.537,494.762L258.402,494.762L141.269,612.694L778.878,617.117L800.537,494.762Z" style="fill:none;stroke:rgb(21,12,102);stroke-width:8.33px;"/>
        </g>
        <g transform="matrix(1,0,0,1,-29,-24)">
            <path d="M407.988,433.061C416.132,430.582 421.149,422.53 422.954,412.506C425.428,398.768 421.876,381.64 415.147,373.95C404.146,361.378 387.453,355.827 371.968,349.281C358.176,343.45 345.332,336.822 340.204,321.438C338.936,317.635 339.782,313.819 340.782,310.001C342.078,305.046 343.712,300.081 343.712,295.169C343.712,292.869 341.845,291.002 339.545,291.002C337.245,291.002 335.378,292.869 335.378,295.169C335.378,299.392 333.835,303.631 332.72,307.891C331.307,313.288 330.506,318.697 332.298,324.073C338.256,341.946 352.7,350.183 368.723,356.956C383.052,363.014 398.696,367.803 408.876,379.437C414.372,385.719 416.773,399.807 414.752,411.029C413.56,417.651 410.942,423.451 405.561,425.089C403.361,425.758 402.119,428.088 402.788,430.288C403.458,432.488 405.788,433.73 407.988,433.061Z" style="fill:rgb(21,12,102);"/>
        </g>
        <g transform="matrix(1,0,0,1,-29,-24)">
            <path d="M450.855,260.179C451.001,261.247 451.489,264.856 451.489,265.524C451.489,270.853 451.277,275.991 450.321,281.248C449.118,287.868 445.133,293.735 442.079,299.854C438.392,307.239 435.904,314.905 438.474,323.9C441.13,333.196 447.204,339.123 454.445,343.899C460.816,348.1 468.128,351.352 474.204,355.771C486.823,364.948 489.62,380.151 488.155,394.807C487.772,398.638 486.967,402.684 485.539,406.201C484.324,409.194 482.7,411.82 480.312,413.29C478.354,414.495 477.742,417.064 478.948,419.022C480.153,420.981 482.721,421.592 484.68,420.387C491.816,415.995 495.472,405.38 496.447,395.637C498.205,378.055 494.243,360.04 479.105,349.031C472.929,344.539 465.509,341.213 459.033,336.942C453.428,333.246 448.542,328.806 446.486,321.611C444.553,314.844 446.762,309.131 449.535,303.575C452.941,296.753 457.178,290.12 458.52,282.739C459.567,276.983 459.822,271.359 459.822,265.524C459.822,264.319 458.944,257.93 458.783,257.474C457.953,255.135 456.106,254.831 455.522,254.735C454.295,254.532 453.084,254.783 451.992,255.805C451.781,256.003 450.666,256.843 450.666,258.936C450.666,259.369 450.732,259.786 450.855,260.179ZM458.217,261.363C458.585,260.912 458.999,260.15 458.999,258.936C458.999,259.842 458.709,260.68 458.217,261.363Z" style="fill:rgb(21,12,102);"/>
        </g>
        <g transform="matrix(1,0,0,1,-29,-24)">
            <path d="M556.909,251.609C554.85,251.04 552.804,252.729 552.779,258.423L552.777,258.524L552.778,258.556L552.778,258.6C552.78,259.37 552.801,265.039 552.788,265.227C552.495,269.327 552.169,274.245 550.908,278.28C549.162,283.869 544.495,288.696 539.961,293.297C534.516,298.824 529.211,304.079 527.136,309.268C526.713,310.325 526.49,311.722 526.504,313.268C526.526,315.605 527.088,318.43 527.282,319.978C528.482,329.583 532.109,334.769 536.706,340.011C539.342,343.017 542.344,346.044 545.296,350.261C553.088,361.392 553.32,374.061 549.65,386.644C548.809,389.528 546.438,397.523 543.047,403.257C542.108,404.845 541.112,406.252 540.007,407.199C539.579,407.565 539.209,407.953 538.73,407.895C536.447,407.622 534.371,409.255 534.098,411.538C533.825,413.821 535.458,415.897 537.741,416.17C541.373,416.604 545.031,414.621 548.047,410.73C552.942,404.417 556.539,392.787 557.65,388.977C562.041,373.922 561.446,358.801 552.123,345.482C548.97,340.979 545.787,337.727 542.971,334.516C539.389,330.432 536.486,326.428 535.551,318.945C535.424,317.934 535.112,316.329 534.938,314.716C534.843,313.829 534.644,312.936 534.873,312.363C536.617,308.003 541.322,303.79 545.897,299.146C551.385,293.576 556.748,287.531 558.862,280.766C560.307,276.142 560.765,270.518 561.1,265.82C561.115,265.616 561.114,259.417 561.111,258.575L561.111,258.532L561.111,258.524L561.109,258.458C561.066,252.673 558.981,250.994 556.909,251.609Z" style="fill:rgb(21,12,102);"/>
        </g>
        <g transform="matrix(1,0,0,1,-29,-24)">
            <path d="M292,297C296.158,292.87 297.401,288.552 295,284" style="fill:none;stroke:rgb(21,12,102);stroke-width:8.33px;"/>
        </g>
        <g transform="matrix(0.558419,-0.829559,0.829559,0.558419,-124.366,341.255)">
            <path d="M292,297C297.019,292.25 297.816,287.938 295,284" style="fill:none;stroke:rgb(21,12,102);stroke-width:8.33px;"/>
        </g>
        <g transform="matrix(1,0,0,1,-29,-24)">
            <circle cx="191.547" cy="262.327" r="91.81" style="fill:rgb(21,12,102);stroke:rgb(21,12,102);stroke-width:8.33px;"/>
        </g>
        <g transform="matrix(1,0,0,1,-29,-24)">
            <path d="M338.293,545.853L303.586,478.465" style="fill:none;stroke:rgb(21,12,102);stroke-width:8.33px;"/>
        </g>
        <g transform="matrix(0.487644,-0.377494,0.523002,0.675611,-185.236,201.44)">
            <path d="M223.461,375.337L107.399,505.271L321.134,622.158L170.141,506.622L281.227,401.693L223.461,375.337Z" style="fill:rgb(21,12,102);stroke:rgb(21,12,102);stroke-width:11.18px;"/>
        </g>
        <g transform="matrix(0.501111,0,0,1,107.246,-24)">
            <path d="M283.357,274.123C283.357,274.123 317.038,279.269 320.973,265.881C324.908,252.492 277.925,216.137 273.1,220.817" style="fill:rgb(21,12,102);stroke:rgb(21,12,102);stroke-width:10.54px;"/>
        </g>
        <g transform="matrix(1,0,0,1,-29,-24)">
            <path d="M492.671,581.639L515.615,507.371L309.994,508.405L292.859,577.306L492.671,581.639Z" style="fill:none;stroke:rgb(21,12,102);stroke-width:8.33px;"/>
        </g>
        <g transform="matrix(1,0,0,1,-29,-24)">
            <path d="M473.949,528.214C472.509,529.072 470.587,528.98 468.637,528.935C466.051,528.876 463.415,528.842 461.382,530.061C460.915,530.342 460.769,530.719 460.755,531.083C460.747,531.312 460.8,531.569 460.972,531.832C461.103,532.032 461.363,532.289 461.765,532.543C463.112,533.393 466.717,534.702 468.76,535.894C468.943,536.001 469.141,536.142 469.31,536.271C469.146,536.362 468.964,536.457 468.791,536.536C466.614,537.532 462.671,538.847 460.54,540.165C459.863,540.584 459.348,541.019 459.043,541.433C458.714,541.881 458.583,542.337 458.612,542.774C458.643,543.241 458.852,543.729 459.379,544.177C460.178,544.856 461.093,545.262 462.064,545.506C459.198,546.148 456.397,547.024 453.688,548.379C453.343,548.551 450.697,550.447 449.569,551.935C449.159,552.477 448.936,553.002 448.901,553.414C448.855,553.947 449.027,554.394 449.436,554.741C449.946,555.176 450.891,555.606 452.027,555.966C451.356,556.08 450.718,556.23 450.304,556.416C449.277,556.879 448.849,557.492 448.718,558.054C448.575,558.665 448.753,559.348 449.301,560.014C449.996,560.858 451.405,561.765 452.774,562.545C453.215,562.796 453.708,563.084 454.151,563.345L454.022,563.375C451.929,563.834 448.936,564.253 448.271,564.443C447.718,564.601 447.397,565.178 447.555,565.731C447.713,566.284 448.29,566.604 448.843,566.446C449.685,566.206 454.267,565.599 456.003,565.003C456.529,564.822 456.877,564.592 457.04,564.416C457.347,564.084 457.408,563.728 457.351,563.403C457.308,563.154 457.08,562.706 456.502,562.301C455.516,561.611 453.02,560.452 451.534,559.276C451.286,559.079 451.07,558.885 450.91,558.69C450.873,558.645 450.833,558.583 450.802,558.531C450.887,558.47 451.029,558.375 451.16,558.316C451.926,557.97 453.65,557.825 454.467,557.787C454.485,557.786 457.879,557.786 457.879,557.786C459.746,557.786 461.605,558.097 463.472,558.097C464.523,558.097 464.634,557.201 464.639,557.107C464.651,556.92 464.649,556.298 463.92,556.046C463.726,555.979 462.297,555.786 461.745,555.712C460.84,555.591 459.917,555.6 459.023,555.414C458.135,555.229 455.011,554.718 452.714,553.999C452.088,553.802 451.526,553.604 451.127,553.384C451.265,553.181 451.475,552.888 451.671,552.681C452.731,551.563 454.373,550.365 454.62,550.242C459.442,547.831 464.578,547.03 469.834,546.279C470.892,546.128 470.939,545.283 470.934,545.151C470.925,544.921 470.848,544.394 470.181,544.177C469.86,544.072 467.557,543.975 466.667,543.899C465.596,543.808 464.441,543.807 463.332,543.637C462.409,543.496 461.515,543.239 460.772,542.626C460.847,542.539 460.958,542.419 461.057,542.339C461.532,541.956 462.225,541.578 463.016,541.2C465.681,539.927 469.381,538.714 470.756,537.861C471.533,537.38 471.784,536.787 471.784,536.414C471.784,536.065 471.66,535.678 471.351,535.295C471.1,534.983 470.69,534.642 470.155,534.304C468.543,533.285 465.627,532.153 463.817,531.28C465.275,530.887 466.949,530.98 468.589,531.018C471.225,531.078 473.781,531.01 475.605,529.604C476.238,529.116 476.39,528.577 476.345,528.093C476.307,527.679 476.082,527.226 475.608,526.817C475.132,526.406 474.323,525.985 473.42,525.59C472.279,525.09 470.972,524.616 470.229,524.162C467.765,522.656 464.899,520.638 461.827,520.936C461.255,520.991 460.836,521.501 460.891,522.073C460.946,522.645 461.456,523.065 462.028,523.009C463.261,522.89 464.44,523.277 465.564,523.822C466.831,524.436 468.027,525.258 469.143,525.939C470.085,526.515 471.87,527.14 473.206,527.782C473.451,527.9 473.731,528.072 473.949,528.214Z" style="fill:rgb(21,12,102);fill-opacity:0.5;"/>
        </g>
        <g transform="matrix(1,0,0,1,-29,-24)">
            <path d="M438.279,525.647C438.326,525.636 438.502,525.597 438.624,525.594C438.885,525.586 439.184,525.618 439.507,525.674C441.744,526.062 444.921,527.549 445.654,527.869C445.833,527.948 446.117,528.088 446.422,528.244C444.737,528.426 442.703,528.162 440.696,528.038C437.45,527.837 434.288,527.991 432.301,529.891C431.799,530.37 431.602,530.864 431.573,531.327C431.544,531.805 431.696,532.287 432.052,532.749C432.668,533.55 434.122,534.358 435.671,535.085C436.737,535.586 437.84,536.066 438.623,536.535C438.77,536.622 438.903,536.709 439.019,536.795C438.958,536.829 438.891,536.863 438.821,536.898C438.465,537.078 438.028,537.241 437.548,537.4C435.904,537.946 433.817,538.436 432.434,539.109C430.943,539.836 430.213,540.87 430.446,542.034C430.495,542.283 430.614,542.546 430.822,542.802C431.088,543.129 431.552,543.483 432.14,543.811C432.717,544.133 433.503,544.491 434.244,544.807C433.885,544.938 433.521,545.076 433.181,545.212C431.941,545.71 430.77,546.303 430.228,546.82C429.77,547.256 429.615,547.727 429.637,548.12C429.656,548.477 429.799,548.839 430.179,549.156C430.596,549.503 431.146,549.75 431.78,549.919C432.521,550.118 433.395,550.215 434.232,550.354C434.796,550.447 435.342,550.555 435.784,550.77C435.92,550.836 436.044,550.912 436.147,551.01C435.945,551.126 435.667,551.276 435.421,551.376C433.739,552.06 431.081,552.706 429.417,553.364C428.439,553.751 427.758,554.215 427.493,554.613C427.214,555.032 427.16,555.421 427.215,555.768C427.302,556.314 427.8,556.907 428.742,557.297C429.731,557.707 431.346,558.026 432.478,558.591C432.695,558.699 432.891,558.815 433.044,558.952C433.135,559.034 433.222,559.114 433.222,559.232C433.223,559.86 432.857,560.332 432.356,560.755C431.664,561.338 430.721,561.81 429.74,562.273C428.409,562.9 427.009,563.501 425.927,564.222C425.065,564.797 424.393,565.457 424.01,566.222C423.583,567.077 423.9,567.591 424.14,567.835C424.358,568.058 424.709,568.241 425.206,568.187C425.579,568.147 426.217,567.881 426.775,567.559C427.331,567.238 427.801,566.869 427.909,566.743C428.232,566.366 428.237,565.822 427.95,565.441C429.194,564.768 430.668,564.187 431.923,563.512C433.899,562.45 435.309,561.099 435.305,559.229C435.304,558.4 434.89,557.715 434.157,557.176C433.198,556.472 431.558,556.039 430.267,555.629C430.099,555.576 429.937,555.523 429.788,555.468C430.107,555.323 430.489,555.18 430.908,555.036C432.563,554.467 434.747,553.899 436.207,553.305C437.183,552.908 437.873,552.433 438.154,552.011C438.44,551.582 438.494,551.14 438.346,550.697C437.929,549.444 436.824,548.793 435.425,548.465C434.647,548.282 433.776,548.192 432.98,548.05C432.749,548.009 432.525,547.968 432.316,547.915C432.483,547.814 432.663,547.714 432.832,547.633C434.71,546.739 437.455,545.911 437.577,545.841C437.923,545.643 438.057,545.365 438.106,545.102C438.152,544.852 438.16,544.36 437.612,543.975C437.218,543.697 435.309,543.04 433.785,542.314C433.298,542.082 432.702,541.673 432.504,541.533C432.542,541.47 432.631,541.427 432.708,541.365C433.091,541.061 433.663,540.818 434.308,540.585C435.94,539.997 437.997,539.534 439.344,538.952C440.127,538.613 440.705,538.204 441.013,537.778C441.244,537.457 441.333,537.129 441.326,536.804C441.319,536.412 441.161,535.994 440.797,535.595C440.111,534.845 438.304,534.02 436.557,533.2C435.902,532.892 435.26,532.579 434.717,532.256C434.488,532.121 434.278,531.984 434.096,531.845C433.943,531.728 433.774,531.54 433.694,531.448C433.709,531.43 433.726,531.411 433.741,531.397C434.486,530.684 435.467,530.344 436.556,530.178C437.799,529.989 439.177,530.031 440.567,530.117C443.679,530.31 446.844,530.66 448.972,529.735C449.439,529.532 449.642,529.227 449.739,528.96C449.835,528.693 449.842,528.407 449.732,528.106C449.627,527.824 449.318,527.436 448.805,527.104C448.139,526.672 447.057,526.209 446.489,525.961C445.7,525.616 442.271,524.039 439.862,523.622C439.113,523.492 438.445,523.474 437.934,523.582C437.403,523.693 436.998,523.934 436.719,524.267C436.349,524.707 436.406,525.365 436.847,525.734C437.273,526.092 437.903,526.05 438.279,525.647Z" style="fill:rgb(21,12,102);fill-opacity:0.5;"/>
        </g>
        <g transform="matrix(1,0,0,1,-29,-24)">
            <path d="M404.69,523.608C403.18,523.923 401.659,524.35 400.911,524.916C400.458,525.261 400.199,525.667 400.106,526.082C400.003,526.542 400.072,527.06 400.484,527.608C400.888,528.148 401.772,528.753 402.885,529.297C405.095,530.375 408.243,531.344 409.066,531.628C410.049,531.967 411.712,531.922 413.051,532.008C413.267,532.022 413.529,532.065 413.745,532.106C413.581,532.189 413.386,532.246 413.17,532.293C411.995,532.548 410.318,532.464 408.63,532.489C407.044,532.512 405.45,532.624 404.162,533.067C402.624,533.596 401.483,534.566 401.062,536.248C400.848,537.104 401.173,539.904 401.761,541.706C402.091,542.715 402.579,543.423 402.966,543.655C403.164,543.774 403.415,543.879 403.699,543.969C402.261,544.122 400.707,544.3 399.607,544.635C397.829,545.175 397.091,546.241 397.555,547.478C397.891,548.372 398.572,549.006 399.503,549.434C400.589,549.932 402.061,550.136 403.54,550.284C403.928,550.322 404.316,550.358 404.695,550.397C404.544,550.402 404.404,550.413 404.28,550.432C402.081,550.762 398.422,551.224 396.292,552.044C395.872,552.205 395.623,552.463 395.473,552.75C395.238,553.2 395.251,553.897 395.723,554.672C396.193,555.443 397.164,556.45 397.872,557.306C398.002,557.463 398.142,557.662 398.25,557.822C397.995,558.006 397.602,558.279 397.266,558.467C396.173,559.08 394.903,559.672 394.534,559.917C394.056,560.236 393.927,560.883 394.246,561.362C394.564,561.84 395.212,561.97 395.69,561.651C396.235,561.287 398.756,560.162 399.745,559.328C400.301,558.859 400.504,558.342 400.504,557.987C400.504,557.674 400.379,557.252 400.085,556.791C399.694,556.177 398.949,555.376 398.295,554.615C398.079,554.364 397.841,554.033 397.663,553.773C399.709,553.136 402.713,552.774 404.589,552.492C405.142,552.409 406.034,552.522 406.839,552.575C407.541,552.621 408.192,552.624 408.627,552.53C409.157,552.416 409.501,552.151 409.691,551.858C409.92,551.504 410.038,551.019 409.716,550.375C409.357,549.657 408.655,549.139 407.682,548.822C406.62,548.476 405.184,548.354 403.747,548.211C402.698,548.106 401.648,547.989 400.792,547.704C400.262,547.528 399.802,547.309 399.575,546.896C399.635,546.858 399.707,546.816 399.768,546.789C400.157,546.617 400.67,546.493 401.242,546.387C402.975,546.068 405.183,545.953 406.54,545.725C407.42,545.577 408.029,545.301 408.278,545.052C408.847,544.483 408.821,543.953 408.673,543.563C408.556,543.254 408.27,542.912 407.734,542.701C407.259,542.514 406.431,542.391 405.598,542.257C405.038,542.167 404.469,542.089 404.113,541.91C404.057,541.801 403.85,541.391 403.742,541.059C403.276,539.633 402.914,537.431 403.083,536.753C403.372,535.598 404.331,535.117 405.478,534.858C406.966,534.522 408.767,534.571 410.392,534.563C411.881,534.555 413.24,534.492 414.186,534.172C415.114,533.859 415.725,533.311 415.987,532.527C416.154,532.025 416.119,531.612 415.989,531.273C415.805,530.796 415.395,530.405 414.738,530.184C414.069,529.959 413.026,529.911 411.969,529.881C411.144,529.858 410.306,529.852 409.745,529.659C408.953,529.386 405.923,528.461 403.799,527.424C403.165,527.115 402.612,526.821 402.295,526.518C402.446,526.426 402.659,526.307 402.845,526.235C404.421,525.626 407.009,525.319 408.256,525.092C408.751,525.001 409.098,524.894 409.244,524.817C409.53,524.667 409.667,524.466 409.74,524.319C409.866,524.066 409.883,523.813 409.814,523.562C409.762,523.369 409.649,523.133 409.362,522.941C408.974,522.683 408.132,522.37 407.028,522.063C404.797,521.442 401.373,520.727 399.072,520.02C398.453,519.83 397.921,519.643 397.534,519.456C397.443,519.413 397.338,519.35 397.273,519.309C397.094,518.921 396.686,518.667 396.236,518.706C395.663,518.756 395.239,519.262 395.288,519.834C395.313,520.116 395.429,520.421 395.704,520.71C395.956,520.974 396.443,521.276 397.125,521.55C398.841,522.238 402.069,522.957 404.69,523.608Z" style="fill:rgb(21,12,102);fill-opacity:0.5;"/>
        </g>
        <g transform="matrix(1,0,0,1,-29,-24)">
            <path d="M371.98,522.688C370.659,522.722 369.733,522.905 369.118,523.17C368.429,523.467 368.032,523.884 367.816,524.338C367.487,525.031 367.571,525.921 368.115,526.904C368.919,528.355 370.814,530.187 372.289,531.859C373.081,532.757 373.776,533.563 373.888,534.233C373.917,534.41 373.794,534.549 373.663,534.701C373.475,534.921 373.225,535.129 372.946,535.336C372.078,535.981 370.957,536.593 370.076,537.257C368.954,538.102 368.229,539.082 368.226,540.142C368.225,540.654 368.376,541.205 368.768,541.789C370.249,543.993 373.067,544.626 375.961,544.987C377.216,545.144 378.476,545.263 379.593,545.519C379.705,545.544 379.816,545.571 379.925,545.599C378.639,545.992 377.164,546.482 376.327,546.913C375.598,547.288 375.238,547.774 375.154,548.078C374.881,549.068 375.284,549.939 376.262,550.665C377.163,551.333 378.667,551.901 380.026,552.535C380.686,552.843 381.308,553.164 381.756,553.551C382.008,553.768 382.217,553.988 382.208,554.287C382.199,554.626 381.977,554.989 381.585,555.441C378.905,558.533 376.489,561.73 375.217,563.672C374.57,564.661 374.212,565.396 374.147,565.71C374.058,566.146 374.189,566.445 374.311,566.625C374.506,566.914 374.795,567.108 375.226,567.108C375.801,567.108 376.268,566.641 376.268,566.066C376.268,566.043 376.267,566.021 376.265,565.998C376.397,565.752 376.667,565.261 376.96,564.813C378.197,562.924 380.552,559.815 383.16,556.805C384.285,555.507 384.447,554.413 384.185,553.525C384.021,552.972 383.674,552.469 383.172,552.022C382.591,551.505 381.782,551.055 380.907,550.647C379.861,550.159 378.716,549.728 377.883,549.239C377.639,549.096 377.426,548.953 377.272,548.793C377.54,548.659 377.963,548.456 378.325,548.321C379.95,547.711 382.193,547.108 382.812,546.924C383.144,546.826 383.314,546.7 383.34,546.679C383.703,546.384 383.73,546.045 383.725,545.841C383.718,545.583 383.629,545.341 383.42,545.133C382.74,544.453 381.84,543.992 380.794,543.68C379.442,543.277 377.827,543.12 376.219,542.92C375.006,542.769 373.797,542.592 372.738,542.215C371.827,541.892 371.031,541.421 370.497,540.627C370.381,540.454 370.309,540.299 370.31,540.147C370.31,539.899 370.481,539.696 370.68,539.485C371.072,539.069 371.628,538.691 372.209,538.315C373.266,537.631 374.394,536.958 375.085,536.234C375.768,535.518 376.083,534.731 375.943,533.89C375.809,533.089 375.201,532.085 374.328,531.035C373.238,529.726 371.742,528.281 370.7,526.985C370.326,526.52 370.013,526.081 369.828,525.678C369.747,525.503 369.651,525.36 369.7,525.227C369.744,525.107 369.907,525.087 370.111,525.02C370.637,524.847 371.398,524.765 372.445,524.765C373.277,524.765 374.129,524.99 374.971,525.108C376.071,525.263 377.152,525.252 378.178,524.739C378.666,524.495 378.792,524.151 378.84,523.941C378.92,523.589 378.858,523.226 378.528,522.905C378.413,522.794 378.192,522.644 377.861,522.549C377.44,522.428 376.582,522.345 376.203,522.207C375.801,522.061 375.017,521.903 374.309,521.664C374.125,521.602 373.892,521.488 373.727,521.401C374.022,520.969 373.952,520.374 373.546,520.025C373.111,519.65 372.452,519.699 372.077,520.135C371.519,520.783 371.439,521.368 371.537,521.844C371.599,522.145 371.747,522.432 371.98,522.688ZM375.284,565.026C375.422,565.034 375.552,565.068 375.671,565.124C375.56,565.068 375.432,565.033 375.284,565.026Z" style="fill:rgb(21,12,102);fill-opacity:0.5;"/>
        </g>
        <g transform="matrix(1,0,0,1,-29,-24)">
            <path d="M339.809,523.311C338.326,523.472 336.333,523.77 334.824,524.401C332.768,525.26 331.561,526.699 332.294,528.81C332.559,529.574 333.363,530.413 334.477,531.176C335.361,531.782 336.604,532.497 337.729,533.114C336.809,533.031 335.83,532.949 334.962,532.938C333.61,532.919 332.48,533.115 331.923,533.502C331.535,533.771 331.306,534.121 331.222,534.533C331.151,534.872 331.178,535.281 331.407,535.756C331.782,536.534 332.538,537.326 333.508,538.092C334.758,539.079 336.375,540.058 337.736,541.03C338.419,541.518 339.034,542 339.477,542.486C339.742,542.777 339.96,543.043 339.998,543.329C339.919,543.404 339.654,543.651 339.444,543.784C338.847,544.165 338.094,544.519 337.482,544.885C336.931,545.215 336.48,545.573 336.216,545.933C335.754,546.563 335.666,547.233 336.12,547.97C336.445,548.496 337.126,549.127 337.967,549.733C339.662,550.955 342.012,552.161 342.417,552.379C343.242,552.824 344.803,553.157 346.056,553.514C345.734,553.563 345.386,553.594 345.031,553.614C343.283,553.714 341.361,553.539 341.086,553.529C339.827,553.48 338.578,553.217 337.318,553.217C336.883,553.217 336.07,553.281 335.535,553.43C335.061,553.561 334.734,553.801 334.578,554.006C334.41,554.226 334.334,554.467 334.332,554.716C334.329,554.982 334.402,555.303 334.717,555.617C334.794,555.694 335.17,555.942 335.714,556.24L336.136,556.469C334.078,556.165 331.594,555.756 329.999,555.841C328.822,555.904 328.02,556.31 327.684,556.827C327.381,557.291 327.267,557.926 327.686,558.764C327.943,559.278 328.569,559.487 329.083,559.23C329.547,558.998 329.762,558.466 329.611,557.987C329.708,557.965 329.817,557.944 329.911,557.936C330.327,557.897 330.827,557.908 331.374,557.946C333.836,558.118 337.153,558.824 338.698,558.848C339.421,558.859 339.913,558.675 340.144,558.489C340.627,558.102 340.908,557.296 340.026,556.472C339.691,556.159 339.051,555.75 338.376,555.354C339.253,555.433 340.127,555.577 341.006,555.61C341.347,555.623 344.063,555.862 346.09,555.612C347.194,555.476 348.114,555.153 348.59,554.713C349.178,554.168 349.236,553.628 349.127,553.187C349.036,552.82 348.763,552.425 348.238,552.121C347.671,551.792 346.657,551.51 345.619,551.243C344.779,551.027 343.92,550.822 343.404,550.545C343.074,550.367 341.38,549.5 339.886,548.523C339.127,548.026 338.407,547.521 338.032,547.067C338.271,546.894 338.78,546.536 339.168,546.327C340.081,545.835 341.04,545.312 341.538,544.746C341.916,544.317 342.098,543.848 342.088,543.361C342.074,542.735 341.822,542.097 341.343,541.471C340.801,540.764 339.941,540.045 338.947,539.335C337.612,538.382 336.025,537.425 334.799,536.457C334.232,536.009 333.742,535.574 333.442,535.125C333.563,535.097 333.7,535.07 333.815,535.058C334.505,534.988 335.384,535.02 336.288,535.08C338.031,535.196 339.859,535.412 340.798,535.354C341.373,535.319 341.761,535.145 341.957,534.985C342.264,534.733 342.399,534.418 342.399,534.062C342.399,533.824 342.329,533.533 342.088,533.239C341.924,533.038 341.597,532.772 341.128,532.491C339.996,531.813 337.824,530.835 336.133,529.771C335.624,529.451 335.162,529.125 334.8,528.795C334.548,528.565 334.341,528.353 334.262,528.127C333.936,527.187 334.712,526.705 335.627,526.323C337.752,525.435 340.932,525.309 341.834,525.21C342.254,525.165 342.494,525.035 342.561,524.989C342.742,524.866 342.844,524.722 342.907,524.596C343.068,524.279 343.071,523.957 342.899,523.632C341.382,520.761 338.636,520.726 336.52,520.798C336.173,520.81 335.85,520.822 335.564,520.811C335.48,520.808 335.377,520.794 335.291,520.781C335.332,520.573 335.419,520.195 335.561,519.852C335.781,519.321 335.529,518.711 334.998,518.49C334.466,518.27 333.857,518.523 333.636,519.054C333.033,520.511 333.134,521.394 333.422,521.901C333.769,522.511 334.488,522.862 335.535,522.894C336.239,522.917 337.15,522.819 338.086,522.878C338.668,522.916 339.268,523.021 339.809,523.311Z" style="fill:rgb(21,12,102);fill-opacity:0.5;"/>
        </g>
        <g transform="matrix(1,0,0,1,-29,-24)">
            <path d="M355.039,567.155L448.769,524.551" style="fill:none;stroke:rgb(21,12,102);stroke-width:8.33px;"/>
        </g>
        <g transform="matrix(1,0,0,1,-29,-24)">
            <path d="M456.228,567.155L368.658,524.551" style="fill:none;stroke:rgb(21,12,102);stroke-width:8.33px;"/>
        </g>
        <g transform="matrix(5.85992,0,0,4.42754,-3.84884e-13,-53.634)">
            <path d="M85,153.686C85,152.203 84.091,151 82.97,151L0,151L0,174L82.97,174C84.091,174 85,172.797 85,171.314L85,153.686Z" style="fill:rgb(21,12,102);fill-opacity:0.8;"/>
        </g>
        <g transform="matrix(3.95404,0,0,2.94561,-2.59792e-13,283.514)">
            <path d="M85,155.038C85,153.967 84.683,152.94 84.119,152.183C83.555,151.425 82.79,151 81.992,151C66.883,151 0,151 0,151L0,174L81.992,174C82.79,174 83.555,173.575 84.119,172.817C84.683,172.06 85,171.033 85,169.962L85,155.038Z" style="fill:rgb(21,12,102);fill-opacity:0.8;"/>
        </g>
        <g transform="matrix(1,0,0,1,14.8604,685.191)">
            <text x="0px" y="0px" style="font-family:'AvenirNext-MediumItalic', 'Avenir Next', sans-serif;font-weight:500;font-style:italic;font-size:75px;fill:white;stroke:rgb(21,12,102);stroke-width:1px;stroke-linecap:butt;stroke-miterlimit:2;">C<tspan x="51.6px 96.6px " y="0px 0px ">od</tspan>ing Smell</text>
        </g>
        <g transform="matrix(1,0,0,1,-432.79,69.075)">
            <text x="451px" y="706px" style="font-family:'AvenirNext-MediumItalic', 'Avenir Next', sans-serif;font-weight:500;font-style:italic;font-size:50px;fill:white;stroke:rgb(21,12,102);stroke-width:1px;stroke-linecap:butt;stroke-miterlimit:2;">(Developing)</text>
        </g>
    </g>
</svg>
