<?xml version="1.0" encoding="UTF-8" standalone="no"?>
<!DOCTYPE svg PUBLIC "-//W3C//DTD SVG 1.1//EN" "http://www.w3.org/Graphics/SVG/1.1/DTD/svg11.dtd">
<svg width="100%" height="100%" viewBox="0 0 834 834" version="1.1" xmlns="http://www.w3.org/2000/svg" xmlns:xlink="http://www.w3.org/1999/xlink" xml:space="preserve" xmlns:serif="http://www.serif.com/" style="fill-rule:evenodd;clip-rule:evenodd;stroke-linecap:round;stroke-linejoin:round;stroke-miterlimit:1.5;">
    <g transform="matrix(1.00131,0,0,0.998737,-0.227333,-3.19225)">
        <path d="M829.678,175.905L829.678,665.877C829.678,757.286 755.656,831.499 664.481,831.499L168.301,831.499C77.127,831.499 3.105,757.286 3.105,665.877L3.105,175.905C3.105,84.496 77.127,10.283 168.301,10.283L664.481,10.283C755.656,10.283 829.678,84.496 829.678,175.905Z" style="fill:white;stroke:white;stroke-width:10.42px;"/>
    </g>
    <g id="communication">
        <g transform="matrix(0.821031,0,0,1,81.1989,3)">
            <path d="M458.692,456.921C458.231,454.879 456.842,453.104 454.956,451.553C453.481,450.34 451.528,449.365 450.531,448.167C426.746,419.626 401.078,409.904 364.876,400.25C339.281,393.425 312.66,398.062 286.559,406.566C261.585,414.704 237.085,426.355 214.494,433.885C176.907,446.414 124.394,451.593 85.469,440.977C62.261,434.648 1.816,406.965 -42.8,401.337C-63.889,398.677 -81.618,401.059 -91.709,411.15C-93.486,412.927 -93.172,415.555 -91.007,417.014C-88.842,418.473 -85.642,418.215 -83.865,416.438C-78.671,411.244 -70.703,409.078 -61.209,408.693C-50.602,408.262 -38.19,410.078 -25.131,413.085C15.713,422.49 62.54,443.505 82.269,448.886C123.306,460.078 178.685,454.816 218.312,441.607C240.88,434.084 265.354,422.441 290.304,414.312C314.127,406.549 338.379,401.946 361.741,408.176C395.659,417.221 419.87,426.132 442.154,452.873C443.143,454.06 444.662,455.185 446.25,456.308C446.853,456.734 447.465,457.165 447.998,457.631C448.291,457.888 448.638,458.109 448.713,458.44C449.223,460.702 451.874,462.197 454.628,461.778C457.382,461.359 459.203,459.182 458.692,456.921Z" style="fill:rgb(21,12,102);"/>
        </g>
        <g transform="matrix(0.979892,0,0,0.966146,9.12322,14.462)">
            <path d="M0,310.777L453.703,309.029L396.005,412.158" style="fill:none;stroke:rgb(21,12,102);stroke-width:8.56px;"/>
        </g>
        <g transform="matrix(1,0,0,1,0,3)">
            <path d="M323.273,299.707L309.734,255.099L293.064,223.317L306.377,216.283L323.273,299.707Z" style="fill:rgb(21,12,102);stroke:rgb(21,12,102);stroke-width:8.33px;"/>
        </g>
        <g transform="matrix(1,0,0,1,6.25531,3)">
            <path d="M275.438,222.346L256.57,216.283L240.158,299.707L261.023,245.886L275.438,222.346Z" style="fill:rgb(21,12,102);stroke:rgb(21,12,102);stroke-width:8.33px;"/>
        </g>
        <g transform="matrix(1,0,0,1,0,19.3303)">
            <path d="M316.354,132.039L351.745,107.319L396.591,79.428L343.631,103.229L308.169,124.68L316.354,132.039Z" style="fill:rgb(21,12,102);stroke:rgb(21,12,102);stroke-width:8.33px;"/>
        </g>
        <g transform="matrix(1,0,0,1,6.25531,17.603)">
            <path d="M257.798,125.601L160.848,141.932L222.108,140.528L257.798,136.654L257.798,125.601Z" style="fill:rgb(21,12,102);stroke:rgb(21,12,102);stroke-width:8.33px;"/>
        </g>
        <g transform="matrix(1,0,0,1,-3.84295,19.3303)">
            <circle cx="293.725" cy="87.447" r="18.287" style="fill:rgb(21,12,102);stroke:rgb(21,12,102);stroke-width:8.33px;"/>
        </g>
        <g transform="matrix(1,0,0,1,9.7669,-12.9655)">
            <path d="M386.824,122.064L432.833,47.733" style="fill:none;stroke:rgb(21,12,102);stroke-width:8.33px;"/>
        </g>
        <g transform="matrix(1,0,0,1,0,3)">
            <path d="M442.811,33.04C444.393,34.566 448.218,35.393 450.388,37.129C459.378,44.321 466.369,58.966 479.01,60.371C489.143,61.497 499.429,59.103 508.934,63.327C511.633,64.527 516.961,66.818 518.29,69.476C518.862,70.619 511.542,73.296 510.003,74.555C503.965,79.496 499.91,83.914 494.765,89.793C490.386,94.798 487.496,101.602 485.676,107.972C484.917,110.629 485.28,114.646 484.072,117.061C483.754,117.696 478.088,116.613 477.656,116.526C468.307,114.657 463.581,113.058 457.492,106.098C450.938,98.609 452.046,84.714 442.6,79.991C436.216,76.799 423.854,77.229 417.239,77.229" style="fill:none;stroke:rgb(21,12,102);stroke-width:8.33px;"/>
        </g>
        <g transform="matrix(1,0,0,1,0,3)">
            <path d="M167.103,162.557L103.642,122.064" style="fill:none;stroke:rgb(21,12,102);stroke-width:8.33px;"/>
        </g>
        <g transform="matrix(1,0,0,1,0,3)">
            <path d="M100.912,123.834C100.363,124.889 97.643,127.542 98.07,126.377C99.219,123.246 93.685,133.183 92.444,136.121C88.587,145.247 94.467,149.05 93.588,152.86C92.253,158.644 87.965,160.757 84.218,165.252C79.852,170.492 74.337,173.3 69.249,177.541C68.356,178.285 67.534,179.13 66.568,179.775C65.93,180.2 64.557,180.125 64.557,180.892C64.557,181.289 70.165,182.733 70.589,182.903C74.619,184.515 80.009,185.88 83.22,188.689C87.512,192.445 88.428,199.383 91.591,204.128C94.055,207.824 92.343,216.254 98.74,213.512C99.57,213.156 100.373,212.761 101.198,212.395C102.724,211.716 104.053,210.864 105.443,209.937C117.647,201.801 118.797,186.845 121.027,173.467C121.814,168.745 122.977,163.943 123.764,159.22C124.661,153.838 136.192,148.37 142.482,148.37" style="fill:none;stroke:rgb(21,12,102);stroke-width:8.33px;"/>
        </g>
        <g transform="matrix(1,0,0,1,31.248,-170.344)">
            <ellipse cx="660.437" cy="652.544" rx="85.163" ry="109.589" style="fill:rgb(21,12,102);stroke:rgb(21,12,102);stroke-width:8.33px;"/>
        </g>
        <g transform="matrix(1,0,0,1,31.248,-136.344)">
            <circle cx="505.21" cy="523.899" r="26.723" style="fill:rgb(21,12,102);stroke:rgb(21,12,102);stroke-width:8.33px;"/>
        </g>
        <g transform="matrix(1,0,0,1,31.248,-136.344)">
            <path d="M524.197,505.103L602.702,610.872L590.053,634.74L486.611,542.955" style="fill:rgb(21,12,102);stroke:rgb(21,12,102);stroke-width:8.33px;"/>
        </g>
        <g transform="matrix(1,0,0,1,31.248,-170.344)">
            <path d="M575.274,812.984L461.308,786.078L558.031,592.438L575.274,605.809L505.21,762.133L575.274,750.686L575.274,812.984Z" style="fill:rgb(21,12,102);stroke:rgb(21,12,102);stroke-width:8.33px;"/>
        </g>
        <g transform="matrix(6.76581,0,0,4.42754,-4.14226e-13,-7.63403)">
            <path d="M85,153.686C85,152.974 84.815,152.291 84.485,151.787C84.155,151.283 83.708,151 83.242,151C71.086,151 0,151 0,151L0,174L83.242,174C83.708,174 84.155,173.717 84.485,173.213C84.815,172.709 85,172.026 85,171.314C85,166.887 85,158.113 85,153.686Z" style="fill:rgb(21,12,102);fill-opacity:0.8;"/>
        </g>
        <g transform="matrix(1,0,0,1,13.9718,738.391)">
            <text x="0px" y="0px" style="font-family:'AvenirNext-MediumItalic', 'Avenir Next', sans-serif;font-weight:500;font-style:italic;font-size:75px;fill:white;stroke:rgb(21,12,102);stroke-width:1px;stroke-linecap:butt;stroke-miterlimit:2;">C<tspan x="51.6px 96.6px " y="0px 0px ">om</tspan>munica<tspan x="412.5px " y="0px ">t</tspan>ion</text>
        </g>
    </g>
</svg>
