<?xml version="1.0" encoding="UTF-8" standalone="no"?>
<!DOCTYPE svg PUBLIC "-//W3C//DTD SVG 1.1//EN" "http://www.w3.org/Graphics/SVG/1.1/DTD/svg11.dtd">
<svg width="100%" height="100%" viewBox="0 0 834 834" version="1.1" xmlns="http://www.w3.org/2000/svg" xmlns:xlink="http://www.w3.org/1999/xlink" xml:space="preserve" xmlns:serif="http://www.serif.com/" style="fill-rule:evenodd;clip-rule:evenodd;stroke-linecap:round;stroke-linejoin:round;stroke-miterlimit:1.5;">
    <g transform="matrix(1.00131,0,0,0.998737,-0.227333,-3.19225)">
        <path d="M829.678,175.905L829.678,665.877C829.678,757.286 755.656,831.499 664.481,831.499L168.301,831.499C77.127,831.499 3.105,757.286 3.105,665.877L3.105,175.905C3.105,84.496 77.127,10.283 168.301,10.283L664.481,10.283C755.656,10.283 829.678,84.496 829.678,175.905Z" style="fill:white;stroke:white;stroke-width:10.42px;"/>
    </g>
    <g id="learning-" serif:id="learning ">
        <g transform="matrix(1.26671,0,0,1.32524,-215.048,-72.4511)">
            <path d="M766.802,555.514L711.534,390.387L649.446,552.729L677.444,479.522L739.194,473.028" style="fill:none;stroke:rgb(21,12,102);stroke-width:6.43px;"/>
        </g>
        <g transform="matrix(1.26671,0,0,1.32524,-208.715,-69.3532)">
            <path d="M659.753,476.243L766.802,251.112L754.803,243.751C720.098,320.608 685.04,397.075 649.446,472.951L659.753,476.243Z" style="fill:rgb(21,12,102);stroke:rgb(21,12,102);stroke-width:6.43px;"/>
        </g>
        <g transform="matrix(1.26671,0,0,1.32524,-215.048,-72.4511)">
            <circle cx="593.337" cy="319.219" r="32.338" style="fill:rgb(21,12,102);stroke:rgb(21,12,102);stroke-width:6.43px;"/>
        </g>
        <g transform="matrix(1.21291,0,0,1.21291,-609.083,-9.73488)">
            <circle cx="593.337" cy="319.219" r="32.338" style="fill:rgb(21,12,102);stroke:rgb(21,12,102);stroke-width:6.87px;"/>
        </g>
        <g transform="matrix(1.26671,0,0,1.32524,-215.048,-72.4511)">
            <path d="M625.676,319.219L631.886,301.653L654.446,314.942L600.312,258.537L609.437,278.798L600.078,286.881L625.676,319.219Z" style="fill:rgb(21,12,102);stroke:rgb(21,12,102);stroke-width:6.43px;"/>
        </g>
        <g transform="matrix(1.26671,0,0,1.32524,-215.048,-72.4511)">
            <path d="M631.468,309.889L633.894,336.532L637.632,344.002L634.862,351.557L631.996,345.464L633.894,336.532" style="fill:rgb(21,12,102);stroke:rgb(21,12,102);stroke-width:6.43px;"/>
        </g>
        <g transform="matrix(1.26671,0,0,1.32524,-215.048,-72.4511)">
            <path d="M577.047,381.722L600.078,442.449L649.446,390.387L605.171,424.085L600.078,376.429" style="fill:rgb(21,12,102);stroke:rgb(21,12,102);stroke-width:6.43px;"/>
        </g>
        <g transform="matrix(1.26671,0,0,1.32524,-215.048,-72.4511)">
            <path d="M600.078,376.429L577.047,381.722" style="fill:none;stroke:rgb(21,12,102);stroke-width:6.43px;"/>
        </g>
        <g transform="matrix(1.26671,0,0,1.32524,-215.048,-72.4511)">
            <path d="M643.849,409.439C643.849,409.439 675.773,314.382 690.283,288.878" style="fill:rgb(21,12,102);stroke:rgb(21,12,102);stroke-width:6.43px;"/>
        </g>
        <g transform="matrix(1.26671,0,0,1.32524,-195.616,-72.4511)">
            <path d="M551.93,543.982L553.199,483.476C550.128,466.691 547.594,454.235 545.143,442.449C554.337,458.44 561.991,471.576 566.652,479.164L551.93,543.982Z" style="fill:rgb(21,12,102);stroke:rgb(21,12,102);stroke-width:6.43px;"/>
        </g>
        <g transform="matrix(1.21291,0,0,1.21291,47.011,3.93643)">
            <path d="M201.58,543.982L208.855,409.439L121.323,409.439L121.65,428.344L207.07,442.449L208.855,409.439" style="fill:rgb(21,12,102);stroke:rgb(21,12,102);stroke-width:6.87px;"/>
        </g>
        <g transform="matrix(1.21291,0,0,1.21291,47.011,3.93643)">
            <path d="M121.323,538.058L121.323,427.668L121.323,469.056L203.329,476.71" style="fill:none;stroke:rgb(21,12,102);stroke-width:6.87px;"/>
        </g>
        <g transform="matrix(1.21291,0,0,1.21291,-26.2384,3.93643)">
            <path d="M130.217,538.058L134.107,468.884L85.527,466.856L80.021,538.058L83.489,493.215L132.402,499.205L83.489,493.215L85.527,466.856L89.208,381.722" style="fill:none;stroke:rgb(21,12,102);stroke-width:6.87px;"/>
        </g>
        <g transform="matrix(1.21291,0,0,1.21291,-26.2384,3.93643)">
            <path d="M150.669,538.058L157.766,427.668L98.871,459.89L139.531,452.239L150.669,538.058Z" style="fill:rgb(21,12,102);stroke:rgb(21,12,102);stroke-width:6.87px;"/>
        </g>
        <g transform="matrix(1.21291,0,0,1.21291,-19.2753,18.1534)">
            <path d="M107.064,344.586L122.416,400.419L192.799,400.728L134.107,389.07L107.064,344.586Z" style="fill:rgb(21,12,102);stroke:rgb(21,12,102);stroke-width:6.87px;"/>
        </g>
        <g transform="matrix(3.97757,0,0,4.42754,-2.61444e-13,-498.609)">
            <path d="M85,153.686C85,152.203 83.661,151 82.01,151L0,151L0,174L82.01,174C83.661,174 85,172.797 85,171.314L85,153.686Z" style="fill:rgb(21,12,102);fill-opacity:0.8;"/>
        </g>
        <g transform="matrix(1,0,0,1,13.4946,238.416)">
            <text x="0px" y="0px" style="font-family:'AvenirNext-MediumItalic', 'Avenir Next', sans-serif;font-weight:500;font-style:italic;font-size:75px;fill:white;stroke:rgb(21,12,102);stroke-width:1px;stroke-linecap:butt;stroke-miterlimit:2;">L<tspan x="36.975px 78.9px " y="0px 0px ">ea</tspan>rning</text>
        </g>
    </g>
</svg>
