<?xml version="1.0" encoding="UTF-8" standalone="no"?>
<!DOCTYPE svg PUBLIC "-//W3C//DTD SVG 1.1//EN" "http://www.w3.org/Graphics/SVG/1.1/DTD/svg11.dtd">
<svg width="100%" height="100%" viewBox="0 0 834 834" version="1.1" xmlns="http://www.w3.org/2000/svg" xmlns:xlink="http://www.w3.org/1999/xlink" xml:space="preserve" xmlns:serif="http://www.serif.com/" style="fill-rule:evenodd;clip-rule:evenodd;stroke-linecap:round;stroke-linejoin:round;stroke-miterlimit:1.5;">
    <g transform="matrix(1.00131,0,0,0.998737,-0.227333,-3.19225)">
        <path d="M829.678,175.905L829.678,665.877C829.678,757.286 755.656,831.499 664.481,831.499L168.301,831.499C77.127,831.499 3.105,757.286 3.105,665.877L3.105,175.905C3.105,84.496 77.127,10.283 168.301,10.283L664.481,10.283C755.656,10.283 829.678,84.496 829.678,175.905Z" style="fill:white;stroke:white;stroke-width:10.42px;"/>
    </g>
    <g id="problem-solving">
        <g transform="matrix(1,0,0,1,122.284,64.0387)">
            <path d="M646.857,630.02L416.667,630.149L451.007,585.555L613.127,586.514L646.857,630.02Z" style="fill:rgb(21,12,102);stroke:rgb(21,12,102);stroke-width:8.33px;"/>
        </g>
        <g transform="matrix(1,0,0,1,122.284,64.0387)">
            <path d="M502.513,585.555L508.077,268.454L577.408,269.442L571.838,585.555L502.513,585.555Z" style="fill:none;stroke:rgb(21,12,102);stroke-width:8.33px;"/>
        </g>
        <g transform="matrix(1.03106,0,0,1,104.211,127.287)">
            <path d="M512.817,314.878C512.298,313.195 510.769,311.975 508.966,311.975C506.736,311.975 504.925,313.842 504.925,316.142C504.925,319.419 506.997,321.957 510.878,323.011C515.816,324.35 524.434,322.933 527.056,321.622C532.339,318.981 537.028,316.133 541.711,314.084C547.865,311.39 553.999,310.198 561.839,313.557C565.232,315.012 569.24,317.37 570.645,320.706C571.533,322.815 573.915,323.784 575.961,322.868C578.007,321.953 578.947,319.497 578.059,317.387C575.899,312.257 570.159,308.099 564.941,305.862C554.665,301.458 546.62,302.882 538.553,306.413C533.754,308.513 528.943,311.417 523.53,314.124C522.551,314.614 520.273,315.019 517.914,315.196C516.607,315.294 515.27,315.307 514.085,315.164C513.69,315.116 513.178,314.983 512.817,314.878Z" style="fill:rgb(21,12,102);"/>
        </g>
        <g transform="matrix(1,0,0,1,121.753,115.014)">
            <circle cx="540.493" cy="356.122" r="19.907" style="fill:rgb(21,12,102);stroke:rgb(21,12,102);stroke-width:8.33px;"/>
        </g>
        <g transform="matrix(1,0,0,1,116.166,36.5407)">
            <path d="M502.513,210.785C495.087,223.629 462.916,218.831 462.916,218.831L399.667,284.281L339.891,244.26L416.667,146.167C416.667,146.167 509.94,197.942 502.513,210.785Z" style="fill:none;stroke:rgb(21,12,102);stroke-width:8.33px;"/>
        </g>
        <g transform="matrix(1,0,0,1,116.166,36.5407)">
            <path d="M406.381,157.517L381.599,140.65L339.891,194.633L360.984,215.224" style="fill:none;stroke:rgb(21,12,102);stroke-width:8.33px;"/>
        </g>
        <g transform="matrix(0.737904,-0.674905,0.675917,0.73901,42.5812,295.008)">
            <path d="M382.986,225.621L179.101,301.545L78.194,168.718L126.849,161.949L222.564,254.096L382.986,225.621Z" style="fill:rgb(21,12,102);stroke:rgb(21,12,102);stroke-width:8.33px;"/>
        </g>
        <g transform="matrix(1,0,0,1,110.552,79.6619)">
            <circle cx="201.354" cy="123.603" r="82.12" style="fill:rgb(21,12,102);stroke:rgb(21,12,102);stroke-width:8.33px;"/>
        </g>
        <g transform="matrix(1,0,0,1,62,-66.0887)">
            <path d="M579.481,472.523C577.739,473.923 577.41,476.466 578.761,478.267C580.141,480.107 582.754,480.48 584.594,479.1C585.497,478.423 586.388,477.346 587.131,476.004C588.155,474.156 588.956,471.648 589.573,470.345C591.671,465.916 593.724,461.657 595.014,456.926C598.759,443.194 600.588,426.389 596.4,412.429C593.827,403.853 588.663,396.346 586.012,387.863C584.837,384.104 582.648,380.592 581.877,376.736C580.87,371.7 581.251,365.94 581.251,360.814C581.251,360.396 582.174,355.188 582.385,354.004C582.859,353.328 583.137,352.506 583.137,351.619C583.137,349.319 581.27,347.452 578.97,347.452C577.887,347.452 576.207,347.814 575.082,349.817C574.73,350.444 574.272,351.8 573.936,353.457C573.354,356.335 572.917,360.321 572.917,360.814C572.917,366.468 572.595,372.816 573.705,378.371C574.533,382.51 576.797,386.313 578.058,390.349C580.7,398.802 585.854,406.278 588.418,414.824C592.175,427.347 590.334,442.415 586.975,454.733C585.815,458.986 583.927,462.797 582.042,466.778C581.604,467.701 581.077,469.237 580.444,470.708C580.165,471.356 579.558,472.393 579.481,472.523ZM579.336,355.768L579.225,355.777L579.27,355.775L579.336,355.768ZM580.203,355.599C579.968,355.672 579.723,355.725 579.472,355.754C579.714,355.727 579.958,355.677 580.203,355.599Z" style="fill:rgb(21,12,102);"/>
        </g>
        <g transform="matrix(1,0,0,1,62,-66.0887)">
            <path d="M618.462,456.438C620.553,453.976 621.794,450.227 622.372,446.072C623.067,441.075 622.88,435.455 623.201,431.922C624.563,416.939 624.06,401.49 617.647,387.596C615.786,383.562 613.092,379.812 610.489,376.03C608.246,372.772 606.061,369.496 604.85,365.862C603.17,360.822 603.649,357.129 603.649,352.09C603.649,349.79 601.782,347.923 599.482,347.923C597.183,347.923 595.316,349.79 595.316,352.09C595.316,358.1 594.94,362.486 596.944,368.497C599.657,376.637 606.489,383.305 610.081,391.088C615.876,403.644 616.133,417.628 614.902,431.168C614.59,434.602 614.794,440.066 614.118,444.924C613.782,447.34 613.326,449.612 612.111,451.044C610.622,452.796 610.836,455.428 612.589,456.917C614.342,458.405 616.973,458.191 618.462,456.438Z" style="fill:rgb(21,12,102);"/>
        </g>
        <g transform="matrix(1,0,0,1,35.1405,-84.0887)">
            <path d="M468.34,305.426C469.028,303.605 488.548,283.767 493.588,297.112C498.629,310.458 579.041,328.828 579.041,328.828L544.278,339.737L480.99,398.582L426.632,364.713C426.632,364.713 467.652,307.247 468.34,305.426Z" style="fill:rgb(21,12,102);stroke:rgb(21,12,102);stroke-width:8.33px;"/>
        </g>
        <g transform="matrix(7.01286,0,0,4.42754,-4.60662e-13,-146.988)">
            <path d="M85,153.686C85,152.974 84.821,152.291 84.503,151.787C84.185,151.283 83.754,151 83.304,151L0,151L0,174L83.304,174C83.754,174 84.185,173.717 84.503,173.213C84.821,172.709 85,172.026 85,171.314L85,153.686Z" style="fill:rgb(21,12,102);fill-opacity:0.8;"/>
        </g>
        <g transform="matrix(1,0,0,1,15.6618,591.836)">
            <text x="0px" y="0px" style="font-family:'AvenirNext-MediumItalic', 'Avenir Next', sans-serif;font-weight:500;font-style:italic;font-size:75px;fill:white;stroke:rgb(21,12,102);stroke-width:1px;stroke-linecap:butt;stroke-miterlimit:2;">P<tspan x="41.025px 65.85px 110.85px " y="0px 0px 0px ">rob</tspan>lem-<tspan x="309.6px 352.275px " y="0px 0px ">So</tspan>lving</text>
        </g>
    </g>
</svg>
