<?xml version="1.0" encoding="UTF-8" standalone="no"?>
<!DOCTYPE svg PUBLIC "-//W3C//DTD SVG 1.1//EN" "http://www.w3.org/Graphics/SVG/1.1/DTD/svg11.dtd">
<svg width="100%" height="100%" viewBox="0 0 834 834" version="1.1" xmlns="http://www.w3.org/2000/svg" xmlns:xlink="http://www.w3.org/1999/xlink" xml:space="preserve" xmlns:serif="http://www.serif.com/" style="fill-rule:evenodd;clip-rule:evenodd;stroke-linecap:round;stroke-linejoin:round;stroke-miterlimit:1.5;">
    <g transform="matrix(1.00131,0,0,0.998737,-0.227333,-3.19225)">
        <path d="M829.678,175.905L829.678,665.877C829.678,757.286 755.656,831.499 664.481,831.499L168.301,831.499C77.127,831.499 3.105,757.286 3.105,665.877L3.105,175.905C3.105,84.496 77.127,10.283 168.301,10.283L664.481,10.283C755.656,10.283 829.678,84.496 829.678,175.905Z" style="fill:white;stroke:white;stroke-width:10.42px;"/>
    </g>
    <g id="teamwork">
        <g transform="matrix(1,0,0,1,-15,0)">
            <path d="M483.21,776.6C485.061,776.894 487.791,777.292 488.981,777.292C497.287,777.292 504.175,776.625 511.952,774.403C520.223,772.04 528.323,767.008 536.049,760.879C546.999,752.191 557.225,741.295 566.265,733.546C578.855,722.755 594.752,710.919 611.76,704.168C628.034,697.708 645.353,695.917 661.565,704.924C677.653,713.862 692.793,728.443 710.47,734.336C712.777,735.105 719.325,735.729 727.683,736.097C745.905,736.899 773.278,736.904 780.687,737.141C781.178,737.157 781.688,737.185 781.913,737.198C783.23,737.457 784.648,737.077 785.668,736.057C787.294,734.431 787.294,731.791 785.668,730.165C785.371,729.868 784.833,729.382 783.857,729.096C783.61,729.024 782.603,728.865 780.954,728.812C773.559,728.575 746.237,728.572 728.049,727.772C720.802,727.453 715.105,727.097 713.105,726.43C695.902,720.696 681.269,706.337 665.612,697.639C647.079,687.343 627.289,689.038 608.686,696.422C590.817,703.515 574.069,715.881 560.841,727.219C553.332,733.656 545.004,742.275 536.12,749.981C527.728,757.26 518.862,763.762 509.663,766.39C502.662,768.391 496.458,768.958 488.981,768.958C487.291,768.958 483.138,768.107 482.256,768.009C480.054,767.764 478.938,768.944 478.73,769.144C477.761,770.076 477.404,771.168 477.455,772.333C477.489,773.106 477.693,774.178 478.764,775.188C478.87,775.288 479.605,775.961 481.548,776.491C482.106,776.644 482.67,776.675 483.21,776.6Z" style="fill:rgb(21,12,102);"/>
        </g>
        <g transform="matrix(1,0,0,1,-15,0)">
            <path d="M632.753,264.687C628.218,261.024 623.802,257.119 619.135,253.785C601.361,241.089 584.326,227.739 563.297,220.229C550.241,215.566 536.635,217.523 523.222,221.424C510.782,225.043 498.522,230.333 487.107,232.616C470.949,235.848 454.908,234.207 439.91,234.276C415.552,234.387 393.792,238.646 377.863,270.503C376.161,273.909 369.688,296.078 369.941,306.197C369.993,308.288 370.336,309.991 370.858,311.191C371.55,312.781 372.597,313.807 373.783,314.4C374.265,314.641 377.042,315.678 379.237,312.963C380.877,310.933 387.612,299.976 388.499,299.089C397.136,290.452 404.593,283.66 415.003,276.453C419.254,273.51 423.836,272.255 428.577,270.98C426.716,273.862 425.013,276.852 423.277,278.974C401.974,305.011 393.053,345.643 402.007,378.476C406.157,393.692 413.506,406.858 415.09,422.705C416.854,440.339 410.655,457.878 400.642,472.064C396.658,477.707 393.787,482.487 387.968,486.124L387.47,486.447C386.944,486.583 386.517,486.699 386.213,486.789C382.916,487.766 382.707,490.709 382.707,490.979C382.707,492.535 383.328,493.517 383.984,494.189C384.623,494.845 385.426,495.294 386.418,495.464C387.108,495.582 388.049,495.564 389.107,495.154C389.611,494.958 390.271,494.563 390.899,494.158C396.27,492.783 407.475,490.132 408.895,489.564C421.275,484.612 435.701,467.933 438.501,454.866C442.984,433.945 441.885,413.756 440.445,393.574C439.054,374.088 437.339,354.61 440.524,334.439C444.21,311.093 460.603,293.526 481.316,283.281C502.31,272.896 527.792,269.981 549.492,276.364C562.231,280.111 571.989,290.577 581.556,299.233C583.359,300.864 603.607,322.286 616.549,333.79C607.609,335.485 600.742,338.091 593.128,343.629C576.614,355.639 571.041,365.079 565.857,375.739C562.638,382.359 559.598,389.495 553.805,398.184C548.905,405.536 541.677,412.813 533.146,414.946C530.272,415.665 529.481,417.304 529.166,418.274C528.721,419.64 528.822,421.528 530.549,423.256C536.561,429.267 545.648,430.582 554.958,428.629C568,425.894 581.207,416.762 585.436,408.303C595.434,388.307 608.259,377.988 622.717,377.636C637.47,377.276 653.368,387.056 668.991,405.805C680.157,419.204 681.235,441.305 681.235,457.956C681.235,488.504 674.242,518.19 656.253,543.375C641.943,563.409 619.92,579.727 602.742,598.477C584.602,618.276 571.723,640.673 576.939,671.969C578.26,679.893 577.926,687.214 581.619,694.18C582.697,696.211 585.221,696.986 587.253,695.909C589.284,694.832 590.059,692.307 588.982,690.276C585.72,684.124 586.325,677.597 585.159,670.599C580.431,642.233 592.445,622.052 608.886,604.106C626.29,585.111 648.536,568.516 663.034,548.219C682.051,521.595 689.568,490.249 689.568,457.956C689.568,439.552 687.735,415.28 675.393,400.47C657.691,379.228 639.23,368.897 622.513,369.305C605.5,369.719 589.748,381.045 577.983,404.576C574.588,411.365 563.715,418.278 553.247,420.474C549.255,421.311 545.277,421.491 541.853,420.495C549.481,416.613 556.055,409.834 560.739,402.807C566.788,393.733 569.99,386.296 573.351,379.383C578.038,369.745 583.098,361.227 598.03,350.368C604.742,345.486 610.796,343.303 618.78,341.851C621.211,341.409 623.255,341.268 625.695,341.26L627.296,341.567C628.071,341.826 628.738,341.919 629.262,341.919C632.751,341.919 633.296,339.074 633.401,338.502C633.552,337.685 633.83,335.269 631.067,333.965C630.96,333.915 630.479,333.797 629.849,333.659L629.955,333.676C629.955,333.676 624.801,330.05 620.456,326.102C607.555,314.382 588.873,294.615 587.147,293.053C576.682,283.586 565.777,272.467 551.843,268.369C528.221,261.421 500.475,264.507 477.621,275.811C454.486,287.254 436.41,307.063 432.293,333.139C429.006,353.956 430.697,374.058 432.133,394.167C433.518,413.578 434.664,432.998 430.353,453.12C428.034,463.941 416.053,477.725 405.801,481.826C405.475,481.956 404.615,482.198 403.425,482.507C404.746,480.735 406.048,478.856 407.45,476.87C418.598,461.077 425.345,441.507 423.382,421.876C421.75,405.555 414.321,391.954 410.047,376.283C401.765,345.914 410.022,308.334 429.726,284.251C431.741,281.788 433.74,278.238 435.941,274.931C437.628,272.395 439.357,269.937 441.574,268.828C443.864,267.683 443.939,265.827 443.889,264.866C443.855,264.217 443.487,261.284 440.082,260.915C439.124,260.811 432.475,261.205 430.588,261.771C423.431,263.918 416.567,265.235 410.26,269.601C399.403,277.118 391.615,284.189 382.607,293.197C382.25,293.553 380.728,295.757 378.985,298.345C380.545,288.686 384.152,276.56 385.317,274.23C399.311,246.242 418.548,242.707 439.948,242.609C455.455,242.538 472.035,244.129 488.741,240.787C500.371,238.461 512.875,233.112 525.549,229.426C537.249,226.023 549.106,224.01 560.494,228.077C580.781,235.322 597.144,248.318 614.292,260.566C621.519,265.729 628.16,272.236 635.537,277.154C637.633,278.552 642.424,280.265 642.424,280.265C644.466,280.975 646.712,280.005 647.595,278.032C648.479,276.059 647.707,273.738 645.817,272.688L643.97,271.383C640.209,264.981 639.373,255.283 639.373,247.929C639.373,236.285 641.034,226.008 641.204,215.789C641.385,204.905 639.957,194.089 633.617,181.938C628.183,171.523 619.418,163.565 610.963,155.714C609.683,154.526 607.706,152.975 605.665,151.454C607.08,151.979 608.557,152.704 610.079,153.566C625.638,162.376 644.627,185.363 648.251,190.799C662.008,211.435 665.254,229.534 667.215,246.682C669.296,264.881 670.071,282.063 679.033,299.988C684.116,310.154 694.553,323.399 705.879,327.175C708.31,327.985 711.467,327.941 714.581,327.951C716.358,327.957 718.147,327.824 719.415,328.67C721.435,330.017 723.133,332.567 724.76,335.051C726.891,338.303 728.861,341.532 730.669,343.34C733.739,346.411 737.551,346.481 741.507,344.177C747.153,340.889 753.268,331.404 754.633,328.127C758.792,318.146 759.893,305.664 760.651,292.807C761.362,280.743 761.789,268.334 764.714,257.612C766.41,251.391 770.048,245.027 774.173,239.328C772.976,246.037 773.05,253.656 773.997,261.783C775.949,278.551 781.381,297.498 785.029,313.957C787.329,324.334 788.948,333.657 788.25,340.64C785.613,367.005 767.342,379.478 752.553,391.171C741.25,400.108 731.901,408.79 730.151,421.041C728.93,429.588 730.769,437.702 733.653,445.638C736.289,452.893 739.809,459.994 742.211,467.199C742.571,468.28 742.183,469.874 741.794,471.676C740.925,475.696 739.325,480.358 738.563,483.966C738.031,486.483 737.926,488.64 738.253,490.125C738.546,491.457 739.142,492.491 739.915,493.264C741.186,494.535 743.023,495.139 745.276,494.233C746.897,493.582 749.903,490.512 750.46,489.933C754.742,485.663 761.951,481.033 768.927,479.915C771.56,479.493 774.169,479.591 776.476,480.599C771.902,485.815 763.018,495.506 761.59,498.362C758.413,504.716 756.879,511.275 754.956,517.676C753.261,523.315 751.252,528.835 746.963,533.839C740.87,540.947 734.057,545.348 727.97,549.923C717.634,557.691 709.146,565.861 707.665,585.105C705.848,608.727 714.704,617.913 724.992,625.527C733.628,631.92 743.8,636.741 747.405,651.16C748.79,656.7 747.788,662.578 746.551,668.221C745.105,674.81 743.318,681.129 743.318,686.475C743.318,687.388 743.802,689.103 745.245,691.01C746.915,693.215 750.123,696.496 752.717,699.332C754.052,700.792 755.237,702.05 755.646,702.868C756.052,703.68 756.933,707.074 757.537,708.571C758.15,710.091 759.04,710.906 759.446,711.185C760.36,711.812 761.266,711.97 762.066,711.931C763.101,711.879 764.124,711.507 765.002,710.534C765.323,710.178 766.181,709.163 766.181,706.949C766.181,705.691 765.623,704.563 764.74,703.8C764.19,702.107 763.395,699.732 763.1,699.141C762.424,697.789 760.495,695.463 758.211,692.996C755.942,690.546 752.589,686.66 751.67,685.59C751.859,680.957 753.464,675.599 754.69,670.007C756.204,663.109 757.183,655.912 755.49,649.139C752.07,635.46 743.981,628.806 735.59,622.848C729.257,618.352 722.673,614.396 718.916,606.733C716.445,601.696 715.256,595.078 715.974,585.744C717.204,569.753 724.388,563.04 732.977,556.584C739.506,551.677 746.754,546.887 753.29,539.262C758.399,533.302 760.918,526.791 762.937,520.074C764.726,514.121 766.089,507.999 769.044,502.088C770.708,498.76 783.284,485.723 785.475,482.844C787.776,479.821 785.812,477.181 785.435,476.804C780.544,471.913 774.18,470.633 767.608,471.686C760.549,472.818 753.257,476.764 747.915,481.057C748.752,478.088 749.684,474.938 750.191,472.183C750.752,469.139 750.747,466.455 750.117,464.563C747.692,457.29 744.147,450.117 741.485,442.792C739.07,436.147 737.378,429.375 738.4,422.22C739.276,416.091 742.742,411.22 747.342,406.633C752.523,401.469 759.12,396.71 765.724,391.382C779.953,379.904 794.096,365.926 796.542,341.469C797.308,333.803 795.69,323.547 793.165,312.154C789.575,295.957 784.195,277.32 782.274,260.819C781.267,252.169 781.196,244.14 783.036,237.479C784.679,231.534 787.909,226.762 793.599,223.917C794.04,223.696 794.28,223.493 794.383,223.409C794.581,223.246 795.169,214.324 789.959,216.408C788.193,217.114 778.107,221.572 774.752,225.348C767.472,233.537 759.593,244.716 756.674,255.419C753.607,266.663 753.078,279.666 752.332,292.317C751.633,304.176 750.777,315.715 746.941,324.922C746.189,326.726 743.569,330.976 740.565,334.193C739.506,335.328 738.409,336.338 737.313,336.976C737.065,337.121 736.673,337.268 736.461,337.342C734.986,335.818 733.465,333.13 731.731,330.484C729.454,327.008 726.865,323.621 724.038,321.736C721.934,320.334 719.235,319.768 716.337,319.652C713.62,319.543 710.672,319.988 708.514,319.269C699.072,316.122 690.724,304.736 686.486,296.261C677.999,279.286 677.465,262.97 675.495,245.735C673.404,227.45 669.854,208.181 655.185,186.177C651.298,180.347 630.871,155.763 614.186,146.314C605.285,141.275 597.194,140.693 591.972,145.914C591.643,146.244 589.241,149.75 592.574,152.357C593.977,153.455 601.745,158.526 605.292,161.821C613.058,169.032 621.238,176.228 626.229,185.792C632.973,198.718 633.348,209.959 632.624,221.623C632.106,229.959 631.04,238.502 631.04,247.929C631.04,253.025 631.487,259.048 632.753,264.687Z" style="fill:rgb(21,12,102);"/>
        </g>
        <g transform="matrix(1,0,0,1,-15,0)">
            <path d="M65.058,784.674C68.476,783.726 76.476,781.5 78.316,780.948C90.091,777.416 101.418,772.04 112.165,766.07C144.526,748.092 182.782,732.696 219.976,730.925C275.729,728.27 309.602,739.939 359.37,762.908C402.818,782.961 445.268,807.499 493.636,794.674C495.859,794.085 497.185,791.801 496.595,789.579C496.006,787.356 493.723,786.03 491.5,786.619C445.091,798.925 404.551,774.583 362.862,755.342C311.716,731.736 276.876,719.872 219.579,722.601C181.141,724.431 141.561,740.206 108.118,758.785C97.893,764.466 87.125,769.605 75.921,772.967C73.548,773.678 62.458,776.699 61.002,777.157C59.487,777.634 58.923,778.483 58.848,778.577C57.918,779.733 57.847,780.865 57.965,781.743C58.12,782.9 58.659,784.115 60.203,784.902C60.257,784.93 61.568,785.635 64.259,784.963C64.54,784.892 64.807,784.795 65.058,784.674Z" style="fill:rgb(21,12,102);"/>
        </g>
        <g transform="matrix(1,0,0,1,-52.8404,-95.9339)">
            <circle cx="354.227" cy="627.38" r="19.873" style="fill:rgb(21,12,102);stroke:rgb(21,12,102);stroke-width:8.33px;"/>
        </g>
        <g transform="matrix(1,0,0,1,-87.9694,-188.873)">
            <circle cx="354.227" cy="627.38" r="19.873" style="fill:rgb(21,12,102);stroke:rgb(21,12,102);stroke-width:8.33px;"/>
        </g>
        <g transform="matrix(1,0,0,0.992873,-49.2036,-57.5659)">
            <path d="M315.461,654.306L354.227,656.467L350.59,630.105L363.989,658.842L315.461,666.507L315.461,654.306Z" style="fill:rgb(21,12,102);stroke:rgb(21,12,102);stroke-width:8.36px;"/>
        </g>
        <g transform="matrix(1.00424,0,0,0.946863,-41.7301,-35.9243)">
            <path d="M376.881,682.161L363.355,641.188L299.655,620.198L297.959,627.521L355.011,643.655L376.881,682.161Z" style="fill:rgb(21,12,102);stroke:rgb(21,12,102);stroke-width:8.54px;"/>
        </g>
        <g transform="matrix(1.28579,0,0,1.40809,-116.16,-294.669)">
            <path d="M293.294,666.426L303.373,664.632L290.6,726.384L295.83,687.817L293.294,666.426Z" style="fill:rgb(21,12,102);stroke:rgb(21,12,102);stroke-width:6.18px;"/>
        </g>
        <g transform="matrix(1.29649,-0.292529,0.314823,1.3953,-304.057,-193.306)">
            <path d="M293.294,666.426L303.373,664.632L290.6,726.384L295.83,687.817L293.294,666.426Z" style="fill:rgb(21,12,102);stroke:rgb(21,12,102);stroke-width:6.04px;"/>
        </g>
        <g transform="matrix(1,0,0,1,-16.9183,-17.7385)">
            <path d="M306.037,489.079L338.177,469.206L376.83,416.667L342.853,469.206L312.171,495.825L306.037,489.079Z" style="fill:rgb(21,12,102);stroke:rgb(21,12,102);stroke-width:8.33px;"/>
        </g>
        <g transform="matrix(1,0,0,1,-16.9183,-17.7385)">
            <path d="M266.292,499.972L234.889,523.733L202.974,569.057L237.686,529.312L266.292,508.576L266.292,499.972Z" style="fill:rgb(21,12,102);stroke:rgb(21,12,102);stroke-width:8.33px;"/>
        </g>
        <g transform="matrix(1,0,0,1,-16.9183,-17.7385)">
            <path d="M274.41,575.245L274.41,549.184L283.175,552.039L283.175,572.953" style="fill:rgb(21,12,102);stroke:rgb(21,12,102);stroke-width:8.33px;"/>
        </g>
        <g transform="matrix(1.17346,0,0,1.33358,-94.5754,-119.747)">
            <path d="M394.308,375.312L458.76,359.474L397.251,329.761L353.666,350.261L394.308,375.312Z" style="fill:rgb(21,12,102);stroke:rgb(21,12,102);stroke-width:6.63px;"/>
        </g>
        <g transform="matrix(1,0,0,1,-15,0)">
            <path d="M458.76,358.876L487.136,352.537L516.09,322.52L529.001,298.373L535.457,259.775" style="fill:none;stroke:rgb(21,12,102);stroke-width:8.33px;"/>
        </g>
        <g transform="matrix(1,0,0,1,-15,0)">
            <path d="M461.499,349.926L462.257,351.433C461.509,354.259 459.739,357.153 459.087,359.948C458.321,363.233 458.615,366.406 461.017,369.408C462.571,371.352 464.742,373.342 467.58,373.193C469.877,373.072 471.643,371.109 471.522,368.813C471.419,366.853 469.975,365.279 468.126,364.936C467.937,364.709 467.675,364.391 467.524,364.203C467.023,363.577 467.007,362.9 467.125,362.219C467.288,361.283 467.655,360.338 468.05,359.38C469.013,357.043 470.133,354.667 470.595,352.357C470.73,351.68 470.743,350.606 470.388,349.356C469.973,347.894 468.998,345.911 467.987,344.615C466.541,342.761 464.691,342.082 463.456,342.082C461.156,342.082 459.289,343.949 459.289,346.248C459.289,347.841 460.185,349.225 461.499,349.926Z" style="fill:rgb(21,12,102);"/>
        </g>
        <g transform="matrix(1,0,0,1,-15,0)">
            <path d="M489.953,357.205C489.433,356.898 489.038,356.698 488.901,356.36C488.822,356.164 488.902,355.96 488.937,355.746C489.018,355.241 489.165,354.723 489.318,354.187C490.029,351.711 490.797,349.004 490.377,346.066C489.945,343.042 488.796,341.592 487.488,340.459C486.854,339.91 486.071,339.564 485.331,338.824C483.705,337.198 481.065,337.198 479.439,338.824C477.813,340.45 477.813,343.091 479.439,344.717C479.938,345.216 480.44,345.619 480.936,345.976C481.393,346.306 481.997,346.334 482.127,347.245C482.464,349.602 481.288,351.674 480.87,353.578C480.435,355.565 480.422,357.443 481.078,359.231C481.724,360.994 483.02,362.789 485.719,364.382C487.699,365.55 490.256,364.891 491.425,362.91C492.593,360.93 491.934,358.373 489.953,357.205Z" style="fill:rgb(21,12,102);"/>
        </g>
        <g transform="matrix(1,0,0,1,-15,0)">
            <path d="M497.065,331.198L498.334,331.896C498.594,332.271 498.648,332.723 498.718,333.163C498.853,334.005 498.897,334.875 498.986,335.726C499.233,338.104 499.821,340.34 501.37,342.199C502.179,343.17 504.68,344.781 506.769,345.295C508.377,345.69 509.815,345.496 510.777,345.063C512.874,344.119 513.811,341.65 512.867,339.553C512.105,337.859 510.347,336.923 508.594,337.123L507.631,336.66C507.391,336.241 507.379,335.737 507.317,335.244C507.203,334.319 507.152,333.366 507.031,332.434C506.716,329.989 505.957,327.698 504.057,325.798C503.805,325.546 501.665,324.003 499.781,323.189C498.506,322.639 497.285,322.43 496.472,322.475C495.191,322.547 494.217,323.051 493.5,323.724C492.694,324.482 492.059,325.54 492.059,327.116C492.059,329.415 493.926,331.282 496.226,331.282C496.513,331.282 496.794,331.253 497.065,331.198ZM500.367,327.567C500.344,327.789 500.302,328.006 500.244,328.216C500.303,328.015 500.346,327.799 500.367,327.567ZM500.385,327.358L500.374,327.503L500.383,327.403L500.385,327.358Z" style="fill:rgb(21,12,102);"/>
        </g>
        <g transform="matrix(1,0,0,1,-15,0)">
            <path d="M521.615,322.177L520.682,321.785C519.543,319.93 519.11,317.621 518.264,315.75C516.585,312.041 514.1,309.312 508.641,309.312C506.342,309.312 504.475,311.179 504.475,313.479C504.475,315.778 506.342,317.645 508.641,317.645C510.388,317.645 510.66,319.054 511.132,320.328C511.977,322.609 512.768,325.082 514.206,327.095C514.543,327.566 515.215,328.25 516.205,328.857C517.536,329.674 519.638,330.499 521.203,330.673C524.037,330.988 525.929,329.627 526.748,327.887C527.727,325.806 526.833,323.321 524.752,322.342C523.728,321.86 522.607,321.832 521.615,322.177Z" style="fill:rgb(21,12,102);"/>
        </g>
        <g transform="matrix(1,0,0,1,-15,0)">
            <path d="M523.439,299.294C524.154,299.772 524.588,300.516 525.02,301.266C525.559,302.2 526.034,303.194 526.547,304.148C527.793,306.464 529.295,308.532 531.506,309.876C533.471,311.07 536.036,310.445 537.23,308.48C538.425,306.515 537.799,303.949 535.834,302.755C535.033,302.268 534.581,301.445 534.116,300.62C533.576,299.661 533.092,298.645 532.559,297.673C531.284,295.344 529.72,293.277 527.399,291.95C525.537,290.886 522.724,290.994 520.65,290.994C518.35,290.994 516.483,292.861 516.483,295.16C516.483,297.46 518.35,299.327 520.65,299.327C521.407,299.327 523.077,299.3 523.439,299.294Z" style="fill:rgb(21,12,102);"/>
        </g>
        <g transform="matrix(1,0,0,1,-15,0)">
            <path d="M523.223,278.285L526.031,278.108C526.991,278.399 527.764,279.267 528.607,280.069C530.312,281.691 532.001,283.423 533.772,284.486C535.016,285.232 537.73,286.173 539.681,285.977C541.58,285.787 543.052,284.866 543.952,283.347C545.125,281.369 544.47,278.811 542.492,277.638C541.221,276.885 539.71,276.886 538.482,277.509C538.309,277.452 538.141,277.389 538.059,277.34C536.415,276.353 534.949,274.519 533.339,273.102C531.577,271.552 529.682,270.375 527.66,269.925C526.685,269.708 521.577,269.774 519.572,270.628C517.21,271.634 516.483,273.488 516.483,275.01C516.483,277.31 518.35,279.177 520.65,279.177C521.621,279.177 522.515,278.844 523.223,278.285ZM524.765,275.666L524.75,275.749L524.761,275.689L524.765,275.666ZM524.792,275.459L524.774,275.606L524.786,275.521L524.792,275.459ZM524.809,275.255L524.797,275.413L524.803,275.352L524.809,275.255ZM524.812,275.21C524.815,275.144 524.817,275.077 524.817,275.01L524.812,275.21Z" style="fill:rgb(21,12,102);"/>
        </g>
        <g transform="matrix(1,0,0,1,-15,0)">
            <path d="M458.381,358.861C458.59,358.887 460.338,359.099 461.388,359.131C462.018,359.15 462.569,359.1 462.912,358.985C469.963,356.635 475.664,354.047 480.527,347.969C484.43,343.09 486.079,336.456 488.669,330.846C492.081,323.452 496.026,315.363 501.387,308.877C506.634,302.529 513.246,297.722 522.1,296.738C525.969,296.308 529.319,297.331 532.449,298.942C535.723,300.627 538.761,302.948 541.875,305.024C548.678,309.559 554.263,316.352 561.544,320.206C575.075,327.37 592.634,331.759 604.594,319.8C605,319.393 605,318.733 604.594,318.327C604.187,317.92 603.527,317.92 603.121,318.327C591.842,329.606 575.28,325.121 562.518,318.365C555.299,314.543 549.776,307.787 543.031,303.29C536.537,298.961 530.308,293.73 521.87,294.667C512.44,295.715 505.37,300.789 499.781,307.55C494.307,314.173 490.262,322.422 486.777,329.973C484.256,335.435 482.7,341.917 478.9,346.667C474.313,352.401 468.904,354.792 462.253,357.009C462.027,357.084 461.635,357.061 461.204,357.038C460.333,356.992 459.339,356.854 458.781,356.801C458.244,356.75 457.885,356.845 457.79,356.891C457.273,357.142 457.056,357.765 457.307,358.283C457.508,358.697 457.948,358.919 458.381,358.861Z" style="fill:rgb(21,12,102);"/>
        </g>
        <g transform="matrix(1,0,0,1,-15,0)">
            <path d="M627.273,260.723C627.259,260.641 627.154,260.028 627.117,259.628C627.037,258.752 626.887,257.844 626.527,257.303C624.443,254.177 620.011,250.747 616.423,249.551C613.39,248.54 609.264,249.385 606.19,249.726C602.386,250.149 597.746,250.539 594.27,252.277C591.314,253.755 589.279,256.305 587.255,258.779C581.369,265.973 575.228,273.63 574.342,283.372C573.465,293.02 576.838,299.635 579.498,308.678C581.297,314.795 583.183,321.411 586.501,326.941C588.164,329.714 593.225,333.548 596.495,337.47C597.493,338.667 598.317,339.869 598.77,341.055C599.161,342.078 599.269,343.081 598.885,344.039C598.672,344.573 598.932,345.179 599.466,345.393C600,345.606 600.606,345.346 600.82,344.813C601.907,342.094 600.534,339.062 598.095,336.136C594.897,332.3 589.914,328.581 588.287,325.869C585.059,320.488 583.247,314.042 581.496,308.09C578.916,299.318 575.567,292.918 576.417,283.561C577.264,274.245 583.239,266.977 588.867,260.098C590.707,257.849 592.514,255.484 595.201,254.141C598.469,252.507 602.844,252.194 606.42,251.797C609.228,251.485 612.994,250.604 615.764,251.527C618.971,252.596 622.931,255.665 624.794,258.459C624.893,258.607 624.921,258.826 624.957,259.058C625.017,259.439 625.043,259.854 625.082,260.234C625.162,261.025 625.36,261.692 625.651,262.028C626.027,262.463 626.686,262.511 627.12,262.135C627.536,261.775 627.598,261.157 627.273,260.723Z" style="fill:rgb(21,12,102);"/>
        </g>
        <g transform="matrix(1,0,0,1,-15,0)">
            <path d="M611.672,375.006C612.026,378.317 613.752,381.415 614.405,384.676C616.373,394.52 615.096,404.305 611.774,413.715C610.843,416.353 609.815,420.203 607.793,422.225C607.386,422.631 607.386,423.291 607.793,423.698C608.199,424.104 608.859,424.104 609.266,423.698C611.485,421.479 612.717,417.303 613.739,414.409C617.186,404.642 618.491,394.484 616.448,384.268C615.808,381.067 614.091,378.034 613.744,374.784C613.682,374.213 613.169,373.798 612.597,373.859C612.025,373.92 611.611,374.434 611.672,375.006Z" style="fill:rgb(21,12,102);"/>
        </g>
        <g transform="matrix(4.58933,0,0,4.42754,-3.01597e-13,-551.242)">
            <path d="M85,153.686C85,152.203 83.84,151 82.408,151C68.16,151 0,151 0,151L0,174L82.408,174C83.84,174 85,172.797 85,171.314C85,166.887 85,158.113 85,153.686Z" style="fill:rgb(21,12,102);fill-opacity:0.8;"/>
        </g>
        <g transform="matrix(1,0,0,1,17.6543,188.416)">
            <text x="0px" y="0px" style="font-family:'AvenirNext-MediumItalic', 'Avenir Next', sans-serif;font-weight:500;font-style:italic;font-size:75px;fill:white;stroke:rgb(21,12,102);stroke-width:1px;stroke-linecap:butt;stroke-miterlimit:2;">T<tspan x="32.925px 74.85px " y="0px 0px ">ea</tspan>mwork</text>
        </g>
    </g>
</svg>
