<?xml version="1.0" encoding="UTF-8" standalone="no"?>
<!DOCTYPE svg PUBLIC "-//W3C//DTD SVG 1.1//EN" "http://www.w3.org/Graphics/SVG/1.1/DTD/svg11.dtd">
<svg width="100%" height="100%" viewBox="0 0 834 834" version="1.1" xmlns="http://www.w3.org/2000/svg" xmlns:xlink="http://www.w3.org/1999/xlink" xml:space="preserve" xmlns:serif="http://www.serif.com/" style="fill-rule:evenodd;clip-rule:evenodd;stroke-linecap:round;stroke-linejoin:round;stroke-miterlimit:1.5;">
    <g transform="matrix(1.00131,0,0,0.998737,-0.227333,-3.19225)">
        <path d="M829.678,175.905L829.678,665.877C829.678,757.286 755.656,831.499 664.481,831.499L168.301,831.499C77.127,831.499 3.105,757.286 3.105,665.877L3.105,175.905C3.105,84.496 77.127,10.283 168.301,10.283L664.481,10.283C755.656,10.283 829.678,84.496 829.678,175.905Z" style="fill:rgb(243,243,243);"/>
    </g>
    <g id="Coding-Smell" serif:id="Coding Smell">
        <g transform="matrix(1,0,0,1,-29,-24)">
            <path d="M702.919,259.63L660.432,254.217L545.679,456.779L344.406,448.158L333.064,493.738L572.457,494.762L702.919,259.63Z" style="fill:rgb(21,12,102);stroke:rgb(21,12,102);stroke-width:8.33px;"/>
        </g>
        <g transform="matrix(1,0,0,1,-19.7767,-45.6452)">
            <path d="M800.537,494.762L258.402,494.762L141.269,612.694L778.878,617.117L800.537,494.762Z" style="fill:none;stroke:rgb(21,12,102);stroke-width:8.33px;"/>
        </g>
        <g transform="matrix(1,0,0,1,-29,-24)">
            <path d="M407.988,433.061C416.132,430.582 421.149,422.53 422.954,412.506C425.428,398.768 421.876,381.64 415.147,373.95C404.146,361.378 387.453,355.827 371.968,349.281C358.176,343.45 345.332,336.822 340.204,321.438C338.936,317.635 339.782,313.819 340.782,310.001C342.078,305.046 343.712,300.081 343.712,295.169C343.712,292.869 341.845,291.002 339.545,291.002C337.245,291.002 335.378,292.869 335.378,295.169C335.378,299.392 333.835,303.631 332.72,307.891C331.307,313.288 330.506,318.697 332.298,324.073C338.256,341.946 352.7,350.183 368.723,356.956C383.052,363.014 398.696,367.803 408.876,379.437C414.372,385.719 416.773,399.807 414.752,411.029C413.56,417.651 410.942,423.451 405.561,425.089C403.361,425.758 402.119,428.088 402.788,430.288C403.458,432.488 405.788,433.73 407.988,433.061Z" style="fill:rgb(21,12,102);"/>
        </g>
        <g transform="matrix(1,0,0,1,-29,-24)">
            <path d="M450.855,260.179C451.001,261.247 451.489,264.856 451.489,265.524C451.489,270.853 451.277,275.991 450.321,281.248C449.118,287.868 445.133,293.735 442.079,299.854C438.392,307.239 435.904,314.905 438.474,323.9C441.13,333.196 447.204,339.123 454.445,343.899C460.816,348.1 468.128,351.352 474.204,355.771C486.823,364.948 489.62,380.151 488.155,394.807C487.772,398.638 486.967,402.684 485.539,406.201C484.324,409.194 482.7,411.82 480.312,413.29C478.354,414.495 477.742,417.064 478.948,419.022C480.153,420.981 482.721,421.592 484.68,420.387C491.816,415.995 495.472,405.38 496.447,395.637C498.205,378.055 494.243,360.04 479.105,349.031C472.929,344.539 465.509,341.213 459.033,336.942C453.428,333.246 448.542,328.806 446.486,321.611C444.553,314.844 446.762,309.131 449.535,303.575C452.941,296.753 457.178,290.12 458.52,282.739C459.567,276.983 459.822,271.359 459.822,265.524C459.822,264.319 458.944,257.93 458.783,257.474C457.953,255.135 456.106,254.831 455.522,254.735C454.295,254.532 453.084,254.783 451.992,255.805C451.781,256.003 450.666,256.843 450.666,258.936C450.666,259.369 450.732,259.786 450.855,260.179ZM458.217,261.363C458.585,260.912 458.999,260.15 458.999,258.936C458.999,259.842 458.709,260.68 458.217,261.363Z" style="fill:rgb(21,12,102);"/>
        </g>
        <g transform="matrix(1,0,0,1,-29,-24)">
            <path d="M556.909,251.609C554.85,251.04 552.804,252.729 552.779,258.423L552.777,258.524L552.778,258.556L552.778,258.6C552.78,259.37 552.801,265.039 552.788,265.227C552.495,269.327 552.169,274.245 550.908,278.28C549.162,283.869 544.495,288.696 539.961,293.297C534.516,298.824 529.211,304.079 527.136,309.268C526.713,310.325 526.49,311.722 526.504,313.268C526.526,315.605 527.088,318.43 527.282,319.978C528.482,329.583 532.109,334.769 536.706,340.011C539.342,343.017 542.344,346.044 545.296,350.261C553.088,361.392 553.32,374.061 549.65,386.644C548.809,389.528 546.438,397.523 543.047,403.257C542.108,404.845 541.112,406.252 540.007,407.199C539.579,407.565 539.209,407.953 538.73,407.895C536.447,407.622 534.371,409.255 534.098,411.538C533.825,413.821 535.458,415.897 537.741,416.17C541.373,416.604 545.031,414.621 548.047,410.73C552.942,404.417 556.539,392.787 557.65,388.977C562.041,373.922 561.446,358.801 552.123,345.482C548.97,340.979 545.787,337.727 542.971,334.516C539.389,330.432 536.486,326.428 535.551,318.945C535.424,317.934 535.112,316.329 534.938,314.716C534.843,313.829 534.644,312.936 534.873,312.363C536.617,308.003 541.322,303.79 545.897,299.146C551.385,293.576 556.748,287.531 558.862,280.766C560.307,276.142 560.765,270.518 561.1,265.82C561.115,265.616 561.114,259.417 561.111,258.575L561.111,258.532L561.111,258.524L561.109,258.458C561.066,252.673 558.981,250.994 556.909,251.609Z" style="fill:rgb(21,12,102);"/>
        </g>
        <g transform="matrix(1,0,0,1,-29,-24)">
            <path d="M292,297C296.158,292.87 297.401,288.552 295,284" style="fill:none;stroke:rgb(21,12,102);stroke-width:8.33px;"/>
        </g>
        <g transform="matrix(0.558419,-0.829559,0.829559,0.558419,-124.366,341.255)">
            <path d="M292,297C297.019,292.25 297.816,287.938 295,284" style="fill:none;stroke:rgb(21,12,102);stroke-width:8.33px;"/>
        </g>
        <g transform="matrix(1,0,0,1,-29,-24)">
            <circle cx="191.547" cy="262.327" r="91.81" style="fill:rgb(21,12,102);stroke:rgb(21,12,102);stroke-width:8.33px;"/>
        </g>
        <g transform="matrix(1,0,0,1,-29,-24)">
            <path d="M338.293,545.853L303.586,478.465" style="fill:none;stroke:rgb(21,12,102);stroke-width:8.33px;"/>
        </g>
        <g transform="matrix(0.487644,-0.377494,0.523002,0.675611,-185.236,201.44)">
            <path d="M223.461,375.337L107.399,505.271L321.134,622.158L170.141,506.622L281.227,401.693L223.461,375.337Z" style="fill:rgb(21,12,102);stroke:rgb(21,12,102);stroke-width:11.18px;"/>
        </g>
        <g transform="matrix(0.501111,0,0,1,107.246,-24)">
            <path d="M283.357,274.123C283.357,274.123 317.038,279.269 320.973,265.881C324.908,252.492 277.925,216.137 273.1,220.817" style="fill:rgb(21,12,102);stroke:rgb(21,12,102);stroke-width:10.54px;"/>
        </g>
        <g transform="matrix(1,0,0,1,-29,-24)">
            <path d="M492.671,581.639L515.615,507.371L309.994,508.405L292.859,577.306L492.671,581.639Z" style="fill:none;stroke:rgb(21,12,102);stroke-width:8.33px;"/>
        </g>
        <g transform="matrix(1,0,0,1,-29,-24)">
            <path d="M473.949,528.214C472.509,529.072 470.587,528.98 468.637,528.935C466.051,528.876 463.415,528.842 461.382,530.061C460.915,530.342 460.769,530.719 460.755,531.083C460.747,531.312 460.8,531.569 460.972,531.832C461.103,532.032 461.363,532.289 461.765,532.543C463.112,533.393 466.717,534.702 468.76,535.894C468.943,536.001 469.141,536.142 469.31,536.271C469.146,536.362 468.964,536.457 468.791,536.536C466.614,537.532 462.671,538.847 460.54,540.165C459.863,540.584 459.348,541.019 459.043,541.433C458.714,541.881 458.583,542.337 458.612,542.774C458.643,543.241 458.852,543.729 459.379,544.177C460.178,544.856 461.093,545.262 462.064,545.506C459.198,546.148 456.397,547.024 453.688,548.379C453.343,548.551 450.697,550.447 449.569,551.935C449.159,552.477 448.936,553.002 448.901,553.414C448.855,553.947 449.027,554.394 449.436,554.741C449.946,555.176 450.891,555.606 452.027,555.966C451.356,556.08 450.718,556.23 450.304,556.416C449.277,556.879 448.849,557.492 448.718,558.054C448.575,558.665 448.753,559.348 449.301,560.014C449.996,560.858 451.405,561.765 452.774,562.545C453.215,562.796 453.708,563.084 454.151,563.345L454.022,563.375C451.929,563.834 448.936,564.253 448.271,564.443C447.718,564.601 447.397,565.178 447.555,565.731C447.713,566.284 448.29,566.604 448.843,566.446C449.685,566.206 454.267,565.599 456.003,565.003C456.529,564.822 456.877,564.592 457.04,564.416C457.347,564.084 457.408,563.728 457.351,563.403C457.308,563.154 457.08,562.706 456.502,562.301C455.516,561.611 453.02,560.452 451.534,559.276C451.286,559.079 451.07,558.885 450.91,558.69C450.873,558.645 450.833,558.583 450.802,558.531C450.887,558.47 451.029,558.375 451.16,558.316C451.926,557.97 453.65,557.825 454.467,557.787C454.485,557.786 457.879,557.786 457.879,557.786C459.746,557.786 461.605,558.097 463.472,558.097C464.523,558.097 464.634,557.201 464.639,557.107C464.651,556.92 464.649,556.298 463.92,556.046C463.726,555.979 462.297,555.786 461.745,555.712C460.84,555.591 459.917,555.6 459.023,555.414C458.135,555.229 455.011,554.718 452.714,553.999C452.088,553.802 451.526,553.604 451.127,553.384C451.265,553.181 451.475,552.888 451.671,552.681C452.731,551.563 454.373,550.365 454.62,550.242C459.442,547.831 464.578,547.03 469.834,546.279C470.892,546.128 470.939,545.283 470.934,545.151C470.925,544.921 470.848,544.394 470.181,544.177C469.86,544.072 467.557,543.975 466.667,543.899C465.596,543.808 464.441,543.807 463.332,543.637C462.409,543.496 461.515,543.239 460.772,542.626C460.847,542.539 460.958,542.419 461.057,542.339C461.532,541.956 462.225,541.578 463.016,541.2C465.681,539.927 469.381,538.714 470.756,537.861C471.533,537.38 471.784,536.787 471.784,536.414C471.784,536.065 471.66,535.678 471.351,535.295C471.1,534.983 470.69,534.642 470.155,534.304C468.543,533.285 465.627,532.153 463.817,531.28C465.275,530.887 466.949,530.98 468.589,531.018C471.225,531.078 473.781,531.01 475.605,529.604C476.238,529.116 476.39,528.577 476.345,528.093C476.307,527.679 476.082,527.226 475.608,526.817C475.132,526.406 474.323,525.985 473.42,525.59C472.279,525.09 470.972,524.616 470.229,524.162C467.765,522.656 464.899,520.638 461.827,520.936C461.255,520.991 460.836,521.501 460.891,522.073C460.946,522.645 461.456,523.065 462.028,523.009C463.261,522.89 464.44,523.277 465.564,523.822C466.831,524.436 468.027,525.258 469.143,525.939C470.085,526.515 471.87,527.14 473.206,527.782C473.451,527.9 473.731,528.072 473.949,528.214Z" style="fill:rgb(21,12,102);fill-opacity:0.5;"/>
        </g>
        <g transform="matrix(1,0,0,1,-29,-24)">
            <path d="M438.279,525.647C438.326,525.636 438.502,525.597 438.624,525.594C438.885,525.586 439.184,525.618 439.507,525.674C441.744,526.062 444.921,527.549 445.654,527.869C445.833,527.948 446.117,528.088 446.422,528.244C444.737,528.426 442.703,528.162 440.696,528.038C437.45,527.837 434.288,527.991 432.301,529.891C431.799,530.37 431.602,530.864 431.573,531.327C431.544,531.805 431.696,532.287 432.052,532.749C432.668,533.55 434.122,534.358 435.671,535.085C436.737,535.586 437.84,536.066 438.623,536.535C438.77,536.622 438.903,536.709 439.019,536.795C438.958,536.829 438.891,536.863 438.821,536.898C438.465,537.078 438.028,537.241 437.548,537.4C435.904,537.946 433.817,538.436 432.434,539.109C430.943,539.836 430.213,540.87 430.446,542.034C430.495,542.283 430.614,542.546 430.822,542.802C431.088,543.129 431.552,543.483 432.14,543.811C432.717,544.133 433.503,544.491 434.244,544.807C433.885,544.938 433.521,545.076 433.181,545.212C431.941,545.71 430.77,546.303 430.228,546.82C429.77,547.256 429.615,547.727 429.637,548.12C429.656,548.477 429.799,548.839 430.179,549.156C430.596,549.503 431.146,549.75 431.78,549.919C432.521,550.118 433.395,550.215 434.232,550.354C434.796,550.447 435.342,550.555 435.784,550.77C435.92,550.836 436.044,550.912 436.147,551.01C435.945,551.126 435.667,551.276 435.421,551.376C433.739,552.06 431.081,552.706 429.417,553.364C428.439,553.751 427.758,554.215 427.493,554.613C427.214,555.032 427.16,555.421 427.215,555.768C427.302,556.314 427.8,556.907 428.742,557.297C429.731,557.707 431.346,558.026 432.478,558.591C432.695,558.699 432.891,558.815 433.044,558.952C433.135,559.034 433.222,559.114 433.222,559.232C433.223,559.86 432.857,560.332 432.356,560.755C431.664,561.338 430.721,561.81 429.74,562.273C428.409,562.9 427.009,563.501 425.927,564.222C425.065,564.797 424.393,565.457 424.01,566.222C423.583,567.077 423.9,567.591 424.14,567.835C424.358,568.058 424.709,568.241 425.206,568.187C425.579,568.147 426.217,567.881 426.775,567.559C427.331,567.238 427.801,566.869 427.909,566.743C428.232,566.366 428.237,565.822 427.95,565.441C429.194,564.768 430.668,564.187 431.923,563.512C433.899,562.45 435.309,561.099 435.305,559.229C435.304,558.4 434.89,557.715 434.157,557.176C433.198,556.472 431.558,556.039 430.267,555.629C430.099,555.576 429.937,555.523 429.788,555.468C430.107,555.323 430.489,555.18 430.908,555.036C432.563,554.467 434.747,553.899 436.207,553.305C437.183,552.908 437.873,552.433 438.154,552.011C438.44,551.582 438.494,551.14 438.346,550.697C437.929,549.444 436.824,548.793 435.425,548.465C434.647,548.282 433.776,548.192 432.98,548.05C432.749,548.009 432.525,547.968 432.316,547.915C432.483,547.814 432.663,547.714 432.832,547.633C434.71,546.739 437.455,545.911 437.577,545.841C437.923,545.643 438.057,545.365 438.106,545.102C438.152,544.852 438.16,544.36 437.612,543.975C437.218,543.697 435.309,543.04 433.785,542.314C433.298,542.082 432.702,541.673 432.504,541.533C432.542,541.47 432.631,541.427 432.708,541.365C433.091,541.061 433.663,540.818 434.308,540.585C435.94,539.997 437.997,539.534 439.344,538.952C440.127,538.613 440.705,538.204 441.013,537.778C441.244,537.457 441.333,537.129 441.326,536.804C441.319,536.412 441.161,535.994 440.797,535.595C440.111,534.845 438.304,534.02 436.557,533.2C435.902,532.892 435.26,532.579 434.717,532.256C434.488,532.121 434.278,531.984 434.096,531.845C433.943,531.728 433.774,531.54 433.694,531.448C433.709,531.43 433.726,531.411 433.741,531.397C434.486,530.684 435.467,530.344 436.556,530.178C437.799,529.989 439.177,530.031 440.567,530.117C443.679,530.31 446.844,530.66 448.972,529.735C449.439,529.532 449.642,529.227 449.739,528.96C449.835,528.693 449.842,528.407 449.732,528.106C449.627,527.824 449.318,527.436 448.805,527.104C448.139,526.672 447.057,526.209 446.489,525.961C445.7,525.616 442.271,524.039 439.862,523.622C439.113,523.492 438.445,523.474 437.934,523.582C437.403,523.693 436.998,523.934 436.719,524.267C436.349,524.707 436.406,525.365 436.847,525.734C437.273,526.092 437.903,526.05 438.279,525.647Z" style="fill:rgb(21,12,102);fill-opacity:0.5;"/>
        </g>
        <g transform="matrix(1,0,0,1,-29,-24)">
            <path d="M404.69,523.608C403.18,523.923 401.659,524.35 400.911,524.916C400.458,525.261 400.199,525.667 400.106,526.082C400.003,526.542 400.072,527.06 400.484,527.608C400.888,528.148 401.772,528.753 402.885,529.297C405.095,530.375 408.243,531.344 409.066,531.628C410.049,531.967 411.712,531.922 413.051,532.008C413.267,532.022 413.529,532.065 413.745,532.106C413.581,532.189 413.386,532.246 413.17,532.293C411.995,532.548 410.318,532.464 408.63,532.489C407.044,532.512 405.45,532.624 404.162,533.067C402.624,533.596 401.483,534.566 401.062,536.248C400.848,537.104 401.173,539.904 401.761,541.706C402.091,542.715 402.579,543.423 402.966,543.655C403.164,543.774 403.415,543.879 403.699,543.969C402.261,544.122 400.707,544.3 399.607,544.635C397.829,545.175 397.091,546.241 397.555,547.478C397.891,548.372 398.572,549.006 399.503,549.434C400.589,549.932 402.061,550.136 403.54,550.284C403.928,550.322 404.316,550.358 404.695,550.397C404.544,550.402 404.404,550.413 404.28,550.432C402.081,550.762 398.422,551.224 396.292,552.044C395.872,552.205 395.623,552.463 395.473,552.75C395.238,553.2 395.251,553.897 395.723,554.672C396.193,555.443 397.164,556.45 397.872,557.306C398.002,557.463 398.142,557.662 398.25,557.822C397.995,558.006 397.602,558.279 397.266,558.467C396.173,559.08 394.903,559.672 394.534,559.917C394.056,560.236 393.927,560.883 394.246,561.362C394.564,561.84 395.212,561.97 395.69,561.651C396.235,561.287 398.756,560.162 399.745,559.328C400.301,558.859 400.504,558.342 400.504,557.987C400.504,557.674 400.379,557.252 400.085,556.791C399.694,556.177 398.949,555.376 398.295,554.615C398.079,554.364 397.841,554.033 397.663,553.773C399.709,553.136 402.713,552.774 404.589,552.492C405.142,552.409 406.034,552.522 406.839,552.575C407.541,552.621 408.192,552.624 408.627,552.53C409.157,552.416 409.501,552.151 409.691,551.858C409.92,551.504 410.038,551.019 409.716,550.375C409.357,549.657 408.655,549.139 407.682,548.822C406.62,548.476 405.184,548.354 403.747,548.211C402.698,548.106 401.648,547.989 400.792,547.704C400.262,547.528 399.802,547.309 399.575,546.896C399.635,546.858 399.707,546.816 399.768,546.789C400.157,546.617 400.67,546.493 401.242,546.387C402.975,546.068 405.183,545.953 406.54,545.725C407.42,545.577 408.029,545.301 408.278,545.052C408.847,544.483 408.821,543.953 408.673,543.563C408.556,543.254 408.27,542.912 407.734,542.701C407.259,542.514 406.431,542.391 405.598,542.257C405.038,542.167 404.469,542.089 404.113,541.91C404.057,541.801 403.85,541.391 403.742,541.059C403.276,539.633 402.914,537.431 403.083,536.753C403.372,535.598 404.331,535.117 405.478,534.858C406.966,534.522 408.767,534.571 410.392,534.563C411.881,534.555 413.24,534.492 414.186,534.172C415.114,533.859 415.725,533.311 415.987,532.527C416.154,532.025 416.119,531.612 415.989,531.273C415.805,530.796 415.395,530.405 414.738,530.184C414.069,529.959 413.026,529.911 411.969,529.881C411.144,529.858 410.306,529.852 409.745,529.659C408.953,529.386 405.923,528.461 403.799,527.424C403.165,527.115 402.612,526.821 402.295,526.518C402.446,526.426 402.659,526.307 402.845,526.235C404.421,525.626 407.009,525.319 408.256,525.092C408.751,525.001 409.098,524.894 409.244,524.817C409.53,524.667 409.667,524.466 409.74,524.319C409.866,524.066 409.883,523.813 409.814,523.562C409.762,523.369 409.649,523.133 409.362,522.941C408.974,522.683 408.132,522.37 407.028,522.063C404.797,521.442 401.373,520.727 399.072,520.02C398.453,519.83 397.921,519.643 397.534,519.456C397.443,519.413 397.338,519.35 397.273,519.309C397.094,518.921 396.686,518.667 396.236,518.706C395.663,518.756 395.239,519.262 395.288,519.834C395.313,520.116 395.429,520.421 395.704,520.71C395.956,520.974 396.443,521.276 397.125,521.55C398.841,522.238 402.069,522.957 404.69,523.608Z" style="fill:rgb(21,12,102);fill-opacity:0.5;"/>
        </g>
        <g transform="matrix(1,0,0,1,-29,-24)">
            <path d="M371.98,522.688C370.659,522.722 369.733,522.905 369.118,523.17C368.429,523.467 368.032,523.884 367.816,524.338C367.487,525.031 367.571,525.921 368.115,526.904C368.919,528.355 370.814,530.187 372.289,531.859C373.081,532.757 373.776,533.563 373.888,534.233C373.917,534.41 373.794,534.549 373.663,534.701C373.475,534.921 373.225,535.129 372.946,535.336C372.078,535.981 370.957,536.593 370.076,537.257C368.954,538.102 368.229,539.082 368.226,540.142C368.225,540.654 368.376,541.205 368.768,541.789C370.249,543.993 373.067,544.626 375.961,544.987C377.216,545.144 378.476,545.263 379.593,545.519C379.705,545.544 379.816,545.571 379.925,545.599C378.639,545.992 377.164,546.482 376.327,546.913C375.598,547.288 375.238,547.774 375.154,548.078C374.881,549.068 375.284,549.939 376.262,550.665C377.163,551.333 378.667,551.901 380.026,552.535C380.686,552.843 381.308,553.164 381.756,553.551C382.008,553.768 382.217,553.988 382.208,554.287C382.199,554.626 381.977,554.989 381.585,555.441C378.905,558.533 376.489,561.73 375.217,563.672C374.57,564.661 374.212,565.396 374.147,565.71C374.058,566.146 374.189,566.445 374.311,566.625C374.506,566.914 374.795,567.108 375.226,567.108C375.801,567.108 376.268,566.641 376.268,566.066C376.268,566.043 376.267,566.021 376.265,565.998C376.397,565.752 376.667,565.261 376.96,564.813C378.197,562.924 380.552,559.815 383.16,556.805C384.285,555.507 384.447,554.413 384.185,553.525C384.021,552.972 383.674,552.469 383.172,552.022C382.591,551.505 381.782,551.055 380.907,550.647C379.861,550.159 378.716,549.728 377.883,549.239C377.639,549.096 377.426,548.953 377.272,548.793C377.54,548.659 377.963,548.456 378.325,548.321C379.95,547.711 382.193,547.108 382.812,546.924C383.144,546.826 383.314,546.7 383.34,546.679C383.703,546.384 383.73,546.045 383.725,545.841C383.718,545.583 383.629,545.341 383.42,545.133C382.74,544.453 381.84,543.992 380.794,543.68C379.442,543.277 377.827,543.12 376.219,542.92C375.006,542.769 373.797,542.592 372.738,542.215C371.827,541.892 371.031,541.421 370.497,540.627C370.381,540.454 370.309,540.299 370.31,540.147C370.31,539.899 370.481,539.696 370.68,539.485C371.072,539.069 371.628,538.691 372.209,538.315C373.266,537.631 374.394,536.958 375.085,536.234C375.768,535.518 376.083,534.731 375.943,533.89C375.809,533.089 375.201,532.085 374.328,531.035C373.238,529.726 371.742,528.281 370.7,526.985C370.326,526.52 370.013,526.081 369.828,525.678C369.747,525.503 369.651,525.36 369.7,525.227C369.744,525.107 369.907,525.087 370.111,525.02C370.637,524.847 371.398,524.765 372.445,524.765C373.277,524.765 374.129,524.99 374.971,525.108C376.071,525.263 377.152,525.252 378.178,524.739C378.666,524.495 378.792,524.151 378.84,523.941C378.92,523.589 378.858,523.226 378.528,522.905C378.413,522.794 378.192,522.644 377.861,522.549C377.44,522.428 376.582,522.345 376.203,522.207C375.801,522.061 375.017,521.903 374.309,521.664C374.125,521.602 373.892,521.488 373.727,521.401C374.022,520.969 373.952,520.374 373.546,520.025C373.111,519.65 372.452,519.699 372.077,520.135C371.519,520.783 371.439,521.368 371.537,521.844C371.599,522.145 371.747,522.432 371.98,522.688ZM375.284,565.026C375.422,565.034 375.552,565.068 375.671,565.124C375.56,565.068 375.432,565.033 375.284,565.026Z" style="fill:rgb(21,12,102);fill-opacity:0.5;"/>
        </g>
        <g transform="matrix(1,0,0,1,-29,-24)">
            <path d="M339.809,523.311C338.326,523.472 336.333,523.77 334.824,524.401C332.768,525.26 331.561,526.699 332.294,528.81C332.559,529.574 333.363,530.413 334.477,531.176C335.361,531.782 336.604,532.497 337.729,533.114C336.809,533.031 335.83,532.949 334.962,532.938C333.61,532.919 332.48,533.115 331.923,533.502C331.535,533.771 331.306,534.121 331.222,534.533C331.151,534.872 331.178,535.281 331.407,535.756C331.782,536.534 332.538,537.326 333.508,538.092C334.758,539.079 336.375,540.058 337.736,541.03C338.419,541.518 339.034,542 339.477,542.486C339.742,542.777 339.96,543.043 339.998,543.329C339.919,543.404 339.654,543.651 339.444,543.784C338.847,544.165 338.094,544.519 337.482,544.885C336.931,545.215 336.48,545.573 336.216,545.933C335.754,546.563 335.666,547.233 336.12,547.97C336.445,548.496 337.126,549.127 337.967,549.733C339.662,550.955 342.012,552.161 342.417,552.379C343.242,552.824 344.803,553.157 346.056,553.514C345.734,553.563 345.386,553.594 345.031,553.614C343.283,553.714 341.361,553.539 341.086,553.529C339.827,553.48 338.578,553.217 337.318,553.217C336.883,553.217 336.07,553.281 335.535,553.43C335.061,553.561 334.734,553.801 334.578,554.006C334.41,554.226 334.334,554.467 334.332,554.716C334.329,554.982 334.402,555.303 334.717,555.617C334.794,555.694 335.17,555.942 335.714,556.24L336.136,556.469C334.078,556.165 331.594,555.756 329.999,555.841C328.822,555.904 328.02,556.31 327.684,556.827C327.381,557.291 327.267,557.926 327.686,558.764C327.943,559.278 328.569,559.487 329.083,559.23C329.547,558.998 329.762,558.466 329.611,557.987C329.708,557.965 329.817,557.944 329.911,557.936C330.327,557.897 330.827,557.908 331.374,557.946C333.836,558.118 337.153,558.824 338.698,558.848C339.421,558.859 339.913,558.675 340.144,558.489C340.627,558.102 340.908,557.296 340.026,556.472C339.691,556.159 339.051,555.75 338.376,555.354C339.253,555.433 340.127,555.577 341.006,555.61C341.347,555.623 344.063,555.862 346.09,555.612C347.194,555.476 348.114,555.153 348.59,554.713C349.178,554.168 349.236,553.628 349.127,553.187C349.036,552.82 348.763,552.425 348.238,552.121C347.671,551.792 346.657,551.51 345.619,551.243C344.779,551.027 343.92,550.822 343.404,550.545C343.074,550.367 341.38,549.5 339.886,548.523C339.127,548.026 338.407,547.521 338.032,547.067C338.271,546.894 338.78,546.536 339.168,546.327C340.081,545.835 341.04,545.312 341.538,544.746C341.916,544.317 342.098,543.848 342.088,543.361C342.074,542.735 341.822,542.097 341.343,541.471C340.801,540.764 339.941,540.045 338.947,539.335C337.612,538.382 336.025,537.425 334.799,536.457C334.232,536.009 333.742,535.574 333.442,535.125C333.563,535.097 333.7,535.07 333.815,535.058C334.505,534.988 335.384,535.02 336.288,535.08C338.031,535.196 339.859,535.412 340.798,535.354C341.373,535.319 341.761,535.145 341.957,534.985C342.264,534.733 342.399,534.418 342.399,534.062C342.399,533.824 342.329,533.533 342.088,533.239C341.924,533.038 341.597,532.772 341.128,532.491C339.996,531.813 337.824,530.835 336.133,529.771C335.624,529.451 335.162,529.125 334.8,528.795C334.548,528.565 334.341,528.353 334.262,528.127C333.936,527.187 334.712,526.705 335.627,526.323C337.752,525.435 340.932,525.309 341.834,525.21C342.254,525.165 342.494,525.035 342.561,524.989C342.742,524.866 342.844,524.722 342.907,524.596C343.068,524.279 343.071,523.957 342.899,523.632C341.382,520.761 338.636,520.726 336.52,520.798C336.173,520.81 335.85,520.822 335.564,520.811C335.48,520.808 335.377,520.794 335.291,520.781C335.332,520.573 335.419,520.195 335.561,519.852C335.781,519.321 335.529,518.711 334.998,518.49C334.466,518.27 333.857,518.523 333.636,519.054C333.033,520.511 333.134,521.394 333.422,521.901C333.769,522.511 334.488,522.862 335.535,522.894C336.239,522.917 337.15,522.819 338.086,522.878C338.668,522.916 339.268,523.021 339.809,523.311Z" style="fill:rgb(21,12,102);fill-opacity:0.5;"/>
        </g>
        <g transform="matrix(1,0,0,1,-29,-24)">
            <path d="M355.039,567.155L448.769,524.551" style="fill:none;stroke:rgb(21,12,102);stroke-width:8.33px;"/>
        </g>
        <g transform="matrix(1,0,0,1,-29,-24)">
            <path d="M456.228,567.155L368.658,524.551" style="fill:none;stroke:rgb(21,12,102);stroke-width:8.33px;"/>
        </g>
        <g transform="matrix(1,0,0,1,185.86,691.275)">
            <path d="M51.75,-8.55C50.85,-7.2 49.762,-5.925 48.487,-4.725C47.213,-3.525 45.737,-2.475 44.063,-1.575C42.388,-0.675 40.538,0.038 38.512,0.563C36.488,1.088 34.275,1.35 31.875,1.35C27.875,1.35 24.175,0.65 20.775,-0.75C17.375,-2.15 14.45,-4.087 12,-6.562C9.55,-9.037 7.638,-11.975 6.263,-15.375C4.888,-18.775 4.2,-22.5 4.2,-26.55C4.2,-30.6 4.9,-34.325 6.3,-37.725C7.7,-41.125 9.638,-44.062 12.113,-46.537C14.588,-49.012 17.513,-50.95 20.888,-52.35C24.263,-53.75 27.925,-54.45 31.875,-54.45C33.825,-54.45 35.738,-54.25 37.613,-53.85C39.488,-53.45 41.25,-52.887 42.9,-52.162C44.55,-51.438 46.05,-50.562 47.4,-49.537C48.75,-48.512 49.875,-47.35 50.775,-46.05L46.275,-42.75C45.725,-43.6 44.987,-44.45 44.063,-45.3C43.138,-46.15 42.05,-46.9 40.8,-47.55C39.55,-48.2 38.188,-48.725 36.713,-49.125C35.238,-49.525 33.65,-49.725 31.95,-49.725C28.5,-49.725 25.412,-49.1 22.688,-47.85C19.962,-46.6 17.65,-44.912 15.75,-42.787C13.85,-40.662 12.4,-38.2 11.4,-35.4C10.4,-32.6 9.9,-29.65 9.9,-26.55C9.9,-23.45 10.413,-20.5 11.438,-17.7C12.463,-14.9 13.925,-12.437 15.825,-10.312C17.725,-8.187 20.038,-6.5 22.763,-5.25C25.487,-4 28.55,-3.375 31.95,-3.375C35,-3.375 37.9,-4 40.65,-5.25C43.4,-6.5 45.7,-8.5 47.55,-11.25L51.75,-8.55Z" style="fill:rgb(21,12,102);fill-rule:nonzero;stroke:rgb(21,12,102);stroke-width:1px;stroke-linecap:butt;stroke-miterlimit:2;"/>
            <path d="M94.725,-17.55C94.725,-14.9 94.263,-12.45 93.338,-10.2C92.412,-7.95 91.125,-6 89.475,-4.35C87.825,-2.7 85.85,-1.412 83.55,-0.487C81.25,0.438 78.725,0.9 75.975,0.9C73.275,0.9 70.775,0.438 68.475,-0.487C66.175,-1.412 64.2,-2.7 62.55,-4.35C60.9,-6 59.613,-7.95 58.688,-10.2C57.763,-12.45 57.3,-14.9 57.3,-17.55C57.3,-20.2 57.763,-22.65 58.688,-24.9C59.613,-27.15 60.9,-29.1 62.55,-30.75C64.2,-32.4 66.175,-33.687 68.475,-34.613C70.775,-35.537 73.275,-36 75.975,-36C78.725,-36 81.25,-35.537 83.55,-34.613C85.85,-33.687 87.825,-32.4 89.475,-30.75C91.125,-29.1 92.412,-27.15 93.338,-24.9C94.263,-22.65 94.725,-20.2 94.725,-17.55ZM89.325,-17.55C89.325,-19.5 89.013,-21.337 88.388,-23.062C87.763,-24.787 86.875,-26.287 85.725,-27.562C84.575,-28.837 83.175,-29.85 81.525,-30.6C79.875,-31.35 78.025,-31.725 75.975,-31.725C73.925,-31.725 72.088,-31.35 70.463,-30.6C68.838,-29.85 67.45,-28.837 66.3,-27.562C65.15,-26.287 64.263,-24.787 63.638,-23.062C63.013,-21.337 62.7,-19.5 62.7,-17.55C62.7,-15.6 63.013,-13.762 63.638,-12.037C64.263,-10.312 65.15,-8.812 66.3,-7.537C67.45,-6.262 68.838,-5.262 70.463,-4.537C72.088,-3.812 73.925,-3.45 75.975,-3.45C78.025,-3.45 79.875,-3.812 81.525,-4.537C83.175,-5.262 84.575,-6.262 85.725,-7.537C86.875,-8.812 87.763,-10.312 88.388,-12.037C89.013,-13.762 89.325,-15.6 89.325,-17.55Z" style="fill:rgb(21,12,102);fill-rule:nonzero;stroke:rgb(21,12,102);stroke-width:1px;stroke-linecap:butt;stroke-miterlimit:2;"/>
            <path d="M134.55,-5.925C133.05,-3.675 131.1,-1.975 128.7,-0.825C126.3,0.325 123.825,0.9 121.275,0.9C118.525,0.9 116.037,0.425 113.813,-0.525C111.587,-1.475 109.688,-2.775 108.113,-4.425C106.537,-6.075 105.313,-8.025 104.438,-10.275C103.563,-12.525 103.125,-14.95 103.125,-17.55C103.125,-20.15 103.563,-22.575 104.438,-24.825C105.313,-27.075 106.537,-29.025 108.113,-30.675C109.688,-32.325 111.587,-33.625 113.813,-34.575C116.037,-35.525 118.525,-36 121.275,-36C123.825,-36 126.3,-35.412 128.7,-34.238C131.1,-33.062 133.05,-31.325 134.55,-29.025L134.7,-29.025L134.7,-56.7L139.8,-56.7L139.8,0L134.7,0L134.7,-5.925L134.55,-5.925ZM108.525,-17.55C108.525,-15.6 108.825,-13.762 109.425,-12.037C110.025,-10.312 110.888,-8.812 112.013,-7.537C113.138,-6.262 114.525,-5.262 116.175,-4.537C117.825,-3.812 119.7,-3.45 121.8,-3.45C123.75,-3.45 125.55,-3.812 127.2,-4.537C128.85,-5.262 130.275,-6.25 131.475,-7.5C132.675,-8.75 133.613,-10.237 134.288,-11.962C134.963,-13.687 135.3,-15.55 135.3,-17.55C135.3,-19.55 134.963,-21.412 134.288,-23.137C133.613,-24.862 132.675,-26.362 131.475,-27.637C130.275,-28.912 128.85,-29.912 127.2,-30.637C125.55,-31.362 123.75,-31.725 121.8,-31.725C119.7,-31.725 117.825,-31.35 116.175,-30.6C114.525,-29.85 113.138,-28.837 112.013,-27.562C110.888,-26.287 110.025,-24.787 109.425,-23.062C108.825,-21.337 108.525,-19.5 108.525,-17.55Z" style="fill:rgb(21,12,102);fill-rule:nonzero;stroke:rgb(21,12,102);stroke-width:1px;stroke-linecap:butt;stroke-miterlimit:2;"/>
            <path d="M158.625,0L153.525,0L153.525,-35.1L158.625,-35.1L158.625,0ZM159.675,-48.6C159.675,-47.55 159.3,-46.688 158.55,-46.012C157.8,-45.337 156.975,-45 156.075,-45C155.175,-45 154.35,-45.337 153.6,-46.012C152.85,-46.688 152.475,-47.55 152.475,-48.6C152.475,-49.65 152.85,-50.513 153.6,-51.187C154.35,-51.862 155.175,-52.2 156.075,-52.2C156.975,-52.2 157.8,-51.862 158.55,-51.187C159.3,-50.513 159.675,-49.65 159.675,-48.6Z" style="fill:rgb(21,12,102);fill-rule:nonzero;stroke:rgb(21,12,102);stroke-width:1px;stroke-linecap:butt;stroke-miterlimit:2;"/>
            <path d="M176.775,-35.1C176.875,-34.15 176.95,-33.1 177,-31.95C177.05,-30.8 177.075,-29.85 177.075,-29.1L177.225,-29.1C178.225,-31.15 179.85,-32.812 182.1,-34.087C184.35,-35.362 186.725,-36 189.225,-36C193.675,-36 197.012,-34.675 199.237,-32.025C201.462,-29.375 202.575,-25.875 202.575,-21.525L202.575,0L197.475,0L197.475,-19.425C197.475,-21.275 197.325,-22.95 197.025,-24.45C196.725,-25.95 196.213,-27.237 195.487,-28.312C194.762,-29.387 193.788,-30.225 192.563,-30.825C191.337,-31.425 189.8,-31.725 187.95,-31.725C186.6,-31.725 185.288,-31.45 184.012,-30.9C182.737,-30.35 181.6,-29.512 180.6,-28.387C179.6,-27.262 178.8,-25.837 178.2,-24.112C177.6,-22.387 177.3,-20.35 177.3,-18L177.3,0L172.2,0L172.2,-27.375C172.2,-28.325 172.175,-29.55 172.125,-31.05C172.075,-32.55 172,-33.9 171.9,-35.1L176.775,-35.1Z" style="fill:rgb(21,12,102);fill-rule:nonzero;stroke:rgb(21,12,102);stroke-width:1px;stroke-linecap:butt;stroke-miterlimit:2;"/>
            <path d="M217.65,7.05C219.05,8.85 220.962,10.375 223.387,11.625C225.812,12.875 228.375,13.5 231.075,13.5C233.575,13.5 235.7,13.138 237.45,12.413C239.2,11.688 240.612,10.7 241.687,9.45C242.762,8.2 243.55,6.738 244.05,5.063C244.55,3.388 244.8,1.6 244.8,-0.3L244.8,-6.9L244.65,-6.9C243.3,-4.7 241.387,-3 238.912,-1.8C236.437,-0.6 233.925,0 231.375,0C228.625,0 226.137,-0.45 223.912,-1.35C221.687,-2.25 219.787,-3.487 218.212,-5.062C216.637,-6.637 215.412,-8.525 214.537,-10.725C213.662,-12.925 213.225,-15.3 213.225,-17.85C213.225,-20.35 213.662,-22.7 214.537,-24.9C215.412,-27.1 216.637,-29.025 218.212,-30.675C219.787,-32.325 221.687,-33.625 223.912,-34.575C226.137,-35.525 228.625,-36 231.375,-36C233.925,-36 236.425,-35.4 238.875,-34.2C241.325,-33 243.25,-31.275 244.65,-29.025L244.8,-29.025L244.8,-35.1L249.9,-35.1L249.9,-0.3C249.9,1.6 249.637,3.625 249.112,5.775C248.587,7.925 247.612,9.9 246.187,11.7C244.762,13.5 242.825,15 240.375,16.2C237.925,17.4 234.75,18 230.85,18C227.6,18 224.5,17.375 221.55,16.125C218.6,14.875 216.075,13.15 213.975,10.95L217.65,7.05ZM218.625,-18C218.625,-16.15 218.925,-14.4 219.525,-12.75C220.125,-11.1 220.987,-9.65 222.112,-8.4C223.237,-7.15 224.625,-6.162 226.275,-5.437C227.925,-4.712 229.8,-4.35 231.9,-4.35C233.85,-4.35 235.65,-4.675 237.3,-5.325C238.95,-5.975 240.375,-6.9 241.575,-8.1C242.775,-9.3 243.712,-10.737 244.387,-12.412C245.062,-14.087 245.4,-15.95 245.4,-18C245.4,-19.85 245.062,-21.6 244.387,-23.25C243.712,-24.9 242.775,-26.35 241.575,-27.6C240.375,-28.85 238.95,-29.85 237.3,-30.6C235.65,-31.35 233.85,-31.725 231.9,-31.725C229.8,-31.725 227.925,-31.35 226.275,-30.6C224.625,-29.85 223.237,-28.85 222.112,-27.6C220.987,-26.35 220.125,-24.9 219.525,-23.25C218.925,-21.6 218.625,-19.85 218.625,-18Z" style="fill:rgb(21,12,102);fill-rule:nonzero;stroke:rgb(21,12,102);stroke-width:1px;stroke-linecap:butt;stroke-miterlimit:2;"/>
            <path d="M307.95,-44.55C306.8,-46.15 305.325,-47.437 303.525,-48.412C301.725,-49.387 299.55,-49.875 297,-49.875C295.7,-49.875 294.375,-49.675 293.025,-49.275C291.675,-48.875 290.45,-48.262 289.35,-47.438C288.25,-46.612 287.362,-45.575 286.687,-44.325C286.012,-43.075 285.675,-41.6 285.675,-39.9C285.675,-38.2 286,-36.8 286.65,-35.7C287.3,-34.6 288.162,-33.662 289.237,-32.887C290.312,-32.112 291.537,-31.475 292.912,-30.975C294.287,-30.475 295.725,-29.975 297.225,-29.475C299.075,-28.875 300.937,-28.225 302.812,-27.525C304.687,-26.825 306.375,-25.912 307.875,-24.787C309.375,-23.662 310.6,-22.237 311.55,-20.512C312.5,-18.787 312.975,-16.6 312.975,-13.95C312.975,-11.3 312.462,-9.012 311.437,-7.087C310.412,-5.162 309.087,-3.575 307.462,-2.325C305.837,-1.075 303.987,-0.15 301.912,0.45C299.838,1.05 297.75,1.35 295.65,1.35C294.05,1.35 292.45,1.188 290.85,0.863C289.25,0.538 287.725,0.05 286.275,-0.6C284.825,-1.25 283.475,-2.075 282.225,-3.075C280.975,-4.075 279.875,-5.225 278.925,-6.525L283.575,-9.975C284.725,-8.075 286.338,-6.487 288.412,-5.212C290.487,-3.937 292.925,-3.3 295.725,-3.3C297.075,-3.3 298.45,-3.512 299.85,-3.937C301.25,-4.362 302.512,-5.012 303.637,-5.887C304.762,-6.762 305.687,-7.837 306.412,-9.112C307.137,-10.387 307.5,-11.875 307.5,-13.575C307.5,-15.425 307.137,-16.962 306.412,-18.187C305.687,-19.412 304.725,-20.437 303.525,-21.262C302.325,-22.087 300.95,-22.775 299.4,-23.325C297.85,-23.875 296.225,-24.425 294.525,-24.975C292.775,-25.525 291.05,-26.15 289.35,-26.85C287.65,-27.55 286.125,-28.462 284.775,-29.587C283.425,-30.712 282.338,-32.1 281.512,-33.75C280.687,-35.4 280.275,-37.425 280.275,-39.825C280.275,-42.375 280.787,-44.575 281.812,-46.425C282.838,-48.275 284.175,-49.8 285.825,-51C287.475,-52.2 289.3,-53.075 291.3,-53.625C293.3,-54.175 295.275,-54.45 297.225,-54.45C300.825,-54.45 303.9,-53.812 306.45,-52.537C309,-51.262 310.925,-49.75 312.225,-48L307.95,-44.55Z" style="fill:rgb(21,12,102);fill-rule:nonzero;stroke:rgb(21,12,102);stroke-width:1px;stroke-linecap:butt;stroke-miterlimit:2;"/>
            <path d="M329.25,-29.1C330.25,-31.15 331.787,-32.812 333.862,-34.087C335.937,-35.362 338.25,-36 340.8,-36C341.75,-36 342.737,-35.9 343.763,-35.7C344.787,-35.5 345.787,-35.112 346.763,-34.537C347.737,-33.963 348.638,-33.2 349.462,-32.25C350.287,-31.3 351,-30.075 351.6,-28.575C352.8,-30.975 354.437,-32.812 356.512,-34.087C358.587,-35.362 361.05,-36 363.9,-36C368.35,-36 371.687,-34.675 373.912,-32.025C376.138,-29.375 377.25,-25.875 377.25,-21.525L377.25,0L372.15,0L372.15,-19.425C372.15,-23.125 371.462,-26.1 370.087,-28.35C368.712,-30.6 366.375,-31.725 363.075,-31.725C361.225,-31.725 359.662,-31.35 358.388,-30.6C357.112,-29.85 356.087,-28.862 355.313,-27.637C354.537,-26.412 353.975,-25.025 353.625,-23.475C353.275,-21.925 353.1,-20.325 353.1,-18.675L353.1,0L348,0L348,-20.475C348,-22.175 347.875,-23.725 347.625,-25.125C347.375,-26.525 346.937,-27.712 346.312,-28.687C345.687,-29.662 344.825,-30.412 343.725,-30.937C342.625,-31.462 341.225,-31.725 339.525,-31.725C338.325,-31.725 337.112,-31.45 335.888,-30.9C334.662,-30.35 333.562,-29.512 332.587,-28.387C331.612,-27.262 330.825,-25.837 330.225,-24.112C329.625,-22.387 329.325,-20.35 329.325,-18L329.325,0L324.225,0L324.225,-27.375C324.225,-28.325 324.2,-29.55 324.15,-31.05C324.1,-32.55 324.025,-33.9 323.925,-35.1L328.8,-35.1C328.9,-34.15 328.975,-33.1 329.025,-31.95C329.075,-30.8 329.1,-29.85 329.1,-29.1L329.25,-29.1Z" style="fill:rgb(21,12,102);fill-rule:nonzero;stroke:rgb(21,12,102);stroke-width:1px;stroke-linecap:butt;stroke-miterlimit:2;"/>
            <path d="M417.225,-20.25C417.075,-23.55 416.012,-26.287 414.037,-28.462C412.062,-30.637 409.25,-31.725 405.6,-31.725C403.9,-31.725 402.325,-31.412 400.875,-30.787C399.425,-30.162 398.15,-29.312 397.05,-28.237C395.95,-27.162 395.075,-25.937 394.425,-24.562C393.775,-23.187 393.4,-21.75 393.3,-20.25L417.225,-20.25ZM422.4,-18.6L422.4,-17.475C422.4,-17.075 422.375,-16.65 422.325,-16.2L393.225,-16.2C393.275,-14.45 393.625,-12.8 394.275,-11.25C394.925,-9.7 395.825,-8.35 396.975,-7.2C398.125,-6.05 399.475,-5.137 401.025,-4.462C402.575,-3.787 404.25,-3.45 406.05,-3.45C408.7,-3.45 410.987,-4.062 412.912,-5.287C414.837,-6.512 416.3,-7.925 417.3,-9.525L421.125,-6.525C419.025,-3.875 416.712,-1.975 414.187,-0.825C411.662,0.325 408.95,0.9 406.05,0.9C403.45,0.9 401.037,0.438 398.812,-0.487C396.587,-1.412 394.675,-2.7 393.075,-4.35C391.475,-6 390.212,-7.95 389.287,-10.2C388.362,-12.45 387.9,-14.9 387.9,-17.55C387.9,-20.2 388.35,-22.65 389.25,-24.9C390.15,-27.15 391.4,-29.1 393,-30.75C394.6,-32.4 396.475,-33.687 398.625,-34.613C400.775,-35.537 403.1,-36 405.6,-36C408.35,-36 410.775,-35.537 412.875,-34.613C414.975,-33.687 416.725,-32.438 418.125,-30.862C419.525,-29.287 420.587,-27.45 421.312,-25.35C422.037,-23.25 422.4,-21 422.4,-18.6Z" style="fill:rgb(21,12,102);fill-rule:nonzero;stroke:rgb(21,12,102);stroke-width:1px;stroke-linecap:butt;stroke-miterlimit:2;"/>
            <rect x="433.5" y="-56.7" width="5.1" height="56.7" style="fill:rgb(21,12,102);fill-rule:nonzero;stroke:rgb(21,12,102);stroke-width:1px;stroke-linecap:butt;stroke-miterlimit:2;"/>
            <rect x="452.4" y="-56.7" width="5.1" height="56.7" style="fill:rgb(21,12,102);fill-rule:nonzero;stroke:rgb(21,12,102);stroke-width:1px;stroke-linecap:butt;stroke-miterlimit:2;"/>
        </g>
        <g transform="matrix(1,0,0,1,-259.79,44.075)">
            <path d="M455.15,697.65C455.15,700.55 455.45,703.25 456.05,705.75C456.65,708.25 457.5,710.5 458.6,712.5L456,713.9C454.733,711.867 453.725,709.425 452.975,706.575C452.225,703.725 451.85,700.75 451.85,697.65C451.85,694.883 452.158,692.183 452.775,689.55C453.392,686.917 454.233,684.383 455.3,681.95C456.367,679.517 457.617,677.233 459.05,675.1C460.483,672.967 462.033,671.017 463.7,669.25L466,670.9C464.467,672.6 463.042,674.483 461.725,676.55C460.408,678.617 459.258,680.792 458.275,683.075C457.292,685.358 456.525,687.733 455.975,690.2C455.425,692.667 455.15,695.15 455.15,697.65Z" style="fill:rgb(21,12,102);fill-rule:nonzero;stroke:rgb(21,12,102);stroke-width:1px;stroke-linecap:butt;stroke-miterlimit:2;"/>
            <path d="M474.25,670.6L484.95,670.6C486.95,670.6 488.933,670.875 490.9,671.425C492.867,671.975 494.633,672.842 496.2,674.025C497.767,675.208 499.033,676.742 500,678.625C500.967,680.508 501.45,682.767 501.45,685.4C501.45,688.5 500.908,691.317 499.825,693.85C498.742,696.383 497.233,698.55 495.3,700.35C493.367,702.15 491.083,703.542 488.45,704.525C485.817,705.508 482.95,706 479.85,706L468,706L474.25,670.6ZM472.1,702.85L480.1,702.85C482.967,702.85 485.492,702.367 487.675,701.4C489.858,700.433 491.692,699.158 493.175,697.575C494.658,695.992 495.775,694.175 496.525,692.125C497.275,690.075 497.65,687.967 497.65,685.8C497.65,684.167 497.383,682.617 496.85,681.15C496.317,679.683 495.5,678.4 494.4,677.3C493.3,676.2 491.9,675.333 490.2,674.7C488.5,674.067 486.483,673.75 484.15,673.75L477.25,673.75L472.1,702.85Z" style="fill:rgb(21,12,102);fill-rule:nonzero;stroke:rgb(21,12,102);stroke-width:1px;stroke-linecap:butt;stroke-miterlimit:2;"/>
            <path d="M509.05,695.2C509.017,695.4 508.992,695.592 508.975,695.775C508.958,695.958 508.95,696.133 508.95,696.3C508.95,697.4 509.142,698.4 509.525,699.3C509.908,700.2 510.442,700.983 511.125,701.65C511.808,702.317 512.608,702.833 513.525,703.2C514.442,703.567 515.433,703.75 516.5,703.75C518.333,703.75 519.933,703.342 521.3,702.525C522.667,701.708 523.767,700.75 524.6,699.65L526.7,701.65C525.333,703.283 523.75,704.517 521.95,705.35C520.15,706.183 518.233,706.6 516.2,706.6C514.7,706.6 513.3,706.367 512,705.9C510.7,705.433 509.575,704.767 508.625,703.9C507.675,703.033 506.925,701.958 506.375,700.675C505.825,699.392 505.55,697.933 505.55,696.3C505.55,694.4 505.9,692.583 506.6,690.85C507.3,689.117 508.258,687.6 509.475,686.3C510.692,685 512.125,683.958 513.775,683.175C515.425,682.392 517.2,682 519.1,682C522.3,682 524.725,682.85 526.375,684.55C528.025,686.25 528.85,688.45 528.85,691.15C528.85,691.55 528.817,692.158 528.75,692.975C528.683,693.792 528.567,694.533 528.4,695.2L509.05,695.2ZM525.4,692.7C525.433,692.433 525.458,692.142 525.475,691.825C525.492,691.508 525.5,691.217 525.5,690.95C525.5,689.15 524.95,687.675 523.85,686.525C522.75,685.375 521.133,684.8 519,684.8C517.767,684.8 516.625,685.008 515.575,685.425C514.525,685.842 513.592,686.417 512.775,687.15C511.958,687.883 511.267,688.725 510.7,689.675C510.133,690.625 509.733,691.633 509.5,692.7L525.4,692.7Z" style="fill:rgb(21,12,102);fill-rule:nonzero;stroke:rgb(21,12,102);stroke-width:1px;stroke-linecap:butt;stroke-miterlimit:2;"/>
            <path d="M542.4,706L538.8,706L533.9,682.6L537.35,682.6L541.1,702.4L541.2,702.4L552.85,682.6L556.5,682.6L542.4,706Z" style="fill:rgb(21,12,102);fill-rule:nonzero;stroke:rgb(21,12,102);stroke-width:1px;stroke-linecap:butt;stroke-miterlimit:2;"/>
            <path d="M561.25,695.2C561.217,695.4 561.192,695.592 561.175,695.775C561.158,695.958 561.15,696.133 561.15,696.3C561.15,697.4 561.342,698.4 561.725,699.3C562.108,700.2 562.642,700.983 563.325,701.65C564.008,702.317 564.808,702.833 565.725,703.2C566.642,703.567 567.633,703.75 568.7,703.75C570.533,703.75 572.133,703.342 573.5,702.525C574.867,701.708 575.967,700.75 576.8,699.65L578.9,701.65C577.533,703.283 575.95,704.517 574.15,705.35C572.35,706.183 570.433,706.6 568.4,706.6C566.9,706.6 565.5,706.367 564.2,705.9C562.9,705.433 561.775,704.767 560.825,703.9C559.875,703.033 559.125,701.958 558.575,700.675C558.025,699.392 557.75,697.933 557.75,696.3C557.75,694.4 558.1,692.583 558.8,690.85C559.5,689.117 560.458,687.6 561.675,686.3C562.892,685 564.325,683.958 565.975,683.175C567.625,682.392 569.4,682 571.3,682C574.5,682 576.925,682.85 578.575,684.55C580.225,686.25 581.05,688.45 581.05,691.15C581.05,691.55 581.017,692.158 580.95,692.975C580.883,693.792 580.767,694.533 580.6,695.2L561.25,695.2ZM577.6,692.7C577.633,692.433 577.658,692.142 577.675,691.825C577.692,691.508 577.7,691.217 577.7,690.95C577.7,689.15 577.15,687.675 576.05,686.525C574.95,685.375 573.333,684.8 571.2,684.8C569.967,684.8 568.825,685.008 567.775,685.425C566.725,685.842 565.792,686.417 564.975,687.15C564.158,687.883 563.467,688.725 562.9,689.675C562.333,690.625 561.933,691.633 561.7,692.7L577.6,692.7Z" style="fill:rgb(21,12,102);fill-rule:nonzero;stroke:rgb(21,12,102);stroke-width:1px;stroke-linecap:butt;stroke-miterlimit:2;"/>
            <path d="M589.65,706L586.25,706L592.9,668.2L596.3,668.2L589.65,706Z" style="fill:rgb(21,12,102);fill-rule:nonzero;stroke:rgb(21,12,102);stroke-width:1px;stroke-linecap:butt;stroke-miterlimit:2;"/>
            <path d="M609.45,706.6C607.883,706.6 606.433,706.35 605.1,705.85C603.767,705.35 602.625,704.658 601.675,703.775C600.725,702.892 599.983,701.825 599.45,700.575C598.917,699.325 598.65,697.95 598.65,696.45C598.65,694.483 598.992,692.625 599.675,690.875C600.358,689.125 601.317,687.592 602.55,686.275C603.783,684.958 605.25,683.917 606.95,683.15C608.65,682.383 610.517,682 612.55,682C614.15,682 615.608,682.242 616.925,682.725C618.242,683.208 619.375,683.9 620.325,684.8C621.275,685.7 622.017,686.767 622.55,688C623.083,689.233 623.35,690.6 623.35,692.1C623.35,694.1 623.008,695.983 622.325,697.75C621.642,699.517 620.683,701.05 619.45,702.35C618.217,703.65 616.75,704.683 615.05,705.45C613.35,706.217 611.483,706.6 609.45,706.6ZM619.85,692.3C619.85,691.233 619.683,690.242 619.35,689.325C619.017,688.408 618.525,687.617 617.875,686.95C617.225,686.283 616.433,685.758 615.5,685.375C614.567,684.992 613.517,684.8 612.35,684.8C610.883,684.8 609.533,685.108 608.3,685.725C607.067,686.342 606,687.175 605.1,688.225C604.2,689.275 603.492,690.492 602.975,691.875C602.458,693.258 602.2,694.717 602.2,696.25C602.2,697.317 602.367,698.308 602.7,699.225C603.033,700.142 603.525,700.933 604.175,701.6C604.825,702.267 605.608,702.792 606.525,703.175C607.442,703.558 608.483,703.75 609.65,703.75C611.15,703.75 612.525,703.442 613.775,702.825C615.025,702.208 616.1,701.383 617,700.35C617.9,699.317 618.6,698.108 619.1,696.725C619.6,695.342 619.85,693.867 619.85,692.3Z" style="fill:rgb(21,12,102);fill-rule:nonzero;stroke:rgb(21,12,102);stroke-width:1px;stroke-linecap:butt;stroke-miterlimit:2;"/>
            <path d="M635.6,686.4C635.967,685.8 636.45,685.233 637.05,684.7C637.65,684.167 638.325,683.7 639.075,683.3C639.825,682.9 640.633,682.583 641.5,682.35C642.367,682.117 643.267,682 644.2,682C645.8,682 647.242,682.242 648.525,682.725C649.808,683.208 650.917,683.9 651.85,684.8C652.783,685.7 653.5,686.767 654,688C654.5,689.233 654.75,690.6 654.75,692.1C654.75,694.1 654.4,695.983 653.7,697.75C653,699.517 652.042,701.05 650.825,702.35C649.608,703.65 648.158,704.683 646.475,705.45C644.792,706.217 642.967,706.6 641,706.6C639.3,706.6 637.708,706.217 636.225,705.45C634.742,704.683 633.617,703.55 632.85,702.05L632.75,702.05L629.9,718L626.55,718L632.85,682.6L636.2,682.6L635.5,686.4L635.6,686.4ZM651.25,692.3C651.25,691.267 651.092,690.292 650.775,689.375C650.458,688.458 649.983,687.658 649.35,686.975C648.717,686.292 647.95,685.758 647.05,685.375C646.15,684.992 645.1,684.8 643.9,684.8C642.433,684.8 641.067,685.1 639.8,685.7C638.533,686.3 637.433,687.125 636.5,688.175C635.567,689.225 634.833,690.442 634.3,691.825C633.767,693.208 633.5,694.667 633.5,696.2C633.5,697.3 633.675,698.308 634.025,699.225C634.375,700.142 634.883,700.942 635.55,701.625C636.217,702.308 637.008,702.833 637.925,703.2C638.842,703.567 639.883,703.75 641.05,703.75C642.583,703.75 643.975,703.45 645.225,702.85C646.475,702.25 647.55,701.433 648.45,700.4C649.35,699.367 650.042,698.158 650.525,696.775C651.008,695.392 651.25,693.9 651.25,692.3Z" style="fill:rgb(21,12,102);fill-rule:nonzero;stroke:rgb(21,12,102);stroke-width:1px;stroke-linecap:butt;stroke-miterlimit:2;"/>
            <path d="M663.35,706L660,706L664.15,682.6L667.5,682.6L663.35,706ZM669.5,673.55C669.5,674.217 669.275,674.783 668.825,675.25C668.375,675.717 667.817,675.95 667.15,675.95C666.517,675.95 665.975,675.75 665.525,675.35C665.075,674.95 664.85,674.4 664.85,673.7C664.85,673 665.092,672.417 665.575,671.95C666.058,671.483 666.617,671.25 667.25,671.25C667.883,671.25 668.417,671.458 668.85,671.875C669.283,672.292 669.5,672.85 669.5,673.55Z" style="fill:rgb(21,12,102);fill-rule:nonzero;stroke:rgb(21,12,102);stroke-width:1px;stroke-linecap:butt;stroke-miterlimit:2;"/>
            <path d="M679.65,682.6C679.583,683.233 679.5,683.933 679.4,684.7C679.3,685.467 679.2,686.1 679.1,686.6L679.2,686.6C680.1,685.167 681.258,684.042 682.675,683.225C684.092,682.408 685.6,682 687.2,682C689.733,682 691.708,682.642 693.125,683.925C694.542,685.208 695.25,686.95 695.25,689.15C695.25,689.55 695.225,689.95 695.175,690.35C695.125,690.75 695.067,691.183 695,691.65L692.45,706L689.1,706L691.4,693.05C691.6,692.017 691.7,691.033 691.7,690.1C691.7,688.467 691.317,687.175 690.55,686.225C689.783,685.275 688.433,684.8 686.5,684.8C685.6,684.8 684.7,684.983 683.8,685.35C682.9,685.717 682.058,686.283 681.275,687.05C680.492,687.817 679.8,688.775 679.2,689.925C678.6,691.075 678.167,692.433 677.9,694L675.8,706L672.45,706L675.65,687.75C675.783,687.117 675.925,686.3 676.075,685.3C676.225,684.3 676.333,683.4 676.4,682.6L679.65,682.6Z" style="fill:rgb(21,12,102);fill-rule:nonzero;stroke:rgb(21,12,102);stroke-width:1px;stroke-linecap:butt;stroke-miterlimit:2;"/>
            <path d="M701.55,710.9C702.383,712.1 703.558,713.092 705.075,713.875C706.592,714.658 708.25,715.05 710.05,715.05C711.717,715.05 713.15,714.808 714.35,714.325C715.55,713.842 716.55,713.175 717.35,712.325C718.15,711.475 718.783,710.492 719.25,709.375C719.717,708.258 720.067,707.067 720.3,705.8L721.15,701.35L721.05,701.35C719.983,702.85 718.683,704 717.15,704.8C715.617,705.6 713.95,706 712.15,706C710.55,706 709.108,705.742 707.825,705.225C706.542,704.708 705.45,703.983 704.55,703.05C703.65,702.117 702.958,701.033 702.475,699.8C701.992,698.567 701.75,697.217 701.75,695.75C701.75,693.85 702.092,692.067 702.775,690.4C703.458,688.733 704.408,687.275 705.625,686.025C706.842,684.775 708.283,683.792 709.95,683.075C711.617,682.358 713.433,682 715.4,682C716.233,682 717.067,682.1 717.9,682.3C718.733,682.5 719.508,682.8 720.225,683.2C720.942,683.6 721.583,684.092 722.15,684.675C722.717,685.258 723.167,685.917 723.5,686.65L723.6,686.65L724.35,682.6L727.65,682.6L723.55,705.8C723.317,707.067 722.967,708.417 722.5,709.85C722.033,711.283 721.308,712.6 720.325,713.8C719.342,715 718.033,716 716.4,716.8C714.767,717.6 712.65,718 710.05,718C707.75,718 705.667,717.583 703.8,716.75C701.933,715.917 700.433,714.767 699.3,713.3L701.55,710.9ZM705.2,695.8C705.2,696.8 705.367,697.75 705.7,698.65C706.033,699.55 706.517,700.342 707.15,701.025C707.783,701.708 708.567,702.242 709.5,702.625C710.433,703.008 711.5,703.2 712.7,703.2C714.2,703.2 715.575,702.908 716.825,702.325C718.075,701.742 719.15,700.95 720.05,699.95C720.95,698.95 721.65,697.792 722.15,696.475C722.65,695.158 722.9,693.767 722.9,692.3C722.9,691.267 722.725,690.292 722.375,689.375C722.025,688.458 721.525,687.667 720.875,687C720.225,686.333 719.433,685.8 718.5,685.4C717.567,685 716.517,684.8 715.35,684.8C713.85,684.8 712.475,685.067 711.225,685.6C709.975,686.133 708.908,686.875 708.025,687.825C707.142,688.775 706.45,689.933 705.95,691.3C705.45,692.667 705.2,694.167 705.2,695.8Z" style="fill:rgb(21,12,102);fill-rule:nonzero;stroke:rgb(21,12,102);stroke-width:1px;stroke-linecap:butt;stroke-miterlimit:2;"/>
            <path d="M741.4,685.55C741.4,682.65 741.1,679.95 740.5,677.45C739.9,674.95 739.05,672.7 737.95,670.7L740.55,669.3C741.817,671.333 742.825,673.775 743.575,676.625C744.325,679.475 744.7,682.45 744.7,685.55C744.7,688.317 744.392,691.017 743.775,693.65C743.158,696.283 742.317,698.817 741.25,701.25C740.183,703.683 738.925,705.967 737.475,708.1C736.025,710.233 734.483,712.183 732.85,713.95L730.55,712.3C732.083,710.6 733.508,708.717 734.825,706.65C736.142,704.583 737.292,702.408 738.275,700.125C739.258,697.842 740.025,695.467 740.575,693C741.125,690.533 741.4,688.05 741.4,685.55Z" style="fill:rgb(21,12,102);fill-rule:nonzero;stroke:rgb(21,12,102);stroke-width:1px;stroke-linecap:butt;stroke-miterlimit:2;"/>
        </g>
    </g>
</svg>
