<?xml version="1.0" encoding="UTF-8" standalone="no"?>
<!DOCTYPE svg PUBLIC "-//W3C//DTD SVG 1.1//EN" "http://www.w3.org/Graphics/SVG/1.1/DTD/svg11.dtd">
<svg width="100%" height="100%" viewBox="0 0 834 834" version="1.1" xmlns="http://www.w3.org/2000/svg" xmlns:xlink="http://www.w3.org/1999/xlink" xml:space="preserve" xmlns:serif="http://www.serif.com/" style="fill-rule:evenodd;clip-rule:evenodd;stroke-linecap:round;stroke-linejoin:round;stroke-miterlimit:1.5;">
    <g transform="matrix(1.00131,0,0,0.998737,-0.227333,-3.19225)">
        <path d="M829.678,175.905L829.678,665.877C829.678,757.286 755.656,831.499 664.481,831.499L168.301,831.499C77.127,831.499 3.105,757.286 3.105,665.877L3.105,175.905C3.105,84.496 77.127,10.283 168.301,10.283L664.481,10.283C755.656,10.283 829.678,84.496 829.678,175.905Z" style="fill:rgb(243,243,243);"/>
    </g>
    <g id="Communication">
        <g transform="matrix(0.754547,0,0,1,111.363,3)">
            <path d="M459.146,456.981C458.689,454.958 457.302,453.216 455.433,451.68C453.964,450.471 452.011,449.495 451.017,448.302C427.174,419.69 401.44,409.962 365.149,400.285C339.364,393.409 312.537,398.046 286.242,406.614C261.266,414.752 236.764,426.404 214.172,433.935C176.758,446.406 124.491,451.58 85.746,441.013C62.515,434.677 1.999,406.979 -42.66,401.346C-64.031,398.65 -81.969,401.059 -92.195,411.284C-94.031,413.12 -93.546,415.735 -91.113,417.12C-88.68,418.505 -85.214,418.139 -83.379,416.304C-78.287,411.212 -70.47,409.07 -61.163,408.692C-50.64,408.264 -38.328,410.075 -25.372,413.058C15.459,422.461 62.269,443.471 81.992,448.85C123.209,460.091 178.834,454.824 218.635,441.557C241.201,434.035 265.673,422.393 290.621,414.264C314.251,406.565 338.296,401.962 361.469,408.142C395.297,417.163 419.443,426.068 441.668,452.738C442.663,453.933 444.188,455.061 445.786,456.191C446.383,456.613 446.99,457.04 447.517,457.501C447.829,457.774 448.179,458.028 448.259,458.381C448.771,460.648 451.626,462.175 454.63,461.788C457.634,461.402 459.658,459.248 459.146,456.981Z" style="fill:rgb(21,12,102);"/>
        </g>
        <g transform="matrix(0.830014,0,0,0.966146,77.1232,14.462)">
            <path d="M0,310.777L453.703,309.029L396.005,412.158" style="fill:none;stroke:rgb(21,12,102);stroke-width:9.25px;"/>
        </g>
        <g transform="matrix(1,0,0,1,0,3)">
            <path d="M323.273,299.707L309.734,255.099L293.064,223.317L306.377,216.283L323.273,299.707Z" style="fill:rgb(21,12,102);stroke:rgb(21,12,102);stroke-width:8.33px;"/>
        </g>
        <g transform="matrix(1,0,0,1,6.25531,3)">
            <path d="M275.438,222.346L256.57,216.283L240.158,299.707L261.023,245.886L275.438,222.346Z" style="fill:rgb(21,12,102);stroke:rgb(21,12,102);stroke-width:8.33px;"/>
        </g>
        <g transform="matrix(1,0,0,1,0,19.3303)">
            <path d="M316.354,132.039L351.745,107.319L396.591,79.428L343.631,103.229L308.169,124.68L316.354,132.039Z" style="fill:rgb(21,12,102);stroke:rgb(21,12,102);stroke-width:8.33px;"/>
        </g>
        <g transform="matrix(1,0,0,1,6.25531,17.603)">
            <path d="M257.798,125.601L160.848,141.932L222.108,140.528L257.798,136.654L257.798,125.601Z" style="fill:rgb(21,12,102);stroke:rgb(21,12,102);stroke-width:8.33px;"/>
        </g>
        <g transform="matrix(1,0,0,1,-3.84295,19.3303)">
            <circle cx="293.725" cy="87.447" r="18.287" style="fill:rgb(21,12,102);stroke:rgb(21,12,102);stroke-width:8.33px;"/>
        </g>
        <g transform="matrix(1,0,0,1,9.7669,-12.9655)">
            <path d="M386.824,122.064L432.833,47.733" style="fill:none;stroke:rgb(21,12,102);stroke-width:8.33px;"/>
        </g>
        <g transform="matrix(1,0,0,1,0,3)">
            <path d="M442.811,33.04C444.393,34.566 448.218,35.393 450.388,37.129C459.378,44.321 466.369,58.966 479.01,60.371C489.143,61.497 499.429,59.103 508.934,63.327C511.633,64.527 516.961,66.818 518.29,69.476C518.862,70.619 511.542,73.296 510.003,74.555C503.965,79.496 499.91,83.914 494.765,89.793C490.386,94.798 487.496,101.602 485.676,107.972C484.917,110.629 485.28,114.646 484.072,117.061C483.754,117.696 478.088,116.613 477.656,116.526C468.307,114.657 463.581,113.058 457.492,106.098C450.938,98.609 452.046,84.714 442.6,79.991C436.216,76.799 423.854,77.229 417.239,77.229" style="fill:none;stroke:rgb(21,12,102);stroke-width:8.33px;"/>
        </g>
        <g transform="matrix(1,0,0,1,0,3)">
            <path d="M167.103,162.557L103.642,122.064" style="fill:none;stroke:rgb(21,12,102);stroke-width:8.33px;"/>
        </g>
        <g transform="matrix(1,0,0,1,0,3)">
            <path d="M100.912,123.834C100.363,124.889 97.643,127.542 98.07,126.377C99.219,123.246 93.685,133.183 92.444,136.121C88.587,145.247 94.467,149.05 93.588,152.86C92.253,158.644 87.965,160.757 84.218,165.252C79.852,170.492 74.337,173.3 69.249,177.541C68.356,178.285 67.534,179.13 66.568,179.775C65.93,180.2 64.557,180.125 64.557,180.892C64.557,181.289 70.165,182.733 70.589,182.903C74.619,184.515 80.009,185.88 83.22,188.689C87.512,192.445 88.428,199.383 91.591,204.128C94.055,207.824 92.343,216.254 98.74,213.512C99.57,213.156 100.373,212.761 101.198,212.395C102.724,211.716 104.053,210.864 105.443,209.937C117.647,201.801 118.797,186.845 121.027,173.467C121.814,168.745 122.977,163.943 123.764,159.22C124.661,153.838 136.192,148.37 142.482,148.37" style="fill:none;stroke:rgb(21,12,102);stroke-width:8.33px;"/>
        </g>
        <g transform="matrix(1,0,0,1,31.248,-170.344)">
            <ellipse cx="660.437" cy="652.544" rx="85.163" ry="109.589" style="fill:rgb(21,12,102);stroke:rgb(21,12,102);stroke-width:8.33px;"/>
        </g>
        <g transform="matrix(1,0,0,1,31.248,-136.344)">
            <circle cx="505.21" cy="523.899" r="26.723" style="fill:rgb(21,12,102);stroke:rgb(21,12,102);stroke-width:8.33px;"/>
        </g>
        <g transform="matrix(1,0,0,1,31.248,-136.344)">
            <path d="M524.197,505.103L602.702,610.872L590.053,634.74L486.611,542.955" style="fill:rgb(21,12,102);stroke:rgb(21,12,102);stroke-width:8.33px;"/>
        </g>
        <g transform="matrix(1,0,0,1,31.248,-170.344)">
            <path d="M575.274,812.984L461.308,786.078L558.031,592.438L575.274,605.809L505.21,762.133L575.274,750.686L575.274,812.984Z" style="fill:rgb(21,12,102);stroke:rgb(21,12,102);stroke-width:8.33px;"/>
        </g>
        <g transform="matrix(1,0,0,1,102.972,727.19)">
            <path d="M51.75,-8.55C50.85,-7.2 49.762,-5.925 48.487,-4.725C47.213,-3.525 45.737,-2.475 44.063,-1.575C42.388,-0.675 40.538,0.037 38.512,0.563C36.488,1.088 34.275,1.35 31.875,1.35C27.875,1.35 24.175,0.65 20.775,-0.75C17.375,-2.15 14.45,-4.088 12,-6.563C9.55,-9.038 7.638,-11.975 6.263,-15.375C4.888,-18.775 4.2,-22.5 4.2,-26.55C4.2,-30.6 4.9,-34.325 6.3,-37.725C7.7,-41.125 9.638,-44.063 12.113,-46.538C14.588,-49.013 17.513,-50.95 20.888,-52.35C24.263,-53.75 27.925,-54.45 31.875,-54.45C33.825,-54.45 35.738,-54.25 37.613,-53.85C39.488,-53.45 41.25,-52.887 42.9,-52.163C44.55,-51.438 46.05,-50.563 47.4,-49.538C48.75,-48.513 49.875,-47.35 50.775,-46.05L46.275,-42.75C45.725,-43.6 44.987,-44.45 44.063,-45.3C43.138,-46.15 42.05,-46.9 40.8,-47.55C39.55,-48.2 38.188,-48.725 36.713,-49.125C35.238,-49.525 33.65,-49.725 31.95,-49.725C28.5,-49.725 25.412,-49.1 22.688,-47.85C19.962,-46.6 17.65,-44.913 15.75,-42.788C13.85,-40.663 12.4,-38.2 11.4,-35.4C10.4,-32.6 9.9,-29.65 9.9,-26.55C9.9,-23.45 10.413,-20.5 11.438,-17.7C12.463,-14.9 13.925,-12.438 15.825,-10.313C17.725,-8.188 20.038,-6.5 22.763,-5.25C25.487,-4 28.55,-3.375 31.95,-3.375C35,-3.375 37.9,-4 40.65,-5.25C43.4,-6.5 45.7,-8.5 47.55,-11.25L51.75,-8.55Z" style="fill:rgb(21,12,102);fill-rule:nonzero;stroke:rgb(21,12,102);stroke-width:1px;stroke-linecap:butt;stroke-miterlimit:2;"/>
            <path d="M94.725,-17.55C94.725,-14.9 94.263,-12.45 93.338,-10.2C92.412,-7.95 91.125,-6 89.475,-4.35C87.825,-2.7 85.85,-1.413 83.55,-0.488C81.25,0.438 78.725,0.9 75.975,0.9C73.275,0.9 70.775,0.438 68.475,-0.488C66.175,-1.413 64.2,-2.7 62.55,-4.35C60.9,-6 59.613,-7.95 58.688,-10.2C57.763,-12.45 57.3,-14.9 57.3,-17.55C57.3,-20.2 57.763,-22.65 58.688,-24.9C59.613,-27.15 60.9,-29.1 62.55,-30.75C64.2,-32.4 66.175,-33.688 68.475,-34.613C70.775,-35.538 73.275,-36 75.975,-36C78.725,-36 81.25,-35.538 83.55,-34.613C85.85,-33.688 87.825,-32.4 89.475,-30.75C91.125,-29.1 92.412,-27.15 93.338,-24.9C94.263,-22.65 94.725,-20.2 94.725,-17.55ZM89.325,-17.55C89.325,-19.5 89.013,-21.338 88.388,-23.063C87.763,-24.788 86.875,-26.288 85.725,-27.563C84.575,-28.838 83.175,-29.85 81.525,-30.6C79.875,-31.35 78.025,-31.725 75.975,-31.725C73.925,-31.725 72.088,-31.35 70.463,-30.6C68.838,-29.85 67.45,-28.838 66.3,-27.563C65.15,-26.288 64.263,-24.788 63.638,-23.063C63.013,-21.338 62.7,-19.5 62.7,-17.55C62.7,-15.6 63.013,-13.762 63.638,-12.038C64.263,-10.312 65.15,-8.813 66.3,-7.538C67.45,-6.263 68.838,-5.263 70.463,-4.538C72.088,-3.813 73.925,-3.45 75.975,-3.45C78.025,-3.45 79.875,-3.813 81.525,-4.538C83.175,-5.263 84.575,-6.263 85.725,-7.538C86.875,-8.813 87.763,-10.312 88.388,-12.038C89.013,-13.762 89.325,-15.6 89.325,-17.55Z" style="fill:rgb(21,12,102);fill-rule:nonzero;stroke:rgb(21,12,102);stroke-width:1px;stroke-linecap:butt;stroke-miterlimit:2;"/>
            <path d="M110.7,-29.1C111.7,-31.15 113.238,-32.813 115.313,-34.088C117.388,-35.363 119.7,-36 122.25,-36C123.2,-36 124.188,-35.9 125.213,-35.7C126.238,-35.5 127.238,-35.113 128.213,-34.538C129.188,-33.963 130.088,-33.2 130.912,-32.25C131.738,-31.3 132.45,-30.075 133.05,-28.575C134.25,-30.975 135.888,-32.813 137.962,-34.088C140.038,-35.363 142.5,-36 145.35,-36C149.8,-36 153.137,-34.675 155.363,-32.025C157.588,-29.375 158.7,-25.875 158.7,-21.525L158.7,0L153.6,0L153.6,-19.425C153.6,-23.125 152.913,-26.1 151.538,-28.35C150.163,-30.6 147.825,-31.725 144.525,-31.725C142.675,-31.725 141.113,-31.35 139.838,-30.6C138.563,-29.85 137.538,-28.863 136.763,-27.638C135.988,-26.413 135.425,-25.025 135.075,-23.475C134.725,-21.925 134.55,-20.325 134.55,-18.675L134.55,0L129.45,0L129.45,-20.475C129.45,-22.175 129.325,-23.725 129.075,-25.125C128.825,-26.525 128.387,-27.712 127.763,-28.688C127.138,-29.663 126.275,-30.413 125.175,-30.938C124.075,-31.462 122.675,-31.725 120.975,-31.725C119.775,-31.725 118.563,-31.45 117.338,-30.9C116.113,-30.35 115.012,-29.513 114.037,-28.388C113.063,-27.263 112.275,-25.838 111.675,-24.113C111.075,-22.388 110.775,-20.35 110.775,-18L110.775,0L105.675,0L105.675,-27.375C105.675,-28.325 105.65,-29.55 105.6,-31.05C105.55,-32.55 105.475,-33.9 105.375,-35.1L110.25,-35.1C110.35,-34.15 110.425,-33.1 110.475,-31.95C110.525,-30.8 110.55,-29.85 110.55,-29.1L110.7,-29.1Z" style="fill:rgb(21,12,102);fill-rule:nonzero;stroke:rgb(21,12,102);stroke-width:1px;stroke-linecap:butt;stroke-miterlimit:2;"/>
            <path d="M176.925,-29.1C177.925,-31.15 179.462,-32.813 181.537,-34.088C183.612,-35.363 185.925,-36 188.475,-36C189.425,-36 190.412,-35.9 191.437,-35.7C192.462,-35.5 193.462,-35.113 194.437,-34.538C195.412,-33.963 196.312,-33.2 197.137,-32.25C197.962,-31.3 198.675,-30.075 199.275,-28.575C200.475,-30.975 202.112,-32.813 204.187,-34.088C206.262,-35.363 208.725,-36 211.575,-36C216.025,-36 219.362,-34.675 221.587,-32.025C223.813,-29.375 224.925,-25.875 224.925,-21.525L224.925,0L219.825,0L219.825,-19.425C219.825,-23.125 219.137,-26.1 217.762,-28.35C216.387,-30.6 214.05,-31.725 210.75,-31.725C208.9,-31.725 207.337,-31.35 206.062,-30.6C204.787,-29.85 203.762,-28.863 202.987,-27.638C202.212,-26.413 201.65,-25.025 201.3,-23.475C200.95,-21.925 200.775,-20.325 200.775,-18.675L200.775,0L195.675,0L195.675,-20.475C195.675,-22.175 195.55,-23.725 195.3,-25.125C195.05,-26.525 194.612,-27.712 193.987,-28.688C193.362,-29.663 192.5,-30.413 191.4,-30.938C190.3,-31.462 188.9,-31.725 187.2,-31.725C186,-31.725 184.787,-31.45 183.562,-30.9C182.337,-30.35 181.237,-29.513 180.262,-28.388C179.287,-27.263 178.5,-25.838 177.9,-24.113C177.3,-22.388 177,-20.35 177,-18L177,0L171.9,0L171.9,-27.375C171.9,-28.325 171.875,-29.55 171.825,-31.05C171.775,-32.55 171.7,-33.9 171.6,-35.1L176.475,-35.1C176.575,-34.15 176.65,-33.1 176.7,-31.95C176.75,-30.8 176.775,-29.85 176.775,-29.1L176.925,-29.1Z" style="fill:rgb(21,12,102);fill-rule:nonzero;stroke:rgb(21,12,102);stroke-width:1px;stroke-linecap:butt;stroke-miterlimit:2;"/>
            <path d="M263.625,0C263.525,-0.95 263.45,-2 263.4,-3.15C263.35,-4.3 263.325,-5.25 263.325,-6L263.175,-6C262.175,-3.95 260.55,-2.288 258.3,-1.012C256.05,0.263 253.675,0.9 251.175,0.9C246.725,0.9 243.387,-0.425 241.162,-3.075C238.937,-5.725 237.825,-9.225 237.825,-13.575L237.825,-35.1L242.925,-35.1L242.925,-15.675C242.925,-13.825 243.075,-12.15 243.375,-10.65C243.675,-9.15 244.187,-7.863 244.912,-6.787C245.637,-5.713 246.612,-4.875 247.837,-4.275C249.062,-3.675 250.6,-3.375 252.45,-3.375C253.8,-3.375 255.112,-3.65 256.387,-4.2C257.662,-4.75 258.8,-5.587 259.8,-6.712C260.8,-7.837 261.6,-9.263 262.2,-10.987C262.8,-12.712 263.1,-14.75 263.1,-17.1L263.1,-35.1L268.2,-35.1L268.2,-7.725C268.2,-6.775 268.225,-5.55 268.275,-4.05C268.325,-2.55 268.4,-1.2 268.5,0L263.625,0Z" style="fill:rgb(21,12,102);fill-rule:nonzero;stroke:rgb(21,12,102);stroke-width:1px;stroke-linecap:butt;stroke-miterlimit:2;"/>
            <path d="M286.275,-35.1C286.375,-34.15 286.45,-33.1 286.5,-31.95C286.55,-30.8 286.575,-29.85 286.575,-29.1L286.725,-29.1C287.725,-31.15 289.35,-32.813 291.6,-34.088C293.85,-35.363 296.225,-36 298.725,-36C303.175,-36 306.513,-34.675 308.738,-32.025C310.962,-29.375 312.075,-25.875 312.075,-21.525L312.075,0L306.975,0L306.975,-19.425C306.975,-21.275 306.825,-22.95 306.525,-24.45C306.225,-25.95 305.713,-27.237 304.988,-28.313C304.263,-29.388 303.287,-30.225 302.063,-30.825C300.838,-31.425 299.3,-31.725 297.45,-31.725C296.1,-31.725 294.787,-31.45 293.513,-30.9C292.238,-30.35 291.1,-29.513 290.1,-28.388C289.1,-27.263 288.3,-25.838 287.7,-24.113C287.1,-22.388 286.8,-20.35 286.8,-18L286.8,0L281.7,0L281.7,-27.375C281.7,-28.325 281.675,-29.55 281.625,-31.05C281.575,-32.55 281.5,-33.9 281.4,-35.1L286.275,-35.1Z" style="fill:rgb(21,12,102);fill-rule:nonzero;stroke:rgb(21,12,102);stroke-width:1px;stroke-linecap:butt;stroke-miterlimit:2;"/>
            <path d="M330.45,0L325.35,0L325.35,-35.1L330.45,-35.1L330.45,0ZM331.5,-48.6C331.5,-47.55 331.125,-46.688 330.375,-46.013C329.625,-45.337 328.8,-45 327.9,-45C327,-45 326.175,-45.337 325.425,-46.013C324.675,-46.688 324.3,-47.55 324.3,-48.6C324.3,-49.65 324.675,-50.513 325.425,-51.188C326.175,-51.862 327,-52.2 327.9,-52.2C328.8,-52.2 329.625,-51.862 330.375,-51.188C331.125,-50.513 331.5,-49.65 331.5,-48.6Z" style="fill:rgb(21,12,102);fill-rule:nonzero;stroke:rgb(21,12,102);stroke-width:1px;stroke-linecap:butt;stroke-miterlimit:2;"/>
            <path d="M369.3,-27.075C368.45,-28.425 367.212,-29.537 365.587,-30.413C363.962,-31.288 362.2,-31.725 360.3,-31.725C358.25,-31.725 356.4,-31.362 354.75,-30.638C353.1,-29.913 351.688,-28.913 350.513,-27.638C349.337,-26.362 348.438,-24.863 347.813,-23.138C347.188,-21.413 346.875,-19.55 346.875,-17.55C346.875,-15.55 347.188,-13.7 347.813,-12C348.438,-10.3 349.325,-8.813 350.475,-7.538C351.625,-6.263 353.025,-5.263 354.675,-4.538C356.325,-3.813 358.175,-3.45 360.225,-3.45C362.475,-3.45 364.375,-3.875 365.925,-4.725C367.475,-5.575 368.75,-6.675 369.75,-8.025L373.575,-5.175C372.075,-3.325 370.237,-1.85 368.063,-0.75C365.888,0.35 363.275,0.9 360.225,0.9C357.375,0.9 354.8,0.438 352.5,-0.488C350.2,-1.413 348.237,-2.7 346.612,-4.35C344.987,-6 343.725,-7.95 342.825,-10.2C341.925,-12.45 341.475,-14.9 341.475,-17.55C341.475,-20.2 341.925,-22.65 342.825,-24.9C343.725,-27.15 344.987,-29.1 346.612,-30.75C348.237,-32.4 350.2,-33.688 352.5,-34.613C354.8,-35.538 357.375,-36 360.225,-36C362.575,-36 364.962,-35.488 367.388,-34.463C369.813,-33.438 371.775,-31.925 373.275,-29.925L369.3,-27.075Z" style="fill:rgb(21,12,102);fill-rule:nonzero;stroke:rgb(21,12,102);stroke-width:1px;stroke-linecap:butt;stroke-miterlimit:2;"/>
            <path d="M403.65,-22.65C403.65,-25.7 402.85,-27.975 401.25,-29.475C399.65,-30.975 397.325,-31.725 394.275,-31.725C392.175,-31.725 390.225,-31.35 388.425,-30.6C386.625,-29.85 385.1,-28.85 383.85,-27.6L381,-30.975C382.45,-32.425 384.362,-33.625 386.737,-34.575C389.112,-35.525 391.8,-36 394.8,-36C396.7,-36 398.475,-35.738 400.125,-35.213C401.775,-34.688 403.225,-33.9 404.475,-32.85C405.725,-31.8 406.7,-30.475 407.4,-28.875C408.1,-27.275 408.45,-25.4 408.45,-23.25L408.45,-7.875C408.45,-6.525 408.5,-5.125 408.6,-3.675C408.7,-2.225 408.85,-1 409.05,0L404.475,0C404.325,-0.85 404.2,-1.775 404.1,-2.775C404,-3.775 403.95,-4.75 403.95,-5.7L403.8,-5.7C402.2,-3.35 400.388,-1.663 398.362,-0.638C396.337,0.388 393.9,0.9 391.05,0.9C389.7,0.9 388.313,0.713 386.888,0.338C385.462,-0.037 384.162,-0.65 382.987,-1.5C381.813,-2.35 380.837,-3.45 380.063,-4.8C379.287,-6.15 378.9,-7.8 378.9,-9.75C378.9,-12.45 379.587,-14.588 380.962,-16.163C382.337,-17.738 384.175,-18.912 386.475,-19.688C388.775,-20.462 391.412,-20.963 394.388,-21.188C397.362,-21.413 400.45,-21.525 403.65,-21.525L403.65,-22.65ZM402.15,-17.55C400.05,-17.55 397.938,-17.463 395.813,-17.288C393.688,-17.113 391.763,-16.763 390.037,-16.238C388.313,-15.713 386.9,-14.95 385.8,-13.95C384.7,-12.95 384.15,-11.625 384.15,-9.975C384.15,-8.725 384.388,-7.675 384.862,-6.825C385.337,-5.975 385.975,-5.287 386.775,-4.763C387.575,-4.238 388.462,-3.862 389.438,-3.638C390.412,-3.413 391.4,-3.3 392.4,-3.3C394.2,-3.3 395.8,-3.612 397.2,-4.238C398.6,-4.863 399.775,-5.713 400.725,-6.787C401.675,-7.863 402.4,-9.1 402.9,-10.5C403.4,-11.9 403.65,-13.375 403.65,-14.925L403.65,-17.55L402.15,-17.55Z" style="fill:rgb(21,12,102);fill-rule:nonzero;stroke:rgb(21,12,102);stroke-width:1px;stroke-linecap:butt;stroke-miterlimit:2;"/>
            <path d="M436.65,-30.825L426.75,-30.825L426.75,-10.35C426.75,-9.05 426.875,-7.975 427.125,-7.125C427.375,-6.275 427.738,-5.613 428.212,-5.138C428.688,-4.663 429.25,-4.338 429.9,-4.163C430.55,-3.988 431.25,-3.9 432,-3.9C432.7,-3.9 433.438,-4 434.212,-4.2C434.988,-4.4 435.725,-4.675 436.425,-5.025L436.65,-0.6C435.75,-0.25 434.813,0.012 433.837,0.188C432.863,0.363 431.8,0.45 430.65,0.45C429.7,0.45 428.7,0.325 427.65,0.075C426.6,-0.175 425.625,-0.65 424.725,-1.35C423.825,-2.05 423.087,-3 422.513,-4.2C421.938,-5.4 421.65,-6.975 421.65,-8.925L421.65,-30.825L414.375,-30.825L414.375,-35.1L421.65,-35.1L421.65,-45L426.75,-45L426.75,-35.1L436.65,-35.1L436.65,-30.825Z" style="fill:rgb(21,12,102);fill-rule:nonzero;stroke:rgb(21,12,102);stroke-width:1px;stroke-linecap:butt;stroke-miterlimit:2;"/>
            <path d="M449.775,0L444.675,0L444.675,-35.1L449.775,-35.1L449.775,0ZM450.825,-48.6C450.825,-47.55 450.45,-46.688 449.7,-46.013C448.95,-45.337 448.125,-45 447.225,-45C446.325,-45 445.5,-45.337 444.75,-46.013C444,-46.688 443.625,-47.55 443.625,-48.6C443.625,-49.65 444,-50.513 444.75,-51.188C445.5,-51.862 446.325,-52.2 447.225,-52.2C448.125,-52.2 448.95,-51.862 449.7,-51.188C450.45,-50.513 450.825,-49.65 450.825,-48.6Z" style="fill:rgb(21,12,102);fill-rule:nonzero;stroke:rgb(21,12,102);stroke-width:1px;stroke-linecap:butt;stroke-miterlimit:2;"/>
            <path d="M498.225,-17.55C498.225,-14.9 497.763,-12.45 496.837,-10.2C495.912,-7.95 494.625,-6 492.975,-4.35C491.325,-2.7 489.35,-1.413 487.05,-0.488C484.75,0.438 482.225,0.9 479.475,0.9C476.775,0.9 474.275,0.438 471.975,-0.488C469.675,-1.413 467.7,-2.7 466.05,-4.35C464.4,-6 463.112,-7.95 462.187,-10.2C461.263,-12.45 460.8,-14.9 460.8,-17.55C460.8,-20.2 461.263,-22.65 462.187,-24.9C463.112,-27.15 464.4,-29.1 466.05,-30.75C467.7,-32.4 469.675,-33.688 471.975,-34.613C474.275,-35.538 476.775,-36 479.475,-36C482.225,-36 484.75,-35.538 487.05,-34.613C489.35,-33.688 491.325,-32.4 492.975,-30.75C494.625,-29.1 495.912,-27.15 496.837,-24.9C497.763,-22.65 498.225,-20.2 498.225,-17.55ZM492.825,-17.55C492.825,-19.5 492.513,-21.338 491.888,-23.063C491.263,-24.788 490.375,-26.288 489.225,-27.563C488.075,-28.838 486.675,-29.85 485.025,-30.6C483.375,-31.35 481.525,-31.725 479.475,-31.725C477.425,-31.725 475.587,-31.35 473.962,-30.6C472.337,-29.85 470.95,-28.838 469.8,-27.563C468.65,-26.288 467.763,-24.788 467.138,-23.063C466.513,-21.338 466.2,-19.5 466.2,-17.55C466.2,-15.6 466.513,-13.762 467.138,-12.038C467.763,-10.312 468.65,-8.813 469.8,-7.538C470.95,-6.263 472.337,-5.263 473.962,-4.538C475.587,-3.813 477.425,-3.45 479.475,-3.45C481.525,-3.45 483.375,-3.813 485.025,-4.538C486.675,-5.263 488.075,-6.263 489.225,-7.538C490.375,-8.813 491.263,-10.312 491.888,-12.038C492.513,-13.762 492.825,-15.6 492.825,-17.55Z" style="fill:rgb(21,12,102);fill-rule:nonzero;stroke:rgb(21,12,102);stroke-width:1px;stroke-linecap:butt;stroke-miterlimit:2;"/>
            <path d="M513.75,-35.1C513.85,-34.15 513.925,-33.1 513.975,-31.95C514.025,-30.8 514.05,-29.85 514.05,-29.1L514.2,-29.1C515.2,-31.15 516.825,-32.813 519.075,-34.088C521.325,-35.363 523.7,-36 526.2,-36C530.65,-36 533.988,-34.675 536.213,-32.025C538.438,-29.375 539.55,-25.875 539.55,-21.525L539.55,0L534.45,0L534.45,-19.425C534.45,-21.275 534.3,-22.95 534,-24.45C533.7,-25.95 533.188,-27.237 532.463,-28.313C531.738,-29.388 530.762,-30.225 529.537,-30.825C528.313,-31.425 526.775,-31.725 524.925,-31.725C523.575,-31.725 522.262,-31.45 520.987,-30.9C519.712,-30.35 518.575,-29.513 517.575,-28.388C516.575,-27.263 515.775,-25.838 515.175,-24.113C514.575,-22.388 514.275,-20.35 514.275,-18L514.275,0L509.175,0L509.175,-27.375C509.175,-28.325 509.15,-29.55 509.1,-31.05C509.05,-32.55 508.975,-33.9 508.875,-35.1L513.75,-35.1Z" style="fill:rgb(21,12,102);fill-rule:nonzero;stroke:rgb(21,12,102);stroke-width:1px;stroke-linecap:butt;stroke-miterlimit:2;"/>
        </g>
    </g>
</svg>
