<?xml version="1.0" encoding="UTF-8" standalone="no"?>
<!DOCTYPE svg PUBLIC "-//W3C//DTD SVG 1.1//EN" "http://www.w3.org/Graphics/SVG/1.1/DTD/svg11.dtd">
<svg width="100%" height="100%" viewBox="0 0 834 834" version="1.1" xmlns="http://www.w3.org/2000/svg" xmlns:xlink="http://www.w3.org/1999/xlink" xml:space="preserve" xmlns:serif="http://www.serif.com/" style="fill-rule:evenodd;clip-rule:evenodd;stroke-linecap:round;stroke-linejoin:round;stroke-miterlimit:1.5;">
    <g transform="matrix(1.00131,0,0,0.998737,-0.227333,-3.19225)">
        <path d="M829.678,175.905L829.678,665.877C829.678,757.286 755.656,831.499 664.481,831.499L168.301,831.499C77.127,831.499 3.105,757.286 3.105,665.877L3.105,175.905C3.105,84.496 77.127,10.283 168.301,10.283L664.481,10.283C755.656,10.283 829.678,84.496 829.678,175.905Z" style="fill:rgb(243,243,243);"/>
    </g>
    <g id="Learning-" serif:id="Learning ">
        <g transform="matrix(1.26671,0,0,1.32524,-215.048,-72.4511)">
            <path d="M766.802,555.514L711.534,390.387L649.446,552.729L677.444,479.522L739.194,473.028" style="fill:none;stroke:rgb(21,12,102);stroke-width:6.43px;"/>
        </g>
        <g transform="matrix(1.26671,0,0,1.32524,-208.715,-69.3532)">
            <path d="M659.753,476.243L766.802,251.112L754.803,243.751C720.098,320.608 685.04,397.075 649.446,472.951L659.753,476.243Z" style="fill:rgb(21,12,102);stroke:rgb(21,12,102);stroke-width:6.43px;"/>
        </g>
        <g transform="matrix(1.26671,0,0,1.32524,-215.048,-72.4511)">
            <circle cx="593.337" cy="319.219" r="32.338" style="fill:rgb(21,12,102);stroke:rgb(21,12,102);stroke-width:6.43px;"/>
        </g>
        <g transform="matrix(1.21291,0,0,1.21291,-609.083,-9.73488)">
            <circle cx="593.337" cy="319.219" r="32.338" style="fill:rgb(21,12,102);stroke:rgb(21,12,102);stroke-width:6.87px;"/>
        </g>
        <g transform="matrix(1.26671,0,0,1.32524,-215.048,-72.4511)">
            <path d="M625.676,319.219L631.886,301.653L654.446,314.942L600.312,258.537L609.437,278.798L600.078,286.881L625.676,319.219Z" style="fill:rgb(21,12,102);stroke:rgb(21,12,102);stroke-width:6.43px;"/>
        </g>
        <g transform="matrix(1.26671,0,0,1.32524,-215.048,-72.4511)">
            <path d="M631.468,309.889L633.894,336.532L637.632,344.002L634.862,351.557L631.996,345.464L633.894,336.532" style="fill:rgb(21,12,102);stroke:rgb(21,12,102);stroke-width:6.43px;"/>
        </g>
        <g transform="matrix(1.26671,0,0,1.32524,-215.048,-72.4511)">
            <path d="M577.047,381.722L600.078,442.449L649.446,390.387L605.171,424.085L600.078,376.429" style="fill:rgb(21,12,102);stroke:rgb(21,12,102);stroke-width:6.43px;"/>
        </g>
        <g transform="matrix(1.26671,0,0,1.32524,-215.048,-72.4511)">
            <path d="M600.078,376.429L577.047,381.722" style="fill:none;stroke:rgb(21,12,102);stroke-width:6.43px;"/>
        </g>
        <g transform="matrix(1.26671,0,0,1.32524,-215.048,-72.4511)">
            <path d="M643.849,409.439C643.849,409.439 675.773,314.382 690.283,288.878" style="fill:rgb(21,12,102);stroke:rgb(21,12,102);stroke-width:6.43px;"/>
        </g>
        <g transform="matrix(1.26671,0,0,1.32524,-195.616,-72.4511)">
            <path d="M551.93,543.982L553.199,483.476C550.128,466.691 547.594,454.235 545.143,442.449C554.337,458.44 561.991,471.576 566.652,479.164L551.93,543.982Z" style="fill:rgb(21,12,102);stroke:rgb(21,12,102);stroke-width:6.43px;"/>
        </g>
        <g transform="matrix(1.21291,0,0,1.21291,47.011,3.93643)">
            <path d="M201.58,543.982L208.855,409.439L121.323,409.439L121.65,428.344L207.07,442.449L208.855,409.439" style="fill:rgb(21,12,102);stroke:rgb(21,12,102);stroke-width:6.87px;"/>
        </g>
        <g transform="matrix(1.21291,0,0,1.21291,47.011,3.93643)">
            <path d="M121.323,538.058L121.323,427.668L121.323,469.056L203.329,476.71" style="fill:none;stroke:rgb(21,12,102);stroke-width:6.87px;"/>
        </g>
        <g transform="matrix(1.21291,0,0,1.21291,-26.2384,3.93643)">
            <path d="M130.217,538.058L134.107,468.884L85.527,466.856L80.021,538.058L83.489,493.215L132.402,499.205L83.489,493.215L85.527,466.856L89.208,381.722" style="fill:none;stroke:rgb(21,12,102);stroke-width:6.87px;"/>
        </g>
        <g transform="matrix(1.21291,0,0,1.21291,-26.2384,3.93643)">
            <path d="M150.669,538.058L157.766,427.668L98.871,459.89L139.531,452.239L150.669,538.058Z" style="fill:rgb(21,12,102);stroke:rgb(21,12,102);stroke-width:6.87px;"/>
        </g>
        <g transform="matrix(1.21291,0,0,1.21291,-19.2753,18.1534)">
            <path d="M107.064,344.586L122.416,400.419L192.799,400.728L134.107,389.07L107.064,344.586Z" style="fill:rgb(21,12,102);stroke:rgb(21,12,102);stroke-width:6.87px;"/>
        </g>
        <g transform="matrix(1,0,0,1,62.4946,238.416)">
            <path d="M12.45,-4.8L37.2,-4.8L37.2,0L7.05,0L7.05,-53.1L12.45,-53.1L12.45,-4.8Z" style="fill:rgb(21,12,102);fill-rule:nonzero;stroke:rgb(21,12,102);stroke-width:1px;stroke-linecap:butt;stroke-miterlimit:2;"/>
            <path d="M70.425,-20.25C70.275,-23.55 69.213,-26.288 67.238,-28.462C65.263,-30.638 62.45,-31.725 58.8,-31.725C57.1,-31.725 55.525,-31.413 54.075,-30.788C52.625,-30.163 51.35,-29.313 50.25,-28.238C49.15,-27.163 48.275,-25.938 47.625,-24.563C46.975,-23.188 46.6,-21.75 46.5,-20.25L70.425,-20.25ZM75.6,-18.6L75.6,-17.475C75.6,-17.075 75.575,-16.65 75.525,-16.2L46.425,-16.2C46.475,-14.45 46.825,-12.8 47.475,-11.25C48.125,-9.7 49.025,-8.35 50.175,-7.2C51.325,-6.05 52.675,-5.137 54.225,-4.463C55.775,-3.787 57.45,-3.45 59.25,-3.45C61.9,-3.45 64.188,-4.063 66.113,-5.288C68.038,-6.513 69.5,-7.925 70.5,-9.525L74.325,-6.525C72.225,-3.875 69.913,-1.975 67.388,-0.825C64.862,0.325 62.15,0.9 59.25,0.9C56.65,0.9 54.237,0.438 52.013,-0.488C49.788,-1.413 47.875,-2.7 46.275,-4.35C44.675,-6 43.413,-7.95 42.487,-10.2C41.563,-12.45 41.1,-14.9 41.1,-17.55C41.1,-20.2 41.55,-22.65 42.45,-24.9C43.35,-27.15 44.6,-29.1 46.2,-30.75C47.8,-32.4 49.675,-33.688 51.825,-34.613C53.975,-35.538 56.3,-36 58.8,-36C61.55,-36 63.975,-35.538 66.075,-34.613C68.175,-33.688 69.925,-32.438 71.325,-30.863C72.725,-29.288 73.788,-27.45 74.513,-25.35C75.238,-23.25 75.6,-21 75.6,-18.6Z" style="fill:rgb(21,12,102);fill-rule:nonzero;stroke:rgb(21,12,102);stroke-width:1px;stroke-linecap:butt;stroke-miterlimit:2;"/>
            <path d="M108.225,-22.65C108.225,-25.7 107.425,-27.975 105.825,-29.475C104.225,-30.975 101.9,-31.725 98.85,-31.725C96.75,-31.725 94.8,-31.35 93,-30.6C91.2,-29.85 89.675,-28.85 88.425,-27.6L85.575,-30.975C87.025,-32.425 88.938,-33.625 91.313,-34.575C93.688,-35.525 96.375,-36 99.375,-36C101.275,-36 103.05,-35.738 104.7,-35.213C106.35,-34.688 107.8,-33.9 109.05,-32.85C110.3,-31.8 111.275,-30.475 111.975,-28.875C112.675,-27.275 113.025,-25.4 113.025,-23.25L113.025,-7.875C113.025,-6.525 113.075,-5.125 113.175,-3.675C113.275,-2.225 113.425,-1 113.625,0L109.05,0C108.9,-0.85 108.775,-1.775 108.675,-2.775C108.575,-3.775 108.525,-4.75 108.525,-5.7L108.375,-5.7C106.775,-3.35 104.962,-1.663 102.938,-0.638C100.912,0.388 98.475,0.9 95.625,0.9C94.275,0.9 92.887,0.713 91.462,0.338C90.037,-0.037 88.738,-0.65 87.563,-1.5C86.387,-2.35 85.412,-3.45 84.637,-4.8C83.863,-6.15 83.475,-7.8 83.475,-9.75C83.475,-12.45 84.162,-14.588 85.537,-16.163C86.912,-17.738 88.75,-18.912 91.05,-19.688C93.35,-20.462 95.988,-20.963 98.962,-21.188C101.938,-21.413 105.025,-21.525 108.225,-21.525L108.225,-22.65ZM106.725,-17.55C104.625,-17.55 102.512,-17.463 100.387,-17.288C98.262,-17.113 96.337,-16.763 94.613,-16.238C92.887,-15.713 91.475,-14.95 90.375,-13.95C89.275,-12.95 88.725,-11.625 88.725,-9.975C88.725,-8.725 88.962,-7.675 89.438,-6.825C89.912,-5.975 90.55,-5.287 91.35,-4.763C92.15,-4.238 93.037,-3.862 94.012,-3.638C94.988,-3.413 95.975,-3.3 96.975,-3.3C98.775,-3.3 100.375,-3.612 101.775,-4.238C103.175,-4.863 104.35,-5.713 105.3,-6.787C106.25,-7.863 106.975,-9.1 107.475,-10.5C107.975,-11.9 108.225,-13.375 108.225,-14.925L108.225,-17.55L106.725,-17.55Z" style="fill:rgb(21,12,102);fill-rule:nonzero;stroke:rgb(21,12,102);stroke-width:1px;stroke-linecap:butt;stroke-miterlimit:2;"/>
            <path d="M126.15,-27.375C126.15,-28.325 126.125,-29.55 126.075,-31.05C126.025,-32.55 125.95,-33.9 125.85,-35.1L130.725,-35.1C130.825,-34.15 130.9,-33.1 130.95,-31.95C131,-30.8 131.025,-29.85 131.025,-29.1L131.175,-29.1C132.175,-31.15 133.675,-32.813 135.675,-34.088C137.675,-35.363 139.925,-36 142.425,-36C143.075,-36 143.663,-35.975 144.188,-35.925C144.713,-35.875 145.25,-35.775 145.8,-35.625L145.125,-30.825C144.825,-30.925 144.325,-31.025 143.625,-31.125C142.925,-31.225 142.225,-31.275 141.525,-31.275C140.175,-31.275 138.875,-31.025 137.625,-30.525C136.375,-30.025 135.288,-29.237 134.363,-28.163C133.438,-27.087 132.688,-25.712 132.113,-24.038C131.538,-22.363 131.25,-20.35 131.25,-18L131.25,0L126.15,0L126.15,-27.375Z" style="fill:rgb(21,12,102);fill-rule:nonzero;stroke:rgb(21,12,102);stroke-width:1px;stroke-linecap:butt;stroke-miterlimit:2;"/>
            <path d="M157.725,-35.1C157.825,-34.15 157.9,-33.1 157.95,-31.95C158,-30.8 158.025,-29.85 158.025,-29.1L158.175,-29.1C159.175,-31.15 160.8,-32.813 163.05,-34.088C165.3,-35.363 167.675,-36 170.175,-36C174.625,-36 177.963,-34.675 180.188,-32.025C182.413,-29.375 183.525,-25.875 183.525,-21.525L183.525,0L178.425,0L178.425,-19.425C178.425,-21.275 178.275,-22.95 177.975,-24.45C177.675,-25.95 177.163,-27.237 176.438,-28.313C175.713,-29.388 174.738,-30.225 173.513,-30.825C172.288,-31.425 170.75,-31.725 168.9,-31.725C167.55,-31.725 166.238,-31.45 164.963,-30.9C163.688,-30.35 162.55,-29.513 161.55,-28.388C160.55,-27.263 159.75,-25.838 159.15,-24.113C158.55,-22.388 158.25,-20.35 158.25,-18L158.25,0L153.15,0L153.15,-27.375C153.15,-28.325 153.125,-29.55 153.075,-31.05C153.025,-32.55 152.95,-33.9 152.85,-35.1L157.725,-35.1Z" style="fill:rgb(21,12,102);fill-rule:nonzero;stroke:rgb(21,12,102);stroke-width:1px;stroke-linecap:butt;stroke-miterlimit:2;"/>
            <path d="M201.9,0L196.8,0L196.8,-35.1L201.9,-35.1L201.9,0ZM202.95,-48.6C202.95,-47.55 202.575,-46.688 201.825,-46.013C201.075,-45.337 200.25,-45 199.35,-45C198.45,-45 197.625,-45.337 196.875,-46.013C196.125,-46.688 195.75,-47.55 195.75,-48.6C195.75,-49.65 196.125,-50.513 196.875,-51.188C197.625,-51.862 198.45,-52.2 199.35,-52.2C200.25,-52.2 201.075,-51.862 201.825,-51.188C202.575,-50.513 202.95,-49.65 202.95,-48.6Z" style="fill:rgb(21,12,102);fill-rule:nonzero;stroke:rgb(21,12,102);stroke-width:1px;stroke-linecap:butt;stroke-miterlimit:2;"/>
            <path d="M220.05,-35.1C220.15,-34.15 220.225,-33.1 220.275,-31.95C220.325,-30.8 220.35,-29.85 220.35,-29.1L220.5,-29.1C221.5,-31.15 223.125,-32.813 225.375,-34.088C227.625,-35.363 230,-36 232.5,-36C236.95,-36 240.288,-34.675 242.512,-32.025C244.738,-29.375 245.85,-25.875 245.85,-21.525L245.85,0L240.75,0L240.75,-19.425C240.75,-21.275 240.6,-22.95 240.3,-24.45C240,-25.95 239.488,-27.237 238.762,-28.313C238.038,-29.388 237.063,-30.225 235.838,-30.825C234.612,-31.425 233.075,-31.725 231.225,-31.725C229.875,-31.725 228.563,-31.45 227.288,-30.9C226.012,-30.35 224.875,-29.513 223.875,-28.388C222.875,-27.263 222.075,-25.838 221.475,-24.113C220.875,-22.388 220.575,-20.35 220.575,-18L220.575,0L215.475,0L215.475,-27.375C215.475,-28.325 215.45,-29.55 215.4,-31.05C215.35,-32.55 215.275,-33.9 215.175,-35.1L220.05,-35.1Z" style="fill:rgb(21,12,102);fill-rule:nonzero;stroke:rgb(21,12,102);stroke-width:1px;stroke-linecap:butt;stroke-miterlimit:2;"/>
            <path d="M260.925,7.05C262.325,8.85 264.237,10.375 266.662,11.625C269.088,12.875 271.65,13.5 274.35,13.5C276.85,13.5 278.975,13.137 280.725,12.413C282.475,11.688 283.888,10.7 284.963,9.45C286.037,8.2 286.825,6.738 287.325,5.063C287.825,3.388 288.075,1.6 288.075,-0.3L288.075,-6.9L287.925,-6.9C286.575,-4.7 284.662,-3 282.188,-1.8C279.713,-0.6 277.2,0 274.65,0C271.9,0 269.412,-0.45 267.188,-1.35C264.963,-2.25 263.063,-3.488 261.487,-5.063C259.912,-6.638 258.688,-8.525 257.813,-10.725C256.938,-12.925 256.5,-15.3 256.5,-17.85C256.5,-20.35 256.938,-22.7 257.813,-24.9C258.688,-27.1 259.912,-29.025 261.487,-30.675C263.063,-32.325 264.963,-33.625 267.188,-34.575C269.412,-35.525 271.9,-36 274.65,-36C277.2,-36 279.7,-35.4 282.15,-34.2C284.6,-33 286.525,-31.275 287.925,-29.025L288.075,-29.025L288.075,-35.1L293.175,-35.1L293.175,-0.3C293.175,1.6 292.912,3.625 292.388,5.775C291.862,7.925 290.888,9.9 289.463,11.7C288.037,13.5 286.1,15 283.65,16.2C281.2,17.4 278.025,18 274.125,18C270.875,18 267.775,17.375 264.825,16.125C261.875,14.875 259.35,13.15 257.25,10.95L260.925,7.05ZM261.9,-18C261.9,-16.15 262.2,-14.4 262.8,-12.75C263.4,-11.1 264.263,-9.65 265.388,-8.4C266.513,-7.15 267.9,-6.162 269.55,-5.438C271.2,-4.713 273.075,-4.35 275.175,-4.35C277.125,-4.35 278.925,-4.675 280.575,-5.325C282.225,-5.975 283.65,-6.9 284.85,-8.1C286.05,-9.3 286.988,-10.738 287.662,-12.413C288.338,-14.087 288.675,-15.95 288.675,-18C288.675,-19.85 288.338,-21.6 287.662,-23.25C286.988,-24.9 286.05,-26.35 284.85,-27.6C283.65,-28.85 282.225,-29.85 280.575,-30.6C278.925,-31.35 277.125,-31.725 275.175,-31.725C273.075,-31.725 271.2,-31.35 269.55,-30.6C267.9,-29.85 266.513,-28.85 265.388,-27.6C264.263,-26.35 263.4,-24.9 262.8,-23.25C262.2,-21.6 261.9,-19.85 261.9,-18Z" style="fill:rgb(21,12,102);fill-rule:nonzero;stroke:rgb(21,12,102);stroke-width:1px;stroke-linecap:butt;stroke-miterlimit:2;"/>
        </g>
    </g>
</svg>
