<?xml version="1.0" encoding="UTF-8" standalone="no"?>
<!DOCTYPE svg PUBLIC "-//W3C//DTD SVG 1.1//EN" "http://www.w3.org/Graphics/SVG/1.1/DTD/svg11.dtd">
<svg width="100%" height="100%" viewBox="0 0 834 834" version="1.1" xmlns="http://www.w3.org/2000/svg" xmlns:xlink="http://www.w3.org/1999/xlink" xml:space="preserve" xmlns:serif="http://www.serif.com/" style="fill-rule:evenodd;clip-rule:evenodd;stroke-linecap:round;stroke-linejoin:round;stroke-miterlimit:1.5;">
    <g transform="matrix(1.00131,0,0,0.998737,-0.227333,-3.19225)">
        <path d="M829.678,175.905L829.678,665.877C829.678,757.286 755.656,831.499 664.481,831.499L168.301,831.499C77.127,831.499 3.105,757.286 3.105,665.877L3.105,175.905C3.105,84.496 77.127,10.283 168.301,10.283L664.481,10.283C755.656,10.283 829.678,84.496 829.678,175.905Z" style="fill:rgb(243,243,243);"/>
    </g>
    <g id="Multitasking" transform="matrix(1,0,0,1,98.8822,-35.1481)">
        <g transform="matrix(1.10152,0,0,1.03536,-91.3388,57.4434)">
            <path d="M326.488,339.98L375.722,544.121L472.919,534.286L381.725,582.88L342.967,558.657L326.488,339.98Z" style="fill:rgb(21,12,102);stroke:rgb(21,12,102);stroke-width:3.9px;"/>
        </g>
        <g transform="matrix(1,0,0,1,-98.8822,35.1481)">
            <circle cx="379.4" cy="160.419" r="89.303" style="fill:rgb(21,12,102);stroke:rgb(21,12,102);stroke-width:4.17px;"/>
        </g>
        <g transform="matrix(0.948566,-0.316579,0.316579,0.948566,-102.906,-100.826)">
            <path d="M583.228,439.292L507.564,582.88L416.667,549.699L494.759,416.667L583.228,439.292L554.36,362.056L525.575,424.548" style="fill:rgb(21,12,102);stroke:rgb(21,12,102);stroke-width:4.17px;"/>
        </g>
        <g transform="matrix(0.894848,0,0,1,-85.3842,-15.8264)">
            <path d="M375.128,330.807L343.781,519.74L202.329,508.271L321.228,497.771L375.128,330.807Z" style="fill:rgb(21,12,102);stroke:rgb(21,12,102);stroke-width:4.39px;"/>
        </g>
        <g transform="matrix(-0.699406,1.06097,0.611606,0.403179,393.473,-224.518)">
            <path d="M375.128,330.807L385.092,522.583L252.396,487.356L365.8,496.757L375.128,330.807Z" style="fill:rgb(21,12,102);stroke:rgb(21,12,102);stroke-width:4.02px;"/>
        </g>
        <g transform="matrix(1,0,0,1,-98.8822,22.2003)">
            <path d="M252.801,535.228L253.087,565.748L49.948,565.748L51.497,537.093L252.801,535.228Z" style="fill:rgb(21,12,102);stroke:rgb(21,12,102);stroke-width:8.33px;"/>
        </g>
        <g transform="matrix(1,0,0,1,-106.464,-114.238)">
            <path d="M498.453,775.174L501.941,700.252L567.681,697.049L611.053,632.77L681.434,680.627L586.202,767.159L498.453,775.174Z" style="fill:rgb(21,12,102);"/>
        </g>
        <g transform="matrix(1,0,0,1,-94.9816,40.4219)">
            <path d="M443.923,364.394L560.659,473.434L712.998,307.524L560.659,416.667L443.923,364.394Z" style="fill:rgb(21,12,102);stroke:rgb(21,12,102);stroke-width:4.17px;"/>
        </g>
        <g transform="matrix(0.690231,0,0,0.690231,-37.8176,210.717)">
            <g transform="matrix(108.659,0,0,108.659,50.0612,784.068)">
                <path d="M0.423,-0.162L0.424,-0.162L0.734,-0.708L0.886,-0.708L0.762,-0L0.665,-0L0.77,-0.591L0.767,-0.591L0.426,-0L0.364,-0L0.233,-0.591L0.231,-0.591L0.126,-0L0.032,-0L0.157,-0.708L0.308,-0.708L0.423,-0.162Z" style="fill:rgb(21,12,102);fill-rule:nonzero;"/>
            </g>
            <g transform="matrix(108.659,0,0,108.659,148.18,784.068)">
                <path d="M0.352,-0C0.353,-0.009 0.355,-0.022 0.357,-0.038C0.359,-0.053 0.361,-0.066 0.362,-0.077L0.36,-0.077C0.343,-0.05 0.321,-0.028 0.294,-0.012C0.267,0.005 0.236,0.013 0.202,0.013C0.15,0.013 0.111,-0.001 0.084,-0.029C0.057,-0.056 0.043,-0.091 0.043,-0.134C0.043,-0.141 0.044,-0.149 0.045,-0.157C0.046,-0.165 0.047,-0.173 0.048,-0.181L0.1,-0.474L0.192,-0.474L0.146,-0.213C0.145,-0.204 0.144,-0.195 0.143,-0.186C0.142,-0.177 0.141,-0.168 0.141,-0.159C0.141,-0.132 0.148,-0.109 0.161,-0.092C0.174,-0.075 0.198,-0.066 0.232,-0.066C0.269,-0.066 0.302,-0.08 0.33,-0.109C0.357,-0.137 0.375,-0.175 0.383,-0.222L0.428,-0.474L0.52,-0.474L0.455,-0.103C0.452,-0.09 0.45,-0.074 0.447,-0.054C0.444,-0.034 0.441,-0.016 0.44,-0L0.352,-0Z" style="fill:rgb(21,12,102);fill-rule:nonzero;"/>
            </g>
            <g transform="matrix(108.659,0,0,108.659,211.312,784.068)">
                <path d="M0.122,-0L0.029,-0L0.162,-0.756L0.256,-0.756L0.122,-0Z" style="fill:rgb(21,12,102);fill-rule:nonzero;"/>
            </g>
            <g transform="matrix(108.659,0,0,108.659,239.563,784.068)">
                <path d="M0.315,-0.398L0.198,-0.398L0.153,-0.149C0.151,-0.138 0.15,-0.128 0.15,-0.119C0.15,-0.099 0.155,-0.086 0.166,-0.079C0.176,-0.072 0.19,-0.068 0.207,-0.068C0.216,-0.068 0.226,-0.069 0.235,-0.071C0.244,-0.073 0.252,-0.076 0.258,-0.079L0.251,-0.005C0.242,-0.001 0.23,0.002 0.217,0.005C0.203,0.007 0.189,0.008 0.176,0.008C0.139,0.008 0.11,-0 0.089,-0.017C0.067,-0.033 0.056,-0.059 0.056,-0.094C0.056,-0.101 0.056,-0.109 0.057,-0.117C0.058,-0.125 0.059,-0.133 0.06,-0.141L0.106,-0.398L0.016,-0.398L0.03,-0.474L0.119,-0.474L0.142,-0.61L0.234,-0.61L0.21,-0.474L0.329,-0.474L0.315,-0.398Z" style="fill:rgb(21,12,102);fill-rule:nonzero;"/>
            </g>
            <g transform="matrix(108.659,0,0,108.659,274.768,784.068)">
                <path d="M0.121,-0L0.029,-0L0.112,-0.474L0.205,-0.474L0.121,-0ZM0.245,-0.647C0.245,-0.63 0.239,-0.616 0.228,-0.604C0.217,-0.592 0.203,-0.586 0.186,-0.586C0.17,-0.586 0.156,-0.591 0.145,-0.601C0.133,-0.611 0.127,-0.625 0.127,-0.643C0.127,-0.661 0.133,-0.676 0.146,-0.688C0.158,-0.699 0.172,-0.705 0.188,-0.705C0.204,-0.705 0.218,-0.7 0.229,-0.689C0.24,-0.678 0.245,-0.664 0.245,-0.647Z" style="fill:rgb(21,12,102);fill-rule:nonzero;"/>
            </g>
            <g transform="matrix(108.659,0,0,108.659,302.911,784.068)">
                <path d="M0.315,-0.398L0.198,-0.398L0.153,-0.149C0.151,-0.138 0.15,-0.128 0.15,-0.119C0.15,-0.099 0.155,-0.086 0.166,-0.079C0.176,-0.072 0.19,-0.068 0.207,-0.068C0.216,-0.068 0.226,-0.069 0.235,-0.071C0.244,-0.073 0.252,-0.076 0.258,-0.079L0.251,-0.005C0.242,-0.001 0.23,0.002 0.217,0.005C0.203,0.007 0.189,0.008 0.176,0.008C0.139,0.008 0.11,-0 0.089,-0.017C0.067,-0.033 0.056,-0.059 0.056,-0.094C0.056,-0.101 0.056,-0.109 0.057,-0.117C0.058,-0.125 0.059,-0.133 0.06,-0.141L0.106,-0.398L0.016,-0.398L0.03,-0.474L0.119,-0.474L0.142,-0.61L0.234,-0.61L0.21,-0.474L0.329,-0.474L0.315,-0.398Z" style="fill:rgb(21,12,102);fill-rule:nonzero;"/>
            </g>
            <g transform="matrix(108.659,0,0,108.659,338.117,784.068)">
                <path d="M0.37,-0.296C0.371,-0.305 0.372,-0.313 0.373,-0.318C0.374,-0.323 0.374,-0.328 0.374,-0.333C0.374,-0.361 0.365,-0.381 0.348,-0.394C0.331,-0.406 0.306,-0.412 0.274,-0.412C0.249,-0.412 0.223,-0.407 0.198,-0.397C0.173,-0.387 0.151,-0.375 0.132,-0.36L0.094,-0.422C0.119,-0.442 0.149,-0.458 0.183,-0.47C0.217,-0.481 0.252,-0.487 0.287,-0.487C0.31,-0.487 0.331,-0.485 0.353,-0.48C0.374,-0.475 0.392,-0.467 0.409,-0.456C0.425,-0.444 0.438,-0.43 0.448,-0.412C0.458,-0.394 0.463,-0.372 0.463,-0.347C0.463,-0.341 0.463,-0.333 0.462,-0.324C0.461,-0.314 0.46,-0.306 0.459,-0.299L0.424,-0.107C0.421,-0.088 0.418,-0.069 0.416,-0.05C0.414,-0.03 0.413,-0.013 0.413,-0L0.328,-0C0.328,-0.01 0.329,-0.021 0.33,-0.032C0.331,-0.043 0.332,-0.055 0.334,-0.066L0.332,-0.066C0.309,-0.039 0.285,-0.02 0.258,-0.008C0.231,0.004 0.2,0.01 0.164,0.01C0.148,0.01 0.131,0.008 0.114,0.004C0.097,0 0.081,-0.007 0.067,-0.017C0.052,-0.026 0.04,-0.039 0.031,-0.055C0.022,-0.071 0.017,-0.091 0.017,-0.115C0.017,-0.154 0.028,-0.185 0.049,-0.209C0.07,-0.232 0.098,-0.251 0.132,-0.264C0.165,-0.277 0.203,-0.285 0.245,-0.29C0.287,-0.294 0.329,-0.296 0.37,-0.296ZM0.345,-0.228C0.319,-0.228 0.292,-0.227 0.264,-0.225C0.236,-0.222 0.211,-0.218 0.188,-0.211C0.165,-0.204 0.146,-0.193 0.131,-0.18C0.116,-0.167 0.109,-0.149 0.109,-0.128C0.109,-0.115 0.112,-0.104 0.117,-0.096C0.122,-0.087 0.128,-0.08 0.137,-0.075C0.145,-0.07 0.154,-0.066 0.165,-0.064C0.175,-0.062 0.185,-0.061 0.196,-0.061C0.217,-0.061 0.236,-0.065 0.254,-0.072C0.272,-0.079 0.288,-0.088 0.301,-0.1C0.314,-0.112 0.326,-0.126 0.335,-0.142C0.343,-0.158 0.35,-0.175 0.353,-0.193L0.36,-0.228L0.345,-0.228Z" style="fill:rgb(21,12,102);fill-rule:nonzero;"/>
            </g>
            <g transform="matrix(108.659,0,0,108.659,396.467,784.068)">
                <path d="M0.347,-0.36C0.338,-0.375 0.325,-0.388 0.309,-0.398C0.293,-0.408 0.272,-0.413 0.247,-0.413C0.236,-0.413 0.224,-0.412 0.213,-0.41C0.202,-0.407 0.191,-0.404 0.182,-0.399C0.172,-0.394 0.164,-0.387 0.158,-0.378C0.152,-0.369 0.149,-0.359 0.149,-0.347C0.149,-0.327 0.156,-0.313 0.171,-0.304C0.186,-0.295 0.207,-0.287 0.234,-0.28C0.279,-0.267 0.314,-0.25 0.339,-0.229C0.363,-0.208 0.375,-0.178 0.375,-0.139C0.375,-0.113 0.369,-0.09 0.358,-0.071C0.347,-0.052 0.332,-0.036 0.314,-0.023C0.295,-0.01 0.274,-0.001 0.251,0.006C0.228,0.012 0.204,0.015 0.18,0.015C0.135,0.015 0.095,0.007 0.063,-0.01C0.029,-0.027 0.004,-0.049 -0.014,-0.078L0.061,-0.127C0.072,-0.108 0.088,-0.092 0.109,-0.08C0.13,-0.068 0.153,-0.062 0.18,-0.062C0.208,-0.062 0.232,-0.068 0.253,-0.08C0.274,-0.091 0.284,-0.109 0.284,-0.132C0.284,-0.153 0.276,-0.168 0.26,-0.179C0.243,-0.19 0.219,-0.2 0.186,-0.211C0.167,-0.217 0.15,-0.223 0.135,-0.23C0.12,-0.237 0.106,-0.245 0.095,-0.255C0.084,-0.265 0.075,-0.277 0.069,-0.29C0.062,-0.303 0.059,-0.32 0.059,-0.339C0.059,-0.362 0.064,-0.383 0.075,-0.402C0.086,-0.42 0.1,-0.435 0.118,-0.448C0.136,-0.461 0.157,-0.47 0.181,-0.477C0.204,-0.484 0.229,-0.487 0.254,-0.487C0.291,-0.487 0.324,-0.48 0.353,-0.466C0.382,-0.452 0.404,-0.432 0.419,-0.407L0.347,-0.36Z" style="fill:rgb(21,12,102);fill-rule:nonzero;"/>
            </g>
            <g transform="matrix(108.659,0,0,108.659,444.712,784.068)">
                <path d="M0.169,-0.267L0.172,-0.267L0.4,-0.474L0.523,-0.474L0.267,-0.254L0.462,-0L0.345,-0L0.168,-0.246L0.165,-0.246L0.122,-0L0.029,-0L0.162,-0.756L0.255,-0.756L0.169,-0.267Z" style="fill:rgb(21,12,102);fill-rule:nonzero;"/>
            </g>
            <g transform="matrix(108.659,0,0,108.659,499.476,784.068)">
                <path d="M0.121,-0L0.029,-0L0.112,-0.474L0.205,-0.474L0.121,-0ZM0.245,-0.647C0.245,-0.63 0.239,-0.616 0.228,-0.604C0.217,-0.592 0.203,-0.586 0.186,-0.586C0.17,-0.586 0.156,-0.591 0.145,-0.601C0.133,-0.611 0.127,-0.625 0.127,-0.643C0.127,-0.661 0.133,-0.676 0.146,-0.688C0.158,-0.699 0.172,-0.705 0.188,-0.705C0.204,-0.705 0.218,-0.7 0.229,-0.689C0.24,-0.678 0.245,-0.664 0.245,-0.647Z" style="fill:rgb(21,12,102);fill-rule:nonzero;"/>
            </g>
            <g transform="matrix(108.659,0,0,108.659,527.619,784.068)">
                <path d="M0.196,-0.474C0.195,-0.465 0.193,-0.452 0.192,-0.437C0.19,-0.421 0.188,-0.408 0.186,-0.397L0.188,-0.397C0.205,-0.424 0.228,-0.446 0.255,-0.463C0.282,-0.479 0.312,-0.487 0.346,-0.487C0.398,-0.487 0.438,-0.473 0.465,-0.446C0.492,-0.418 0.505,-0.383 0.505,-0.341C0.505,-0.324 0.504,-0.308 0.501,-0.293L0.449,-0L0.356,-0L0.402,-0.262C0.406,-0.28 0.408,-0.298 0.408,-0.315C0.408,-0.342 0.401,-0.365 0.388,-0.382C0.375,-0.399 0.351,-0.408 0.316,-0.408C0.279,-0.408 0.246,-0.394 0.219,-0.366C0.192,-0.337 0.174,-0.299 0.165,-0.252L0.121,-0L0.028,-0L0.093,-0.371C0.096,-0.384 0.098,-0.4 0.102,-0.42C0.105,-0.44 0.107,-0.458 0.108,-0.474L0.196,-0.474Z" style="fill:rgb(21,12,102);fill-rule:nonzero;"/>
            </g>
            <g transform="matrix(108.659,0,0,108.659,590.75,784.068)">
                <path d="M0.051,0.083C0.068,0.106 0.091,0.125 0.121,0.139C0.15,0.152 0.181,0.159 0.214,0.159C0.245,0.159 0.272,0.155 0.294,0.146C0.316,0.136 0.335,0.124 0.35,0.109C0.365,0.093 0.376,0.074 0.385,0.053C0.394,0.032 0.401,0.009 0.406,-0.016L0.418,-0.079L0.416,-0.079C0.397,-0.053 0.372,-0.033 0.343,-0.018C0.314,-0.003 0.281,0.005 0.245,0.005C0.214,0.005 0.185,-0 0.16,-0.011C0.135,-0.021 0.113,-0.035 0.095,-0.053C0.077,-0.071 0.063,-0.093 0.054,-0.118C0.044,-0.143 0.039,-0.171 0.039,-0.201C0.039,-0.24 0.046,-0.277 0.059,-0.312C0.072,-0.347 0.091,-0.377 0.115,-0.403C0.139,-0.429 0.167,-0.45 0.2,-0.465C0.233,-0.48 0.269,-0.487 0.308,-0.487C0.347,-0.487 0.38,-0.479 0.409,-0.463C0.438,-0.447 0.458,-0.425 0.471,-0.397L0.474,-0.397L0.487,-0.474L0.577,-0.474L0.498,-0.023C0.492,0.011 0.483,0.044 0.472,0.076C0.46,0.107 0.443,0.135 0.422,0.16C0.4,0.184 0.372,0.203 0.339,0.218C0.305,0.233 0.263,0.24 0.213,0.24C0.17,0.24 0.129,0.232 0.088,0.217C0.047,0.201 0.014,0.179 -0.011,0.15L0.051,0.083ZM0.134,-0.208C0.134,-0.189 0.137,-0.171 0.143,-0.155C0.149,-0.138 0.158,-0.124 0.169,-0.111C0.18,-0.098 0.194,-0.089 0.211,-0.082C0.228,-0.075 0.247,-0.071 0.268,-0.071C0.295,-0.071 0.319,-0.077 0.342,-0.088C0.365,-0.099 0.384,-0.113 0.401,-0.132C0.418,-0.15 0.431,-0.171 0.44,-0.196C0.449,-0.221 0.454,-0.247 0.454,-0.274C0.454,-0.313 0.442,-0.346 0.418,-0.372C0.393,-0.398 0.36,-0.411 0.318,-0.411C0.291,-0.411 0.266,-0.406 0.243,-0.396C0.22,-0.385 0.201,-0.371 0.185,-0.353C0.169,-0.335 0.157,-0.314 0.148,-0.289C0.138,-0.264 0.134,-0.237 0.134,-0.208Z" style="fill:rgb(21,12,102);fill-rule:nonzero;"/>
            </g>
        </g>
        <g transform="matrix(1,0,0,1.47126,-98.8822,-143.029)">
            <path d="M719.333,333.711L719.333,511.318" style="fill:none;stroke:rgb(21,12,102);stroke-width:6.62px;"/>
        </g>
        <g transform="matrix(1,0,0,1,-98.0365,109.629)">
            <circle cx="718.487" cy="519.395" r="19.773" style="fill:rgb(21,12,102);stroke:rgb(21,12,102);stroke-width:8.33px;"/>
        </g>
        <g transform="matrix(1,0,0,1,-98.8822,22.2003)">
            <path d="M235.209,531.052L233.894,526.64L224.137,526.741L222.751,532.01L235.209,531.052Z" style="fill:rgb(21,12,102);stroke:rgb(21,12,102);stroke-width:4.17px;"/>
        </g>
        <g transform="matrix(-0.958044,0,0,1.10126,191.132,-28.4532)">
            <path d="M235.209,531.052L233.894,526.64L224.137,526.741L222.751,532.01L235.209,531.052Z" style="fill:rgb(21,12,102);stroke:rgb(21,12,102);stroke-width:4.04px;"/>
        </g>
        <g transform="matrix(1,0,0,1,-98.8822,22.2003)">
            <path d="M228.98,526.64L228.98,512.147L222.751,508.284L219.272,508.318L219.001,504.759L225.67,504.074L235.209,500.228L235.209,504.776L232.245,513.007L228.98,526.64Z" style="fill:rgb(21,12,102);stroke:rgb(21,12,102);stroke-width:4.17px;"/>
        </g>
        <g transform="matrix(-0.958044,0,0,1.10126,191.132,-28.4532)">
            <path d="M228.98,526.64L228.98,512.147L222.751,508.284L219.272,508.318L219.001,504.759L225.67,504.074L235.209,500.228L235.209,504.776L232.245,513.007L228.98,526.64Z" style="fill:rgb(21,12,102);stroke:rgb(21,12,102);stroke-width:4.04px;"/>
        </g>
        <g transform="matrix(1,0,0,1,-98.8822,22.2003)">
            <path d="M211.535,532.01L210.832,526.64L200.792,526.64L199.569,532.271L211.535,532.01Z" style="fill:rgb(21,12,102);stroke:rgb(21,12,102);stroke-width:4.17px;"/>
        </g>
        <g transform="matrix(1,0,0,1,-211.776,24.1679)">
            <path d="M211.535,532.01L210.832,526.64L200.792,526.64L199.569,532.271L211.535,532.01Z" style="fill:rgb(21,12,102);stroke:rgb(21,12,102);stroke-width:4.17px;"/>
        </g>
        <g transform="matrix(1,0,0,1,-166.232,24.1679)">
            <path d="M211.535,532.01L210.832,526.64L200.792,526.64L199.569,532.271L211.535,532.01Z" style="fill:rgb(21,12,102);stroke:rgb(21,12,102);stroke-width:4.17px;"/>
        </g>
        <g transform="matrix(1,0,0,1,-112.116,24.1679)">
            <path d="M211.535,532.01L210.832,526.64L200.792,526.64L199.569,532.271L211.535,532.01Z" style="fill:rgb(21,12,102);stroke:rgb(21,12,102);stroke-width:4.17px;"/>
        </g>
        <g transform="matrix(1.29372,0,0,1,-160.799,22.2003)">
            <path d="M205.552,526.64L205.552,514.771L208.636,514.771L207.97,526.64L205.552,526.64Z" style="fill:rgb(21,12,102);stroke:rgb(21,12,102);stroke-width:3.6px;"/>
        </g>
        <g transform="matrix(1.29372,0,0,1,-273.692,24.1679)">
            <path d="M205.552,526.64L205.552,514.771L208.636,514.771L207.97,526.64L205.552,526.64Z" style="fill:rgb(21,12,102);stroke:rgb(21,12,102);stroke-width:3.6px;"/>
        </g>
        <g transform="matrix(1.29372,0,0,1,-228.148,24.1679)">
            <path d="M205.552,526.64L205.552,514.771L208.636,514.771L207.97,526.64L205.552,526.64Z" style="fill:rgb(21,12,102);stroke:rgb(21,12,102);stroke-width:3.6px;"/>
        </g>
        <g transform="matrix(1.29372,0,0,1,-174.033,24.1679)">
            <path d="M205.552,526.64L205.552,514.771L208.636,514.771L207.97,526.64L205.552,526.64Z" style="fill:rgb(21,12,102);stroke:rgb(21,12,102);stroke-width:3.6px;"/>
        </g>
        <g transform="matrix(1,0,0,1,-98.8822,25.0767)">
            <ellipse cx="206.005" cy="507.085" rx="1.995" ry="1.968" style="fill:rgb(21,12,102);stroke:rgb(21,12,102);stroke-width:4.17px;"/>
        </g>
        <g transform="matrix(1,0,0,1,-211.776,27.0442)">
            <ellipse cx="206.005" cy="507.085" rx="1.995" ry="1.968" style="fill:rgb(21,12,102);stroke:rgb(21,12,102);stroke-width:4.17px;"/>
        </g>
        <g transform="matrix(1,0,0,1,-166.232,27.0442)">
            <ellipse cx="206.005" cy="507.085" rx="1.995" ry="1.968" style="fill:rgb(21,12,102);stroke:rgb(21,12,102);stroke-width:4.17px;"/>
        </g>
        <g transform="matrix(1,0,0,1,-112.116,27.0442)">
            <ellipse cx="206.005" cy="507.085" rx="1.995" ry="1.968" style="fill:rgb(21,12,102);stroke:rgb(21,12,102);stroke-width:4.17px;"/>
        </g>
        <g transform="matrix(1,0,0,1,-98.8822,22.2003)">
            <path d="M108.85,534.239L122.041,534.239L116.705,508.636L113.324,508.355L108.85,534.239Z" style="fill:rgb(21,12,102);stroke:rgb(21,12,102);stroke-width:4.17px;"/>
        </g>
        <g transform="matrix(1,0,0,1,-98.8822,22.2003)">
            <path d="M120.336,506.826L108.85,506.261L112.773,500.312L117.881,500.397L120.336,506.826Z" style="fill:rgb(21,12,102);stroke:rgb(21,12,102);stroke-width:4.17px;"/>
        </g>
        <g transform="matrix(1,0,0,1,-98.8822,22.2003)">
            <path d="M117.568,499.355L121.217,489.396L111.215,489.022L112.779,500.312" style="fill:rgb(21,12,102);stroke:rgb(21,12,102);stroke-width:4.17px;"/>
        </g>
        <g transform="matrix(1,0,0,1,-98.8822,22.2003)">
            <path d="M116.525,487.405L116.645,483.059L120.336,482.619L112.666,481.941L116.645,483.059L117.038,476.915" style="fill:rgb(21,12,102);stroke:rgb(21,12,102);stroke-width:4.17px;"/>
        </g>
        <g transform="matrix(1,0,0,1,-98.8822,22.2003)">
            <path d="M177.064,532.926L175.944,526.196L168.492,526.102L166.69,534.239L177.064,532.926Z" style="fill:rgb(21,12,102);stroke:rgb(21,12,102);stroke-width:4.17px;"/>
        </g>
        <g transform="matrix(1,0,0,1,-98.8822,22.2003)">
            <path d="M169.188,526.102L171.877,509.962L173.588,509.962L174.669,526.102" style="fill:rgb(21,12,102);stroke:rgb(21,12,102);stroke-width:4.17px;"/>
        </g>
        <g transform="matrix(1.12789,0,0,1.05547,-121.425,-5.52113)">
            <ellipse cx="173.524" cy="504.842" rx="2.737" ry="5.12" style="fill:rgb(21,12,102);stroke:rgb(21,12,102);stroke-width:3.81px;"/>
        </g>
        <g transform="matrix(1,0,0,1,-98.8822,22.2003)">
            <ellipse cx="173.588" cy="496.9" rx="1.08" ry="2.233" style="fill:rgb(21,12,102);stroke:rgb(21,12,102);stroke-width:4.17px;"/>
        </g>
    </g>
</svg>
