<?xml version="1.0" encoding="UTF-8" standalone="no"?>
<!DOCTYPE svg PUBLIC "-//W3C//DTD SVG 1.1//EN" "http://www.w3.org/Graphics/SVG/1.1/DTD/svg11.dtd">
<svg width="100%" height="100%" viewBox="0 0 834 834" version="1.1" xmlns="http://www.w3.org/2000/svg" xmlns:xlink="http://www.w3.org/1999/xlink" xml:space="preserve" xmlns:serif="http://www.serif.com/" style="fill-rule:evenodd;clip-rule:evenodd;stroke-linecap:round;stroke-linejoin:round;stroke-miterlimit:1.5;">
    <g transform="matrix(1.00131,0,0,0.998737,-0.227333,-3.19225)">
        <path d="M829.678,175.905L829.678,665.877C829.678,757.286 755.656,831.499 664.481,831.499L168.301,831.499C77.127,831.499 3.105,757.286 3.105,665.877L3.105,175.905C3.105,84.496 77.127,10.283 168.301,10.283L664.481,10.283C755.656,10.283 829.678,84.496 829.678,175.905Z" style="fill:rgb(243,243,243);"/>
    </g>
    <g id="Problem-Solving">
        <g transform="matrix(1,0,0,1,122.284,64.0387)">
            <path d="M646.857,630.02L416.667,630.149L451.007,585.555L613.127,586.514L646.857,630.02Z" style="fill:rgb(21,12,102);stroke:rgb(21,12,102);stroke-width:8.33px;"/>
        </g>
        <g transform="matrix(1,0,0,1,122.284,64.0387)">
            <path d="M502.513,585.555L508.077,268.454L577.408,269.442L571.838,585.555L502.513,585.555Z" style="fill:none;stroke:rgb(21,12,102);stroke-width:8.33px;"/>
        </g>
        <g transform="matrix(1.03106,0,0,1,104.211,127.287)">
            <path d="M512.817,314.878C512.298,313.195 510.769,311.975 508.966,311.975C506.736,311.975 504.925,313.842 504.925,316.142C504.925,319.419 506.997,321.957 510.878,323.011C515.816,324.35 524.434,322.933 527.056,321.622C532.339,318.981 537.028,316.133 541.711,314.084C547.865,311.39 553.999,310.198 561.839,313.557C565.232,315.012 569.24,317.37 570.645,320.706C571.533,322.815 573.915,323.784 575.961,322.868C578.007,321.953 578.947,319.497 578.059,317.387C575.899,312.257 570.159,308.099 564.941,305.862C554.665,301.458 546.62,302.882 538.553,306.413C533.754,308.513 528.943,311.417 523.53,314.124C522.551,314.614 520.273,315.019 517.914,315.196C516.607,315.294 515.27,315.307 514.085,315.164C513.69,315.116 513.178,314.983 512.817,314.878Z" style="fill:rgb(21,12,102);"/>
        </g>
        <g transform="matrix(1,0,0,1,121.753,115.014)">
            <circle cx="540.493" cy="356.122" r="19.907" style="fill:rgb(21,12,102);stroke:rgb(21,12,102);stroke-width:8.33px;"/>
        </g>
        <g transform="matrix(1,0,0,1,116.166,36.5407)">
            <path d="M502.513,210.785C495.087,223.629 462.916,218.831 462.916,218.831L399.667,284.281L339.891,244.26L416.667,146.167C416.667,146.167 509.94,197.942 502.513,210.785Z" style="fill:none;stroke:rgb(21,12,102);stroke-width:8.33px;"/>
        </g>
        <g transform="matrix(1,0,0,1,116.166,36.5407)">
            <path d="M406.381,157.517L381.599,140.65L339.891,194.633L360.984,215.224" style="fill:none;stroke:rgb(21,12,102);stroke-width:8.33px;"/>
        </g>
        <g transform="matrix(0.737904,-0.674905,0.675917,0.73901,42.5812,295.008)">
            <path d="M382.986,225.621L179.101,301.545L78.194,168.718L126.849,161.949L222.564,254.096L382.986,225.621Z" style="fill:rgb(21,12,102);stroke:rgb(21,12,102);stroke-width:8.33px;"/>
        </g>
        <g transform="matrix(1,0,0,1,110.552,79.6619)">
            <circle cx="201.354" cy="123.603" r="82.12" style="fill:rgb(21,12,102);stroke:rgb(21,12,102);stroke-width:8.33px;"/>
        </g>
        <g transform="matrix(1,0,0,1,62,-66.0887)">
            <path d="M579.481,472.523C577.739,473.923 577.41,476.466 578.761,478.267C580.141,480.107 582.754,480.48 584.594,479.1C585.497,478.423 586.388,477.346 587.131,476.004C588.155,474.156 588.956,471.648 589.573,470.345C591.671,465.916 593.724,461.657 595.014,456.926C598.759,443.194 600.588,426.389 596.4,412.429C593.827,403.853 588.663,396.346 586.012,387.863C584.837,384.104 582.648,380.592 581.877,376.736C580.87,371.7 581.251,365.94 581.251,360.814C581.251,360.396 582.174,355.188 582.385,354.004C582.859,353.328 583.137,352.506 583.137,351.619C583.137,349.319 581.27,347.452 578.97,347.452C577.887,347.452 576.207,347.814 575.082,349.817C574.73,350.444 574.272,351.8 573.936,353.457C573.354,356.335 572.917,360.321 572.917,360.814C572.917,366.468 572.595,372.816 573.705,378.371C574.533,382.51 576.797,386.313 578.058,390.349C580.7,398.802 585.854,406.278 588.418,414.824C592.175,427.347 590.334,442.415 586.975,454.733C585.815,458.986 583.927,462.797 582.042,466.778C581.604,467.701 581.077,469.237 580.444,470.708C580.165,471.356 579.558,472.393 579.481,472.523ZM579.336,355.768L579.225,355.777L579.27,355.775L579.336,355.768ZM580.203,355.599C579.968,355.672 579.723,355.725 579.472,355.754C579.714,355.727 579.958,355.677 580.203,355.599Z" style="fill:rgb(21,12,102);"/>
        </g>
        <g transform="matrix(1,0,0,1,62,-66.0887)">
            <path d="M618.462,456.438C620.553,453.976 621.794,450.227 622.372,446.072C623.067,441.075 622.88,435.455 623.201,431.922C624.563,416.939 624.06,401.49 617.647,387.596C615.786,383.562 613.092,379.812 610.489,376.03C608.246,372.772 606.061,369.496 604.85,365.862C603.17,360.822 603.649,357.129 603.649,352.09C603.649,349.79 601.782,347.923 599.482,347.923C597.183,347.923 595.316,349.79 595.316,352.09C595.316,358.1 594.94,362.486 596.944,368.497C599.657,376.637 606.489,383.305 610.081,391.088C615.876,403.644 616.133,417.628 614.902,431.168C614.59,434.602 614.794,440.066 614.118,444.924C613.782,447.34 613.326,449.612 612.111,451.044C610.622,452.796 610.836,455.428 612.589,456.917C614.342,458.405 616.973,458.191 618.462,456.438Z" style="fill:rgb(21,12,102);"/>
        </g>
        <g transform="matrix(1,0,0,1,35.1405,-84.0887)">
            <path d="M468.34,305.426C469.028,303.605 488.548,283.767 493.588,297.112C498.629,310.458 579.041,328.828 579.041,328.828L544.278,339.737L480.99,398.582L426.632,364.713C426.632,364.713 467.652,307.247 468.34,305.426Z" style="fill:rgb(21,12,102);stroke:rgb(21,12,102);stroke-width:8.33px;"/>
        </g>
        <g transform="matrix(1,0,0,1,38.6618,591.836)">
            <path d="M7.05,-53.1L22.05,-53.1C24.75,-53.1 27.2,-52.812 29.4,-52.237C31.6,-51.662 33.488,-50.787 35.063,-49.612C36.637,-48.437 37.85,-46.962 38.7,-45.187C39.55,-43.412 39.975,-41.325 39.975,-38.925C39.975,-36.525 39.538,-34.437 38.662,-32.662C37.787,-30.887 36.563,-29.412 34.988,-28.237C33.413,-27.062 31.512,-26.175 29.288,-25.575C27.063,-24.975 24.6,-24.675 21.9,-24.675L12.45,-24.675L12.45,0L7.05,0L7.05,-53.1ZM12.45,-29.25L21.6,-29.25C25.85,-29.25 29.075,-30.075 31.275,-31.725C33.475,-33.375 34.575,-35.775 34.575,-38.925C34.575,-42.225 33.438,-44.637 31.163,-46.162C28.888,-47.687 25.7,-48.45 21.6,-48.45L12.45,-48.45L12.45,-29.25Z" style="fill:rgb(21,12,102);fill-rule:nonzero;stroke:rgb(21,12,102);stroke-width:1px;stroke-linecap:butt;stroke-miterlimit:2;"/>
            <path d="M46.65,-27.375C46.65,-28.325 46.625,-29.55 46.575,-31.05C46.525,-32.55 46.45,-33.9 46.35,-35.1L51.225,-35.1C51.325,-34.15 51.4,-33.1 51.45,-31.95C51.5,-30.8 51.525,-29.85 51.525,-29.1L51.675,-29.1C52.675,-31.15 54.175,-32.812 56.175,-34.087C58.175,-35.362 60.425,-36 62.925,-36C63.575,-36 64.162,-35.975 64.688,-35.925C65.213,-35.875 65.75,-35.775 66.3,-35.625L65.625,-30.825C65.325,-30.925 64.825,-31.025 64.125,-31.125C63.425,-31.225 62.725,-31.275 62.025,-31.275C60.675,-31.275 59.375,-31.025 58.125,-30.525C56.875,-30.025 55.787,-29.237 54.862,-28.162C53.938,-27.087 53.188,-25.712 52.612,-24.037C52.038,-22.362 51.75,-20.35 51.75,-18L51.75,0L46.65,0L46.65,-27.375Z" style="fill:rgb(21,12,102);fill-rule:nonzero;stroke:rgb(21,12,102);stroke-width:1px;stroke-linecap:butt;stroke-miterlimit:2;"/>
            <path d="M107.175,-17.55C107.175,-14.9 106.713,-12.45 105.787,-10.2C104.863,-7.95 103.575,-6 101.925,-4.35C100.275,-2.7 98.3,-1.412 96,-0.487C93.7,0.438 91.175,0.9 88.425,0.9C85.725,0.9 83.225,0.438 80.925,-0.487C78.625,-1.412 76.65,-2.7 75,-4.35C73.35,-6 72.063,-7.95 71.138,-10.2C70.212,-12.45 69.75,-14.9 69.75,-17.55C69.75,-20.2 70.212,-22.65 71.138,-24.9C72.063,-27.15 73.35,-29.1 75,-30.75C76.65,-32.4 78.625,-33.687 80.925,-34.612C83.225,-35.537 85.725,-36 88.425,-36C91.175,-36 93.7,-35.537 96,-34.612C98.3,-33.687 100.275,-32.4 101.925,-30.75C103.575,-29.1 104.863,-27.15 105.787,-24.9C106.713,-22.65 107.175,-20.2 107.175,-17.55ZM101.775,-17.55C101.775,-19.5 101.463,-21.337 100.838,-23.062C100.213,-24.787 99.325,-26.287 98.175,-27.562C97.025,-28.837 95.625,-29.85 93.975,-30.6C92.325,-31.35 90.475,-31.725 88.425,-31.725C86.375,-31.725 84.537,-31.35 82.912,-30.6C81.287,-29.85 79.9,-28.837 78.75,-27.562C77.6,-26.287 76.713,-24.787 76.088,-23.062C75.463,-21.337 75.15,-19.5 75.15,-17.55C75.15,-15.6 75.463,-13.762 76.088,-12.037C76.713,-10.312 77.6,-8.812 78.75,-7.537C79.9,-6.262 81.287,-5.262 82.912,-4.537C84.537,-3.812 86.375,-3.45 88.425,-3.45C90.475,-3.45 92.325,-3.812 93.975,-4.537C95.625,-5.262 97.025,-6.262 98.175,-7.537C99.325,-8.812 100.213,-10.312 100.838,-12.037C101.463,-13.762 101.775,-15.6 101.775,-17.55Z" style="fill:rgb(21,12,102);fill-rule:nonzero;stroke:rgb(21,12,102);stroke-width:1px;stroke-linecap:butt;stroke-miterlimit:2;"/>
            <path d="M123.375,-5.925L123.375,0L118.275,0L118.275,-56.7L123.375,-56.7L123.375,-29.025L123.525,-29.025C125.025,-31.325 126.975,-33.062 129.375,-34.237C131.775,-35.412 134.25,-36 136.8,-36C139.55,-36 142.038,-35.525 144.263,-34.575C146.488,-33.625 148.388,-32.325 149.963,-30.675C151.538,-29.025 152.763,-27.075 153.637,-24.825C154.512,-22.575 154.95,-20.15 154.95,-17.55C154.95,-14.95 154.512,-12.525 153.637,-10.275C152.763,-8.025 151.538,-6.075 149.963,-4.425C148.388,-2.775 146.488,-1.475 144.263,-0.525C142.038,0.425 139.55,0.9 136.8,0.9C134.25,0.9 131.775,0.325 129.375,-0.825C126.975,-1.975 125.025,-3.675 123.525,-5.925L123.375,-5.925ZM149.55,-17.55C149.55,-19.5 149.25,-21.337 148.65,-23.062C148.05,-24.787 147.188,-26.287 146.063,-27.562C144.938,-28.837 143.55,-29.85 141.9,-30.6C140.25,-31.35 138.375,-31.725 136.275,-31.725C134.325,-31.725 132.525,-31.362 130.875,-30.637C129.225,-29.912 127.8,-28.912 126.6,-27.637C125.4,-26.362 124.463,-24.862 123.787,-23.137C123.113,-21.412 122.775,-19.55 122.775,-17.55C122.775,-15.55 123.113,-13.687 123.787,-11.962C124.463,-10.237 125.4,-8.75 126.6,-7.5C127.8,-6.25 129.225,-5.262 130.875,-4.537C132.525,-3.812 134.325,-3.45 136.275,-3.45C138.375,-3.45 140.25,-3.812 141.9,-4.537C143.55,-5.262 144.938,-6.262 146.063,-7.537C147.188,-8.812 148.05,-10.312 148.65,-12.037C149.25,-13.762 149.55,-15.6 149.55,-17.55Z" style="fill:rgb(21,12,102);fill-rule:nonzero;stroke:rgb(21,12,102);stroke-width:1px;stroke-linecap:butt;stroke-miterlimit:2;"/>
            <rect x="166.05" y="-56.7" width="5.1" height="56.7" style="fill:rgb(21,12,102);fill-rule:nonzero;stroke:rgb(21,12,102);stroke-width:1px;stroke-linecap:butt;stroke-miterlimit:2;"/>
            <path d="M211.575,-20.25C211.425,-23.55 210.363,-26.287 208.388,-28.462C206.413,-30.637 203.6,-31.725 199.95,-31.725C198.25,-31.725 196.675,-31.412 195.225,-30.787C193.775,-30.162 192.5,-29.312 191.4,-28.237C190.3,-27.162 189.425,-25.937 188.775,-24.562C188.125,-23.187 187.75,-21.75 187.65,-20.25L211.575,-20.25ZM216.75,-18.6L216.75,-17.475C216.75,-17.075 216.725,-16.65 216.675,-16.2L187.575,-16.2C187.625,-14.45 187.975,-12.8 188.625,-11.25C189.275,-9.7 190.175,-8.35 191.325,-7.2C192.475,-6.05 193.825,-5.137 195.375,-4.462C196.925,-3.787 198.6,-3.45 200.4,-3.45C203.05,-3.45 205.338,-4.062 207.263,-5.287C209.188,-6.512 210.65,-7.925 211.65,-9.525L215.475,-6.525C213.375,-3.875 211.063,-1.975 208.538,-0.825C206.013,0.325 203.3,0.9 200.4,0.9C197.8,0.9 195.388,0.438 193.163,-0.487C190.938,-1.412 189.025,-2.7 187.425,-4.35C185.825,-6 184.563,-7.95 183.638,-10.2C182.713,-12.45 182.25,-14.9 182.25,-17.55C182.25,-20.2 182.7,-22.65 183.6,-24.9C184.5,-27.15 185.75,-29.1 187.35,-30.75C188.95,-32.4 190.825,-33.687 192.975,-34.612C195.125,-35.537 197.45,-36 199.95,-36C202.7,-36 205.125,-35.537 207.225,-34.612C209.325,-33.687 211.075,-32.437 212.475,-30.862C213.875,-29.287 214.938,-27.45 215.663,-25.35C216.388,-23.25 216.75,-21 216.75,-18.6Z" style="fill:rgb(21,12,102);fill-rule:nonzero;stroke:rgb(21,12,102);stroke-width:1px;stroke-linecap:butt;stroke-miterlimit:2;"/>
            <path d="M232.725,-29.1C233.725,-31.15 235.263,-32.812 237.338,-34.087C239.413,-35.362 241.725,-36 244.275,-36C245.225,-36 246.213,-35.9 247.238,-35.7C248.263,-35.5 249.263,-35.112 250.238,-34.537C251.213,-33.962 252.113,-33.2 252.938,-32.25C253.763,-31.3 254.475,-30.075 255.075,-28.575C256.275,-30.975 257.913,-32.812 259.988,-34.087C262.063,-35.362 264.525,-36 267.375,-36C271.825,-36 275.163,-34.675 277.388,-32.025C279.613,-29.375 280.725,-25.875 280.725,-21.525L280.725,0L275.625,0L275.625,-19.425C275.625,-23.125 274.938,-26.1 273.563,-28.35C272.188,-30.6 269.85,-31.725 266.55,-31.725C264.7,-31.725 263.138,-31.35 261.863,-30.6C260.588,-29.85 259.563,-28.862 258.788,-27.637C258.013,-26.412 257.45,-25.025 257.1,-23.475C256.75,-21.925 256.575,-20.325 256.575,-18.675L256.575,0L251.475,0L251.475,-20.475C251.475,-22.175 251.35,-23.725 251.1,-25.125C250.85,-26.525 250.413,-27.712 249.788,-28.687C249.163,-29.662 248.3,-30.412 247.2,-30.937C246.1,-31.462 244.7,-31.725 243,-31.725C241.8,-31.725 240.588,-31.45 239.363,-30.9C238.138,-30.35 237.038,-29.512 236.063,-28.387C235.088,-27.262 234.3,-25.837 233.7,-24.112C233.1,-22.387 232.8,-20.35 232.8,-18L232.8,0L227.7,0L227.7,-27.375C227.7,-28.325 227.675,-29.55 227.625,-31.05C227.575,-32.55 227.5,-33.9 227.4,-35.1L232.275,-35.1C232.375,-34.15 232.45,-33.1 232.5,-31.95C232.55,-30.8 232.575,-29.85 232.575,-29.1L232.725,-29.1Z" style="fill:rgb(21,12,102);fill-rule:nonzero;stroke:rgb(21,12,102);stroke-width:1px;stroke-linecap:butt;stroke-miterlimit:2;"/>
            <rect x="290.775" y="-20.325" width="16.8" height="4.275" style="fill:rgb(21,12,102);fill-rule:nonzero;stroke:rgb(21,12,102);stroke-width:1px;stroke-linecap:butt;stroke-miterlimit:2;"/>
            <path d="M343.05,-44.55C341.9,-46.15 340.425,-47.437 338.625,-48.412C336.825,-49.387 334.65,-49.875 332.1,-49.875C330.8,-49.875 329.475,-49.675 328.125,-49.275C326.775,-48.875 325.55,-48.262 324.45,-47.437C323.35,-46.612 322.463,-45.575 321.788,-44.325C321.113,-43.075 320.775,-41.6 320.775,-39.9C320.775,-38.2 321.1,-36.8 321.75,-35.7C322.4,-34.6 323.263,-33.662 324.338,-32.887C325.413,-32.112 326.638,-31.475 328.013,-30.975C329.388,-30.475 330.825,-29.975 332.325,-29.475C334.175,-28.875 336.038,-28.225 337.913,-27.525C339.788,-26.825 341.475,-25.912 342.975,-24.787C344.475,-23.662 345.7,-22.237 346.65,-20.512C347.6,-18.787 348.075,-16.6 348.075,-13.95C348.075,-11.3 347.563,-9.012 346.538,-7.087C345.513,-5.162 344.188,-3.575 342.563,-2.325C340.938,-1.075 339.088,-0.15 337.013,0.45C334.938,1.05 332.85,1.35 330.75,1.35C329.15,1.35 327.55,1.188 325.95,0.863C324.35,0.538 322.825,0.05 321.375,-0.6C319.925,-1.25 318.575,-2.075 317.325,-3.075C316.075,-4.075 314.975,-5.225 314.025,-6.525L318.675,-9.975C319.825,-8.075 321.438,-6.487 323.513,-5.212C325.588,-3.937 328.025,-3.3 330.825,-3.3C332.175,-3.3 333.55,-3.512 334.95,-3.937C336.35,-4.362 337.613,-5.012 338.738,-5.887C339.863,-6.762 340.788,-7.837 341.513,-9.112C342.238,-10.387 342.6,-11.875 342.6,-13.575C342.6,-15.425 342.238,-16.962 341.513,-18.187C340.788,-19.412 339.825,-20.437 338.625,-21.262C337.425,-22.087 336.05,-22.775 334.5,-23.325C332.95,-23.875 331.325,-24.425 329.625,-24.975C327.875,-25.525 326.15,-26.15 324.45,-26.85C322.75,-27.55 321.225,-28.462 319.875,-29.587C318.525,-30.712 317.438,-32.1 316.613,-33.75C315.788,-35.4 315.375,-37.425 315.375,-39.825C315.375,-42.375 315.888,-44.575 316.913,-46.425C317.938,-48.275 319.275,-49.8 320.925,-51C322.575,-52.2 324.4,-53.075 326.4,-53.625C328.4,-54.175 330.375,-54.45 332.325,-54.45C335.925,-54.45 339,-53.812 341.55,-52.537C344.1,-51.262 346.025,-49.75 347.325,-48L343.05,-44.55Z" style="fill:rgb(21,12,102);fill-rule:nonzero;stroke:rgb(21,12,102);stroke-width:1px;stroke-linecap:butt;stroke-miterlimit:2;"/>
            <path d="M394.2,-17.55C394.2,-14.9 393.738,-12.45 392.813,-10.2C391.888,-7.95 390.6,-6 388.95,-4.35C387.3,-2.7 385.325,-1.412 383.025,-0.487C380.725,0.438 378.2,0.9 375.45,0.9C372.75,0.9 370.25,0.438 367.95,-0.487C365.65,-1.412 363.675,-2.7 362.025,-4.35C360.375,-6 359.088,-7.95 358.163,-10.2C357.238,-12.45 356.775,-14.9 356.775,-17.55C356.775,-20.2 357.238,-22.65 358.163,-24.9C359.088,-27.15 360.375,-29.1 362.025,-30.75C363.675,-32.4 365.65,-33.687 367.95,-34.612C370.25,-35.537 372.75,-36 375.45,-36C378.2,-36 380.725,-35.537 383.025,-34.612C385.325,-33.687 387.3,-32.4 388.95,-30.75C390.6,-29.1 391.888,-27.15 392.813,-24.9C393.738,-22.65 394.2,-20.2 394.2,-17.55ZM388.8,-17.55C388.8,-19.5 388.488,-21.337 387.863,-23.062C387.238,-24.787 386.35,-26.287 385.2,-27.562C384.05,-28.837 382.65,-29.85 381,-30.6C379.35,-31.35 377.5,-31.725 375.45,-31.725C373.4,-31.725 371.563,-31.35 369.938,-30.6C368.313,-29.85 366.925,-28.837 365.775,-27.562C364.625,-26.287 363.738,-24.787 363.113,-23.062C362.488,-21.337 362.175,-19.5 362.175,-17.55C362.175,-15.6 362.488,-13.762 363.113,-12.037C363.738,-10.312 364.625,-8.812 365.775,-7.537C366.925,-6.262 368.313,-5.262 369.938,-4.537C371.563,-3.812 373.4,-3.45 375.45,-3.45C377.5,-3.45 379.35,-3.812 381,-4.537C382.65,-5.262 384.05,-6.262 385.2,-7.537C386.35,-8.812 387.238,-10.312 387.863,-12.037C388.488,-13.762 388.8,-15.6 388.8,-17.55Z" style="fill:rgb(21,12,102);fill-rule:nonzero;stroke:rgb(21,12,102);stroke-width:1px;stroke-linecap:butt;stroke-miterlimit:2;"/>
            <rect x="405.3" y="-56.7" width="5.1" height="56.7" style="fill:rgb(21,12,102);fill-rule:nonzero;stroke:rgb(21,12,102);stroke-width:1px;stroke-linecap:butt;stroke-miterlimit:2;"/>
            <path d="M438.45,0L432.825,0L418.5,-35.1L424.2,-35.1L435.6,-5.4L435.75,-5.4L447.225,-35.1L452.7,-35.1L438.45,0Z" style="fill:rgb(21,12,102);fill-rule:nonzero;stroke:rgb(21,12,102);stroke-width:1px;stroke-linecap:butt;stroke-miterlimit:2;"/>
            <path d="M465.825,0L460.725,0L460.725,-35.1L465.825,-35.1L465.825,0ZM466.875,-48.6C466.875,-47.55 466.5,-46.687 465.75,-46.012C465,-45.337 464.175,-45 463.275,-45C462.375,-45 461.55,-45.337 460.8,-46.012C460.05,-46.687 459.675,-47.55 459.675,-48.6C459.675,-49.65 460.05,-50.512 460.8,-51.187C461.55,-51.862 462.375,-52.2 463.275,-52.2C464.175,-52.2 465,-51.862 465.75,-51.187C466.5,-50.512 466.875,-49.65 466.875,-48.6Z" style="fill:rgb(21,12,102);fill-rule:nonzero;stroke:rgb(21,12,102);stroke-width:1px;stroke-linecap:butt;stroke-miterlimit:2;"/>
            <path d="M483.975,-35.1C484.075,-34.15 484.15,-33.1 484.2,-31.95C484.25,-30.8 484.275,-29.85 484.275,-29.1L484.425,-29.1C485.425,-31.15 487.05,-32.812 489.3,-34.087C491.55,-35.362 493.925,-36 496.425,-36C500.875,-36 504.213,-34.675 506.438,-32.025C508.663,-29.375 509.775,-25.875 509.775,-21.525L509.775,0L504.675,0L504.675,-19.425C504.675,-21.275 504.525,-22.95 504.225,-24.45C503.925,-25.95 503.413,-27.237 502.688,-28.312C501.963,-29.387 500.988,-30.225 499.763,-30.825C498.538,-31.425 497,-31.725 495.15,-31.725C493.8,-31.725 492.488,-31.45 491.213,-30.9C489.938,-30.35 488.8,-29.512 487.8,-28.387C486.8,-27.262 486,-25.837 485.4,-24.112C484.8,-22.387 484.5,-20.35 484.5,-18L484.5,0L479.4,0L479.4,-27.375C479.4,-28.325 479.375,-29.55 479.325,-31.05C479.275,-32.55 479.2,-33.9 479.1,-35.1L483.975,-35.1Z" style="fill:rgb(21,12,102);fill-rule:nonzero;stroke:rgb(21,12,102);stroke-width:1px;stroke-linecap:butt;stroke-miterlimit:2;"/>
            <path d="M524.85,7.05C526.25,8.85 528.163,10.375 530.588,11.625C533.013,12.875 535.575,13.5 538.275,13.5C540.775,13.5 542.9,13.138 544.65,12.413C546.4,11.688 547.813,10.7 548.888,9.45C549.963,8.2 550.75,6.738 551.25,5.063C551.75,3.388 552,1.6 552,-0.3L552,-6.9L551.85,-6.9C550.5,-4.7 548.588,-3 546.113,-1.8C543.638,-0.6 541.125,0 538.575,0C535.825,0 533.338,-0.45 531.113,-1.35C528.888,-2.25 526.988,-3.487 525.413,-5.062C523.837,-6.637 522.613,-8.525 521.738,-10.725C520.863,-12.925 520.425,-15.3 520.425,-17.85C520.425,-20.35 520.863,-22.7 521.738,-24.9C522.613,-27.1 523.837,-29.025 525.413,-30.675C526.988,-32.325 528.888,-33.625 531.113,-34.575C533.338,-35.525 535.825,-36 538.575,-36C541.125,-36 543.625,-35.4 546.075,-34.2C548.525,-33 550.45,-31.275 551.85,-29.025L552,-29.025L552,-35.1L557.1,-35.1L557.1,-0.3C557.1,1.6 556.838,3.625 556.313,5.775C555.788,7.925 554.813,9.9 553.388,11.7C551.963,13.5 550.025,15 547.575,16.2C545.125,17.4 541.95,18 538.05,18C534.8,18 531.7,17.375 528.75,16.125C525.8,14.875 523.275,13.15 521.175,10.95L524.85,7.05ZM525.825,-18C525.825,-16.15 526.125,-14.4 526.725,-12.75C527.325,-11.1 528.188,-9.65 529.313,-8.4C530.438,-7.15 531.825,-6.162 533.475,-5.437C535.125,-4.712 537,-4.35 539.1,-4.35C541.05,-4.35 542.85,-4.675 544.5,-5.325C546.15,-5.975 547.575,-6.9 548.775,-8.1C549.975,-9.3 550.913,-10.737 551.588,-12.412C552.263,-14.087 552.6,-15.95 552.6,-18C552.6,-19.85 552.263,-21.6 551.588,-23.25C550.913,-24.9 549.975,-26.35 548.775,-27.6C547.575,-28.85 546.15,-29.85 544.5,-30.6C542.85,-31.35 541.05,-31.725 539.1,-31.725C537,-31.725 535.125,-31.35 533.475,-30.6C531.825,-29.85 530.438,-28.85 529.313,-27.6C528.188,-26.35 527.325,-24.9 526.725,-23.25C526.125,-21.6 525.825,-19.85 525.825,-18Z" style="fill:rgb(21,12,102);fill-rule:nonzero;stroke:rgb(21,12,102);stroke-width:1px;stroke-linecap:butt;stroke-miterlimit:2;"/>
        </g>
    </g>
</svg>
