<?xml version="1.0" encoding="UTF-8" standalone="no"?>
<!DOCTYPE svg PUBLIC "-//W3C//DTD SVG 1.1//EN" "http://www.w3.org/Graphics/SVG/1.1/DTD/svg11.dtd">
<svg width="100%" height="100%" viewBox="0 0 834 834" version="1.1" xmlns="http://www.w3.org/2000/svg" xmlns:xlink="http://www.w3.org/1999/xlink" xml:space="preserve" xmlns:serif="http://www.serif.com/" style="fill-rule:evenodd;clip-rule:evenodd;stroke-linecap:round;stroke-linejoin:round;stroke-miterlimit:1.5;">
    <g transform="matrix(1.00131,0,0,0.998737,-0.227333,-3.19225)">
        <path d="M829.678,175.905L829.678,665.877C829.678,757.286 755.656,831.499 664.481,831.499L168.301,831.499C77.127,831.499 3.105,757.286 3.105,665.877L3.105,175.905C3.105,84.496 77.127,10.283 168.301,10.283L664.481,10.283C755.656,10.283 829.678,84.496 829.678,175.905Z" style="fill:rgb(243,243,243);"/>
    </g>
    <g id="Troubleshooting">
        <g transform="matrix(1,0,0,1,0,-19)">
            <path d="M329.666,596.626L336.996,345.572L767.246,347.63L759.989,600.62L726.836,600.571L732.28,381.864L367.367,383.086L362.979,597.97L329.666,596.626Z" style="fill:rgb(21,12,102);stroke:rgb(21,12,102);stroke-width:8.33px;"/>
        </g>
        <g transform="matrix(1,0,0,1,0,-19)">
            <path d="M705.556,600.62L710.76,398.383L608.001,399.11L604.899,600.62L705.556,600.62Z" style="fill:rgb(21,12,102);stroke:rgb(21,12,102);stroke-width:8.33px;"/>
        </g>
        <g transform="matrix(1,0,0,1,-8.97053,-6.41845)">
            <circle cx="667.655" cy="519.286" r="18.667" style="fill:rgb(21,12,102);stroke:white;stroke-width:8.33px;"/>
        </g>
        <g transform="matrix(1,0,0,1,0,-19)">
            <path d="M548.456,345.572L493.998,313.376L475.459,313.808L416.667,345.572L548.456,345.572Z" style="fill:rgb(21,12,102);stroke:rgb(21,12,102);stroke-width:8.33px;"/>
        </g>
        <g transform="matrix(1,0,0,1,0,-19)">
            <path d="M416.667,300.949L555.1,301.153L556.747,183.263L416.667,184.553L416.667,300.949Z" style="fill:rgb(21,12,102);stroke:rgb(21,12,102);stroke-width:8.33px;"/>
        </g>
        <g transform="matrix(1,0,0,1,0,-19)">
            <path d="M477.623,313.376L482.561,290.424L492.881,292.177L493.365,313.376L477.623,313.376Z" style="fill:rgb(21,12,102);stroke:rgb(21,12,102);stroke-width:8.33px;"/>
        </g>
        <g transform="matrix(1,0,0,1,0,-19)">
            <path d="M428.263,194.37L548.456,194.194L548.456,278.168L427.11,279.289L428.263,194.37Z" style="fill:rgb(254,254,254);stroke:rgb(21,12,102);stroke-width:8.33px;"/>
        </g>
        <g transform="matrix(0.999772,-0.0213326,0.0213326,0.999772,-9.17491,-16.9361)">
            <path d="M86.056,593.513L98.248,268.63L87.018,573.89L88.442,538.22" style="fill:rgb(21,12,102);stroke:rgb(21,12,102);stroke-width:8.33px;"/>
        </g>
        <g transform="matrix(0.299722,0,0,0.299722,303.591,118.638)">
            <g transform="matrix(51.7673,0,0,51.7673,438.73,246.604)">
                <path d="M0.485,-0.017C0.42,0.002 0.365,0.012 0.319,0.012C0.241,0.012 0.177,-0.014 0.128,-0.066C0.079,-0.118 0.054,-0.185 0.054,-0.268C0.054,-0.348 0.076,-0.414 0.119,-0.465C0.163,-0.517 0.218,-0.542 0.286,-0.542C0.35,-0.542 0.4,-0.52 0.435,-0.474C0.47,-0.429 0.487,-0.364 0.487,-0.28L0.487,-0.25L0.152,-0.25C0.166,-0.124 0.228,-0.061 0.337,-0.061C0.377,-0.061 0.427,-0.072 0.485,-0.093L0.485,-0.017ZM0.157,-0.322L0.391,-0.322C0.391,-0.421 0.354,-0.47 0.28,-0.47C0.206,-0.47 0.165,-0.421 0.157,-0.322Z" style="fill:rgb(21,12,102);fill-rule:nonzero;"/>
            </g>
            <g transform="matrix(51.7673,0,0,51.7673,467.571,246.604)">
                <path d="M0.096,-0L0.096,-0.53L0.192,-0.53L0.192,-0.431C0.23,-0.505 0.286,-0.542 0.358,-0.542C0.368,-0.542 0.378,-0.541 0.389,-0.54L0.389,-0.45C0.373,-0.455 0.358,-0.458 0.345,-0.458C0.284,-0.458 0.233,-0.422 0.192,-0.35L0.192,-0L0.096,-0Z" style="fill:rgb(21,12,102);fill-rule:nonzero;"/>
            </g>
            <g transform="matrix(51.7673,0,0,51.7673,488.753,246.604)">
                <path d="M0.096,-0L0.096,-0.53L0.192,-0.53L0.192,-0.431C0.23,-0.505 0.286,-0.542 0.358,-0.542C0.368,-0.542 0.378,-0.541 0.389,-0.54L0.389,-0.45C0.373,-0.455 0.358,-0.458 0.345,-0.458C0.284,-0.458 0.233,-0.422 0.192,-0.35L0.192,-0L0.096,-0Z" style="fill:rgb(21,12,102);fill-rule:nonzero;"/>
            </g>
            <g transform="matrix(51.7673,0,0,51.7673,509.935,246.604)">
                <path d="M0.304,0.012C0.228,0.012 0.167,-0.013 0.122,-0.063C0.077,-0.114 0.054,-0.181 0.054,-0.265C0.054,-0.35 0.077,-0.418 0.122,-0.468C0.168,-0.517 0.229,-0.542 0.307,-0.542C0.385,-0.542 0.447,-0.517 0.492,-0.468C0.537,-0.418 0.56,-0.351 0.56,-0.266C0.56,-0.18 0.537,-0.111 0.492,-0.062C0.446,-0.013 0.383,0.012 0.304,0.012ZM0.305,-0.06C0.407,-0.06 0.458,-0.129 0.458,-0.266C0.458,-0.402 0.408,-0.47 0.307,-0.47C0.207,-0.47 0.157,-0.402 0.157,-0.265C0.157,-0.128 0.206,-0.06 0.305,-0.06Z" style="fill:rgb(21,12,102);fill-rule:nonzero;"/>
            </g>
            <g transform="matrix(51.7673,0,0,51.7673,541.733,246.604)">
                <path d="M0.096,-0L0.096,-0.53L0.192,-0.53L0.192,-0.431C0.23,-0.505 0.286,-0.542 0.358,-0.542C0.368,-0.542 0.378,-0.541 0.389,-0.54L0.389,-0.45C0.373,-0.455 0.358,-0.458 0.345,-0.458C0.284,-0.458 0.233,-0.422 0.192,-0.35L0.192,-0L0.096,-0Z" style="fill:rgb(21,12,102);fill-rule:nonzero;"/>
            </g>
        </g>
        <g transform="matrix(1,0,0,1,-6.09652,-22.5231)">
            <path d="M96.012,570.952L107.18,567.437L107.694,557.922L98.018,554.058" style="fill:rgb(21,12,102);stroke:rgb(21,12,102);stroke-width:8.33px;"/>
        </g>
        <g transform="matrix(1,0,0,1,0,-19)">
            <path d="M98.248,559.411C98.611,558.897 117.628,568.669 120.792,569.723C128.183,572.187 154.403,571.812 162.668,570.84C206.411,565.693 236.585,519.94 282.154,524.497C306.631,526.945 330.099,536.465 351.947,547.389C373.026,557.929 397.282,577.093 422.299,575.307C440.167,574.03 465.15,565.957 478.134,552.973C487.646,543.461 505.398,525.164 519.452,522.822C553.518,517.144 575.623,554.334 604.879,536.781C621.897,526.569 634.599,501.779 640.613,483.738C641.548,480.934 646.625,460.287 648.988,460.287" style="fill:none;stroke:rgb(21,12,102);stroke-width:8.33px;"/>
        </g>
        <g transform="matrix(1,0,0,1,-9.138,29.9629)">
            <circle cx="231.05" cy="367.704" r="56.958" style="fill:rgb(21,12,102);stroke:rgb(21,12,102);stroke-width:8.33px;"/>
        </g>
        <g transform="matrix(1,0,0,1,0,-19)">
            <path d="M278.87,567.429L125.438,558.982L300.617,602.282L301.798,550.535L299.226,473.625L267.408,501.302L278.87,567.429Z" style="fill:rgb(21,12,102);stroke:rgb(21,12,102);stroke-width:8.33px;"/>
        </g>
        <g transform="matrix(1,0,0,1,0,-19)">
            <path d="M416.667,508.924L391.71,591.162L587.033,593.513L432.988,567.429L493.511,473.625L416.667,508.924Z" style="fill:rgb(21,12,102);stroke:rgb(21,12,102);stroke-width:8.33px;"/>
        </g>
        <g transform="matrix(1,0,0,1,0,-19)">
            <path d="M626.164,476.089C606.953,456.246 563.695,539.941 521.176,469.076C504.57,441.399 543.625,407.034 547.377,380.767C551.785,349.911 536.476,294.399 502.738,294.399" style="fill:none;stroke:rgb(21,12,102);stroke-width:8.33px;"/>
        </g>
        <g transform="matrix(1,0,0,1,82.6618,691.416)">
            <path d="M24.075,0L18.675,0L18.675,-48.3L0.9,-48.3L0.9,-53.1L41.85,-53.1L41.85,-48.3L24.075,-48.3L24.075,0Z" style="fill:rgb(21,12,102);fill-rule:nonzero;stroke:rgb(21,12,102);stroke-width:1px;stroke-linecap:butt;stroke-miterlimit:2;"/>
            <path d="M42.75,-27.375C42.75,-28.325 42.725,-29.55 42.675,-31.05C42.625,-32.55 42.55,-33.9 42.45,-35.1L47.325,-35.1C47.425,-34.15 47.5,-33.1 47.55,-31.95C47.6,-30.8 47.625,-29.85 47.625,-29.1L47.775,-29.1C48.775,-31.15 50.275,-32.813 52.275,-34.088C54.275,-35.363 56.525,-36 59.025,-36C59.675,-36 60.262,-35.975 60.787,-35.925C61.313,-35.875 61.85,-35.775 62.4,-35.625L61.725,-30.825C61.425,-30.925 60.925,-31.025 60.225,-31.125C59.525,-31.225 58.825,-31.275 58.125,-31.275C56.775,-31.275 55.475,-31.025 54.225,-30.525C52.975,-30.025 51.887,-29.237 50.962,-28.163C50.037,-27.087 49.287,-25.712 48.712,-24.038C48.137,-22.363 47.85,-20.35 47.85,-18L47.85,0L42.75,0L42.75,-27.375Z" style="fill:rgb(21,12,102);fill-rule:nonzero;stroke:rgb(21,12,102);stroke-width:1px;stroke-linecap:butt;stroke-miterlimit:2;"/>
            <path d="M103.275,-17.55C103.275,-14.9 102.813,-12.45 101.887,-10.2C100.962,-7.95 99.675,-6 98.025,-4.35C96.375,-2.7 94.4,-1.413 92.1,-0.488C89.8,0.438 87.275,0.9 84.525,0.9C81.825,0.9 79.325,0.438 77.025,-0.488C74.725,-1.413 72.75,-2.7 71.1,-4.35C69.45,-6 68.163,-7.95 67.238,-10.2C66.312,-12.45 65.85,-14.9 65.85,-17.55C65.85,-20.2 66.312,-22.65 67.238,-24.9C68.163,-27.15 69.45,-29.1 71.1,-30.75C72.75,-32.4 74.725,-33.688 77.025,-34.613C79.325,-35.538 81.825,-36 84.525,-36C87.275,-36 89.8,-35.538 92.1,-34.613C94.4,-33.688 96.375,-32.4 98.025,-30.75C99.675,-29.1 100.962,-27.15 101.887,-24.9C102.813,-22.65 103.275,-20.2 103.275,-17.55ZM97.875,-17.55C97.875,-19.5 97.563,-21.338 96.938,-23.063C96.313,-24.788 95.425,-26.288 94.275,-27.563C93.125,-28.838 91.725,-29.85 90.075,-30.6C88.425,-31.35 86.575,-31.725 84.525,-31.725C82.475,-31.725 80.637,-31.35 79.012,-30.6C77.387,-29.85 76,-28.838 74.85,-27.563C73.7,-26.288 72.813,-24.788 72.188,-23.063C71.563,-21.338 71.25,-19.5 71.25,-17.55C71.25,-15.6 71.563,-13.762 72.188,-12.038C72.813,-10.312 73.7,-8.813 74.85,-7.538C76,-6.263 77.387,-5.263 79.012,-4.538C80.637,-3.813 82.475,-3.45 84.525,-3.45C86.575,-3.45 88.425,-3.813 90.075,-4.538C91.725,-5.263 93.125,-6.263 94.275,-7.538C95.425,-8.813 96.313,-10.312 96.938,-12.038C97.563,-13.762 97.875,-15.6 97.875,-17.55Z" style="fill:rgb(21,12,102);fill-rule:nonzero;stroke:rgb(21,12,102);stroke-width:1px;stroke-linecap:butt;stroke-miterlimit:2;"/>
            <path d="M139.725,0C139.625,-0.95 139.55,-2 139.5,-3.15C139.45,-4.3 139.425,-5.25 139.425,-6L139.275,-6C138.275,-3.95 136.65,-2.288 134.4,-1.012C132.15,0.263 129.775,0.9 127.275,0.9C122.825,0.9 119.488,-0.425 117.262,-3.075C115.037,-5.725 113.925,-9.225 113.925,-13.575L113.925,-35.1L119.025,-35.1L119.025,-15.675C119.025,-13.825 119.175,-12.15 119.475,-10.65C119.775,-9.15 120.287,-7.863 121.012,-6.787C121.738,-5.713 122.712,-4.875 123.938,-4.275C125.162,-3.675 126.7,-3.375 128.55,-3.375C129.9,-3.375 131.213,-3.65 132.488,-4.2C133.763,-4.75 134.9,-5.587 135.9,-6.712C136.9,-7.837 137.7,-9.263 138.3,-10.987C138.9,-12.712 139.2,-14.75 139.2,-17.1L139.2,-35.1L144.3,-35.1L144.3,-7.725C144.3,-6.775 144.325,-5.55 144.375,-4.05C144.425,-2.55 144.5,-1.2 144.6,0L139.725,0Z" style="fill:rgb(21,12,102);fill-rule:nonzero;stroke:rgb(21,12,102);stroke-width:1px;stroke-linecap:butt;stroke-miterlimit:2;"/>
            <path d="M163.05,-5.925L163.05,0L157.95,0L157.95,-56.7L163.05,-56.7L163.05,-29.025L163.2,-29.025C164.7,-31.325 166.65,-33.063 169.05,-34.238C171.45,-35.413 173.925,-36 176.475,-36C179.225,-36 181.712,-35.525 183.938,-34.575C186.162,-33.625 188.063,-32.325 189.637,-30.675C191.212,-29.025 192.437,-27.075 193.313,-24.825C194.187,-22.575 194.625,-20.15 194.625,-17.55C194.625,-14.95 194.187,-12.525 193.313,-10.275C192.437,-8.025 191.212,-6.075 189.637,-4.425C188.063,-2.775 186.162,-1.475 183.938,-0.525C181.712,0.425 179.225,0.9 176.475,0.9C173.925,0.9 171.45,0.325 169.05,-0.825C166.65,-1.975 164.7,-3.675 163.2,-5.925L163.05,-5.925ZM189.225,-17.55C189.225,-19.5 188.925,-21.338 188.325,-23.063C187.725,-24.788 186.862,-26.288 185.737,-27.563C184.612,-28.838 183.225,-29.85 181.575,-30.6C179.925,-31.35 178.05,-31.725 175.95,-31.725C174,-31.725 172.2,-31.362 170.55,-30.638C168.9,-29.913 167.475,-28.913 166.275,-27.638C165.075,-26.362 164.137,-24.863 163.462,-23.138C162.788,-21.413 162.45,-19.55 162.45,-17.55C162.45,-15.55 162.788,-13.688 163.462,-11.963C164.137,-10.237 165.075,-8.75 166.275,-7.5C167.475,-6.25 168.9,-5.263 170.55,-4.538C172.2,-3.813 174,-3.45 175.95,-3.45C178.05,-3.45 179.925,-3.813 181.575,-4.538C183.225,-5.263 184.612,-6.263 185.737,-7.538C186.862,-8.813 187.725,-10.312 188.325,-12.038C188.925,-13.762 189.225,-15.6 189.225,-17.55Z" style="fill:rgb(21,12,102);fill-rule:nonzero;stroke:rgb(21,12,102);stroke-width:1px;stroke-linecap:butt;stroke-miterlimit:2;"/>
            <rect x="205.725" y="-56.7" width="5.1" height="56.7" style="fill:rgb(21,12,102);fill-rule:nonzero;stroke:rgb(21,12,102);stroke-width:1px;stroke-linecap:butt;stroke-miterlimit:2;"/>
            <path d="M251.25,-20.25C251.1,-23.55 250.038,-26.288 248.063,-28.462C246.088,-30.638 243.275,-31.725 239.625,-31.725C237.925,-31.725 236.35,-31.413 234.9,-30.788C233.45,-30.163 232.175,-29.313 231.075,-28.238C229.975,-27.163 229.1,-25.938 228.45,-24.563C227.8,-23.188 227.425,-21.75 227.325,-20.25L251.25,-20.25ZM256.425,-18.6L256.425,-17.475C256.425,-17.075 256.4,-16.65 256.35,-16.2L227.25,-16.2C227.3,-14.45 227.65,-12.8 228.3,-11.25C228.95,-9.7 229.85,-8.35 231,-7.2C232.15,-6.05 233.5,-5.137 235.05,-4.463C236.6,-3.787 238.275,-3.45 240.075,-3.45C242.725,-3.45 245.012,-4.063 246.938,-5.288C248.863,-6.513 250.325,-7.925 251.325,-9.525L255.15,-6.525C253.05,-3.875 250.737,-1.975 248.213,-0.825C245.688,0.325 242.975,0.9 240.075,0.9C237.475,0.9 235.063,0.438 232.838,-0.488C230.613,-1.413 228.7,-2.7 227.1,-4.35C225.5,-6 224.237,-7.95 223.313,-10.2C222.387,-12.45 221.925,-14.9 221.925,-17.55C221.925,-20.2 222.375,-22.65 223.275,-24.9C224.175,-27.15 225.425,-29.1 227.025,-30.75C228.625,-32.4 230.5,-33.688 232.65,-34.613C234.8,-35.538 237.125,-36 239.625,-36C242.375,-36 244.8,-35.538 246.9,-34.613C249,-33.688 250.75,-32.438 252.15,-30.863C253.55,-29.288 254.613,-27.45 255.338,-25.35C256.063,-23.25 256.425,-21 256.425,-18.6Z" style="fill:rgb(21,12,102);fill-rule:nonzero;stroke:rgb(21,12,102);stroke-width:1px;stroke-linecap:butt;stroke-miterlimit:2;"/>
            <path d="M286.05,-26.775C285.3,-28.225 284.163,-29.413 282.638,-30.338C281.113,-31.263 279.375,-31.725 277.425,-31.725C276.525,-31.725 275.625,-31.625 274.725,-31.425C273.825,-31.225 273.025,-30.9 272.325,-30.45C271.625,-30 271.063,-29.425 270.638,-28.725C270.213,-28.025 270,-27.2 270,-26.25C270,-24.6 270.675,-23.337 272.025,-22.462C273.375,-21.587 275.5,-20.85 278.4,-20.25C282.55,-19.4 285.613,-18.163 287.588,-16.538C289.563,-14.913 290.55,-12.725 290.55,-9.975C290.55,-7.975 290.163,-6.287 289.388,-4.913C288.613,-3.538 287.6,-2.413 286.35,-1.538C285.1,-0.663 283.688,-0.037 282.113,0.338C280.538,0.713 278.95,0.9 277.35,0.9C274.7,0.9 272.125,0.35 269.625,-0.75C267.125,-1.85 265.075,-3.575 263.475,-5.925L267.525,-8.925C268.425,-7.375 269.75,-6.075 271.5,-5.025C273.25,-3.975 275.175,-3.45 277.275,-3.45C278.375,-3.45 279.425,-3.55 280.425,-3.75C281.425,-3.95 282.3,-4.3 283.05,-4.8C283.8,-5.3 284.4,-5.938 284.85,-6.712C285.3,-7.488 285.525,-8.45 285.525,-9.6C285.525,-11.45 284.638,-12.838 282.863,-13.762C281.088,-14.688 278.525,-15.55 275.175,-16.35C274.125,-16.6 273.013,-16.913 271.838,-17.288C270.663,-17.663 269.575,-18.213 268.575,-18.938C267.575,-19.662 266.75,-20.575 266.1,-21.675C265.45,-22.775 265.125,-24.15 265.125,-25.8C265.125,-27.6 265.475,-29.138 266.175,-30.413C266.875,-31.688 267.813,-32.737 268.988,-33.563C270.163,-34.388 271.5,-35 273,-35.4C274.5,-35.8 276.05,-36 277.65,-36C280.1,-36 282.475,-35.45 284.775,-34.35C287.075,-33.25 288.8,-31.7 289.95,-29.7L286.05,-26.775Z" style="fill:rgb(21,12,102);fill-rule:nonzero;stroke:rgb(21,12,102);stroke-width:1px;stroke-linecap:butt;stroke-miterlimit:2;"/>
            <path d="M306.075,-29.325C307.025,-31.375 308.6,-33 310.8,-34.2C313,-35.4 315.35,-36 317.85,-36C322.3,-36 325.638,-34.675 327.863,-32.025C330.087,-29.375 331.2,-25.875 331.2,-21.525L331.2,0L326.1,0L326.1,-19.425C326.1,-21.275 325.95,-22.95 325.65,-24.45C325.35,-25.95 324.838,-27.237 324.113,-28.313C323.388,-29.388 322.413,-30.225 321.188,-30.825C319.963,-31.425 318.425,-31.725 316.575,-31.725C315.225,-31.725 313.913,-31.45 312.638,-30.9C311.363,-30.35 310.225,-29.513 309.225,-28.388C308.225,-27.263 307.425,-25.838 306.825,-24.113C306.225,-22.388 305.925,-20.35 305.925,-18L305.925,0L300.825,0L300.825,-56.7L305.925,-56.7L305.925,-29.325L306.075,-29.325Z" style="fill:rgb(21,12,102);fill-rule:nonzero;stroke:rgb(21,12,102);stroke-width:1px;stroke-linecap:butt;stroke-miterlimit:2;"/>
            <path d="M379.275,-17.55C379.275,-14.9 378.813,-12.45 377.888,-10.2C376.962,-7.95 375.675,-6 374.025,-4.35C372.375,-2.7 370.4,-1.413 368.1,-0.488C365.8,0.438 363.275,0.9 360.525,0.9C357.825,0.9 355.325,0.438 353.025,-0.488C350.725,-1.413 348.75,-2.7 347.1,-4.35C345.45,-6 344.162,-7.95 343.237,-10.2C342.313,-12.45 341.85,-14.9 341.85,-17.55C341.85,-20.2 342.313,-22.65 343.237,-24.9C344.162,-27.15 345.45,-29.1 347.1,-30.75C348.75,-32.4 350.725,-33.688 353.025,-34.613C355.325,-35.538 357.825,-36 360.525,-36C363.275,-36 365.8,-35.538 368.1,-34.613C370.4,-33.688 372.375,-32.4 374.025,-30.75C375.675,-29.1 376.962,-27.15 377.888,-24.9C378.813,-22.65 379.275,-20.2 379.275,-17.55ZM373.875,-17.55C373.875,-19.5 373.563,-21.338 372.938,-23.063C372.313,-24.788 371.425,-26.288 370.275,-27.563C369.125,-28.838 367.725,-29.85 366.075,-30.6C364.425,-31.35 362.575,-31.725 360.525,-31.725C358.475,-31.725 356.638,-31.35 355.013,-30.6C353.388,-29.85 352,-28.838 350.85,-27.563C349.7,-26.288 348.813,-24.788 348.188,-23.063C347.563,-21.338 347.25,-19.5 347.25,-17.55C347.25,-15.6 347.563,-13.762 348.188,-12.038C348.813,-10.312 349.7,-8.813 350.85,-7.538C352,-6.263 353.388,-5.263 355.013,-4.538C356.638,-3.813 358.475,-3.45 360.525,-3.45C362.575,-3.45 364.425,-3.813 366.075,-4.538C367.725,-5.263 369.125,-6.263 370.275,-7.538C371.425,-8.813 372.313,-10.312 372.938,-12.038C373.563,-13.762 373.875,-15.6 373.875,-17.55Z" style="fill:rgb(21,12,102);fill-rule:nonzero;stroke:rgb(21,12,102);stroke-width:1px;stroke-linecap:butt;stroke-miterlimit:2;"/>
            <path d="M425.1,-17.55C425.1,-14.9 424.638,-12.45 423.712,-10.2C422.787,-7.95 421.5,-6 419.85,-4.35C418.2,-2.7 416.225,-1.413 413.925,-0.488C411.625,0.438 409.1,0.9 406.35,0.9C403.65,0.9 401.15,0.438 398.85,-0.488C396.55,-1.413 394.575,-2.7 392.925,-4.35C391.275,-6 389.987,-7.95 389.062,-10.2C388.138,-12.45 387.675,-14.9 387.675,-17.55C387.675,-20.2 388.138,-22.65 389.062,-24.9C389.987,-27.15 391.275,-29.1 392.925,-30.75C394.575,-32.4 396.55,-33.688 398.85,-34.613C401.15,-35.538 403.65,-36 406.35,-36C409.1,-36 411.625,-35.538 413.925,-34.613C416.225,-33.688 418.2,-32.4 419.85,-30.75C421.5,-29.1 422.787,-27.15 423.712,-24.9C424.638,-22.65 425.1,-20.2 425.1,-17.55ZM419.7,-17.55C419.7,-19.5 419.388,-21.338 418.763,-23.063C418.138,-24.788 417.25,-26.288 416.1,-27.563C414.95,-28.838 413.55,-29.85 411.9,-30.6C410.25,-31.35 408.4,-31.725 406.35,-31.725C404.3,-31.725 402.462,-31.35 400.837,-30.6C399.212,-29.85 397.825,-28.838 396.675,-27.563C395.525,-26.288 394.638,-24.788 394.013,-23.063C393.388,-21.338 393.075,-19.5 393.075,-17.55C393.075,-15.6 393.388,-13.762 394.013,-12.038C394.638,-10.312 395.525,-8.813 396.675,-7.538C397.825,-6.263 399.212,-5.263 400.837,-4.538C402.462,-3.813 404.3,-3.45 406.35,-3.45C408.4,-3.45 410.25,-3.813 411.9,-4.538C413.55,-5.263 414.95,-6.263 416.1,-7.538C417.25,-8.813 418.138,-10.312 418.763,-12.038C419.388,-13.762 419.7,-15.6 419.7,-17.55Z" style="fill:rgb(21,12,102);fill-rule:nonzero;stroke:rgb(21,12,102);stroke-width:1px;stroke-linecap:butt;stroke-miterlimit:2;"/>
            <path d="M451.875,-30.825L441.975,-30.825L441.975,-10.35C441.975,-9.05 442.1,-7.975 442.35,-7.125C442.6,-6.275 442.962,-5.613 443.437,-5.138C443.912,-4.663 444.475,-4.338 445.125,-4.163C445.775,-3.988 446.475,-3.9 447.225,-3.9C447.925,-3.9 448.662,-4 449.437,-4.2C450.212,-4.4 450.95,-4.675 451.65,-5.025L451.875,-0.6C450.975,-0.25 450.037,0.012 449.062,0.188C448.087,0.363 447.025,0.45 445.875,0.45C444.925,0.45 443.925,0.325 442.875,0.075C441.825,-0.175 440.85,-0.65 439.95,-1.35C439.05,-2.05 438.312,-3 437.737,-4.2C437.162,-5.4 436.875,-6.975 436.875,-8.925L436.875,-30.825L429.6,-30.825L429.6,-35.1L436.875,-35.1L436.875,-45L441.975,-45L441.975,-35.1L451.875,-35.1L451.875,-30.825Z" style="fill:rgb(21,12,102);fill-rule:nonzero;stroke:rgb(21,12,102);stroke-width:1px;stroke-linecap:butt;stroke-miterlimit:2;"/>
            <path d="M465,0L459.9,0L459.9,-35.1L465,-35.1L465,0ZM466.05,-48.6C466.05,-47.55 465.675,-46.688 464.925,-46.013C464.175,-45.337 463.35,-45 462.45,-45C461.55,-45 460.725,-45.337 459.975,-46.013C459.225,-46.688 458.85,-47.55 458.85,-48.6C458.85,-49.65 459.225,-50.513 459.975,-51.188C460.725,-51.862 461.55,-52.2 462.45,-52.2C463.35,-52.2 464.175,-51.862 464.925,-51.188C465.675,-50.513 466.05,-49.65 466.05,-48.6Z" style="fill:rgb(21,12,102);fill-rule:nonzero;stroke:rgb(21,12,102);stroke-width:1px;stroke-linecap:butt;stroke-miterlimit:2;"/>
            <path d="M483.15,-35.1C483.25,-34.15 483.325,-33.1 483.375,-31.95C483.425,-30.8 483.45,-29.85 483.45,-29.1L483.6,-29.1C484.6,-31.15 486.225,-32.813 488.475,-34.088C490.725,-35.363 493.1,-36 495.6,-36C500.05,-36 503.387,-34.675 505.612,-32.025C507.837,-29.375 508.95,-25.875 508.95,-21.525L508.95,0L503.85,0L503.85,-19.425C503.85,-21.275 503.7,-22.95 503.4,-24.45C503.1,-25.95 502.587,-27.237 501.862,-28.313C501.137,-29.388 500.162,-30.225 498.937,-30.825C497.712,-31.425 496.175,-31.725 494.325,-31.725C492.975,-31.725 491.662,-31.45 490.387,-30.9C489.112,-30.35 487.975,-29.513 486.975,-28.388C485.975,-27.263 485.175,-25.838 484.575,-24.113C483.975,-22.388 483.675,-20.35 483.675,-18L483.675,0L478.575,0L478.575,-27.375C478.575,-28.325 478.55,-29.55 478.5,-31.05C478.45,-32.55 478.375,-33.9 478.275,-35.1L483.15,-35.1Z" style="fill:rgb(21,12,102);fill-rule:nonzero;stroke:rgb(21,12,102);stroke-width:1px;stroke-linecap:butt;stroke-miterlimit:2;"/>
            <path d="M524.025,7.05C525.425,8.85 527.338,10.375 529.762,11.625C532.188,12.875 534.75,13.5 537.45,13.5C539.95,13.5 542.075,13.137 543.825,12.413C545.575,11.688 546.988,10.7 548.063,9.45C549.137,8.2 549.925,6.738 550.425,5.063C550.925,3.388 551.175,1.6 551.175,-0.3L551.175,-6.9L551.025,-6.9C549.675,-4.7 547.762,-3 545.288,-1.8C542.813,-0.6 540.3,0 537.75,0C535,0 532.512,-0.45 530.288,-1.35C528.063,-2.25 526.163,-3.488 524.588,-5.063C523.012,-6.638 521.788,-8.525 520.913,-10.725C520.038,-12.925 519.6,-15.3 519.6,-17.85C519.6,-20.35 520.038,-22.7 520.913,-24.9C521.788,-27.1 523.012,-29.025 524.588,-30.675C526.163,-32.325 528.063,-33.625 530.288,-34.575C532.512,-35.525 535,-36 537.75,-36C540.3,-36 542.8,-35.4 545.25,-34.2C547.7,-33 549.625,-31.275 551.025,-29.025L551.175,-29.025L551.175,-35.1L556.275,-35.1L556.275,-0.3C556.275,1.6 556.012,3.625 555.488,5.775C554.963,7.925 553.988,9.9 552.563,11.7C551.137,13.5 549.2,15 546.75,16.2C544.3,17.4 541.125,18 537.225,18C533.975,18 530.875,17.375 527.925,16.125C524.975,14.875 522.45,13.15 520.35,10.95L524.025,7.05ZM525,-18C525,-16.15 525.3,-14.4 525.9,-12.75C526.5,-11.1 527.363,-9.65 528.488,-8.4C529.613,-7.15 531,-6.162 532.65,-5.438C534.3,-4.713 536.175,-4.35 538.275,-4.35C540.225,-4.35 542.025,-4.675 543.675,-5.325C545.325,-5.975 546.75,-6.9 547.95,-8.1C549.15,-9.3 550.088,-10.738 550.762,-12.413C551.438,-14.087 551.775,-15.95 551.775,-18C551.775,-19.85 551.438,-21.6 550.762,-23.25C550.088,-24.9 549.15,-26.35 547.95,-27.6C546.75,-28.85 545.325,-29.85 543.675,-30.6C542.025,-31.35 540.225,-31.725 538.275,-31.725C536.175,-31.725 534.3,-31.35 532.65,-30.6C531,-29.85 529.613,-28.85 528.488,-27.6C527.363,-26.35 526.5,-24.9 525.9,-23.25C525.3,-21.6 525,-19.85 525,-18Z" style="fill:rgb(21,12,102);fill-rule:nonzero;stroke:rgb(21,12,102);stroke-width:1px;stroke-linecap:butt;stroke-miterlimit:2;"/>
        </g>
    </g>
</svg>
